<?xml version="1.0" standalone="no"?>
<!DOCTYPE svg PUBLIC "-//W3C//DTD SVG 1.1//EN" "http://www.w3.org/Graphics/SVG/1.1/DTD/svg11.dtd" >
<svg xmlns="http://www.w3.org/2000/svg">
<metadata></metadata>
<defs>
<font id="gravitylight" horiz-adv-x="1093" >
<font-face units-per-em="2048" ascent="1638" descent="-410" />
<missing-glyph horiz-adv-x="456" />
<glyph horiz-adv-x="0" />
<glyph horiz-adv-x="682" />
<glyph unicode=" "  horiz-adv-x="456" />
<glyph unicode="&#x09;" horiz-adv-x="456" />
<glyph unicode="&#xa0;" horiz-adv-x="456" />
<glyph unicode="!" horiz-adv-x="516" d="M213 20v123q0 21 20 21h50q20 0 20 -21v-123q0 -20 -20 -20h-50q-20 0 -20 20zM221 446l2 1010q0 21 21 21h35q20 0 20 -21l2 -1010q0 -20 -20 -20h-39q-21 0 -21 20z" />
<glyph unicode="&#x22;" horiz-adv-x="679" d="M184 1102l41 395q3 19 23 19h31q20 0 20 -23l-53 -395q-3 -19 -21 -19h-20q-24 0 -21 23zM463 1102l43 395q3 19 20 19h31q24 0 21 -23l-52 -395q-3 -19 -20 -19h-23q-23 0 -20 23z" />
<glyph unicode="#" horiz-adv-x="1488" d="M106 551l7 22q3 19 22 19h289l80 385h-291q-21 0 -18 22l4 23q3 18 22 18h297l90 439q3 18 23 18h24q22 0 19 -22l-90 -435h409l90 439q3 18 23 18h24q22 0 19 -22l-90 -435h305q21 0 18 -22l-4 -23q-3 -18 -22 -18h-309l-80 -385h311q21 0 18 -23l-4 -22q-3 -19 -22 -19 h-316l-104 -510q-3 -18 -23 -18h-26q-22 0 -19 23l105 505h-408l-104 -510q-3 -18 -23 -18h-28q-22 0 -19 23l107 505h-287q-22 0 -19 23zM492 592h407l80 385h-408z" />
<glyph unicode="$" horiz-adv-x="1216" d="M106 387q-7 23 19 23h33q18 0 24 -17q19 -51 52.5 -95t87.5 -86t139 -66.5t190 -24.5q179 0 285 72.5t106 201.5q0 118 -94.5 191.5t-292.5 132.5l-96 29q-100 30 -168 59t-122 68.5t-80 91t-27 118.5q-1 142 116 229t306 93l-6 246q0 20 20 20h29q20 0 20 -20l-4 -246 q74 -4 139.5 -24t112 -48t84.5 -65t61.5 -71.5t38.5 -70.5q4 -9 -0.5 -15.5t-15.5 -6.5h-35q-16 0 -24 14q-20 41 -52 77t-80 70.5t-119 55t-155 20.5q-164 0 -263 -67.5t-99 -179.5q0 -47 17 -85t45 -65.5t77.5 -52t99.5 -42.5t125 -40l96 -29q218 -63 320 -150.5 t102 -225.5q0 -160 -126.5 -254.5t-342.5 -94.5h-6l4 -233q0 -21 -20 -21h-29q-20 0 -20 21l6 235q-107 8 -194 41t-143 81t-90 99.5t-51 106.5z" />
<glyph unicode="%" horiz-adv-x="1480" d="M100 1303q0 95 68.5 163t163.5 68t163 -68t68 -163q0 -97 -67.5 -164.5t-163.5 -67.5t-164 68t-68 164zM162 1303q0 -71 50 -120.5t120 -49.5t121 50t51 120t-51 120t-121 50t-120 -49.5t-50 -120.5zM170.5 7q-3.5 7 3.5 18l944 1458q8 14 25 14h31q12 0 15.5 -6.5 t-3.5 -17.5l-944 -1459q-8 -14 -25 -14h-31q-12 0 -15.5 7zM918 242q0 95 68 163t165 68q95 0 163 -68t68 -163q0 -97 -68 -165.5t-163 -68.5q-97 0 -165 68.5t-68 165.5zM981 242q0 -70 49.5 -120t120.5 -50q69 0 119.5 50t50.5 120t-50.5 120t-119.5 50q-71 0 -120.5 -50 t-49.5 -120z" />
<glyph unicode="&#x26;" horiz-adv-x="1355" d="M158 354q0 130 86.5 233.5t263.5 209.5q-44 52 -71.5 89.5t-60 92t-49 110t-16.5 111.5q0 136 91.5 223.5t242.5 87.5t235.5 -88t84.5 -221q0 -66 -22 -122t-70 -108t-105.5 -96t-146.5 -100l405 -495q39 92 39 211q0 40 -10 135q-3 22 18 22h31q20 0 20 -18 q13 -89 13 -148q0 -150 -62 -264l160 -194q8 -9 4.5 -17t-16.5 -8h-52q-12 0 -24 12l-115 142q-138 -170 -411 -170q-210 0 -336.5 102t-126.5 268zM233 354q0 -135 106.5 -220t287.5 -85q245 0 360 160l-434 536q-170 -104 -245 -194.5t-75 -196.5zM385 1200 q0 -49 17 -100.5t49 -102.5t59.5 -87t67.5 -83q64 41 105.5 70.5t85.5 67.5t68.5 72.5t40 77t15.5 89.5q0 106 -68.5 175t-181.5 69q-115 0 -186.5 -71.5t-71.5 -176.5z" />
<glyph unicode="'" horiz-adv-x="399" d="M184 1102l41 395q3 19 23 19h31q20 0 20 -23l-53 -395q-3 -19 -21 -19h-20q-24 0 -21 23z" />
<glyph unicode="(" horiz-adv-x="849" d="M238 530q0 290 105 549t290 432q14 11 29 2l6 -4q17 -11 4 -28q-174 -190 -264.5 -432t-90.5 -519t90.5 -518.5t264.5 -431.5q14 -17 -4 -29l-6 -4q-14 -12 -29 0q-185 174 -290 434t-105 549z" />
<glyph unicode=")" horiz-adv-x="849" d="M178 -420q174 190 264 430.5t90 519.5q0 277 -90.5 519.5t-263.5 431.5q-13 17 4 28l6 4q15 9 29 -2q184 -173 289.5 -432t105.5 -549q0 -288 -105.5 -548.5t-289.5 -434.5q-15 -12 -29 0l-6 4q-18 12 -4 29z" />
<glyph unicode="*" horiz-adv-x="790" d="M156 1327l14 23q10 19 29 6l188 -127l45 196q7 24 27 11l12 -9q17 -9 10 -26l-47 -135l94 108q12 14 29 4l12 -6q20 -14 2 -29l-147 -137l205 -102q19 -10 6 -29l-14 -22q-10 -20 -27 -6l-188 124l-46 -194q-7 -23 -26 -10l-15 8q-16 10 -10 29l47 129l-92 -103 q-12 -15 -28 -6l-15 8q-20 14 -2 29l150 133l-207 104q-19 10 -6 29z" />
<glyph unicode="+" horiz-adv-x="1427" d="M246 516v23q0 20 20 20h416v416q0 20 20 20h27q21 0 21 -20v-416h411q21 0 21 -20v-23q0 -20 -21 -20h-411v-416q0 -21 -21 -21h-27q-20 0 -20 21v416h-416q-20 0 -20 20z" />
<glyph unicode="," horiz-adv-x="548" d="M227 -190q34 52 41 99t-16 81q-10 13 -10 24v123q0 21 20 21h53q21 0 21 -21v-100q0 -87 -20 -143.5t-60 -104.5q-13 -17 -29 -4q-13 6 0 25z" />
<glyph unicode="-" horiz-adv-x="1097" d="M246 573v27q0 21 20 21h565q21 0 21 -21v-27q0 -20 -21 -20h-565q-20 0 -20 20z" />
<glyph unicode="." horiz-adv-x="514" d="M213 20v121q0 21 20 21h48q20 0 20 -21v-121q0 -20 -20 -20h-48q-20 0 -20 20z" />
<glyph unicode="/" horiz-adv-x="911" d="M113 7q-4 7 2 18l696 1458q8 14 25 14h38q12 0 16.5 -6.5t-1.5 -17.5l-696 -1459q-8 -14 -25 -14h-39q-12 0 -16 7z" />
<glyph unicode="0" horiz-adv-x="1236" d="M100 735q0 337 147 543.5t380 206.5q230 0 370 -199.5t140 -529.5q0 -224 -67.5 -400t-187.5 -273t-272 -97q-150 0 -266 94t-180 264.5t-64 390.5zM176 741q0 -307 121.5 -495.5t316.5 -188.5q198 0 322.5 190.5t124.5 497.5t-120 488.5t-318 181.5q-201 0 -324 -184 t-123 -490z" />
<glyph unicode="1" horiz-adv-x="815" d="M115 1081q-15 15 2 31l413 350q8 11 25 11h80q20 0 20 -21l2 -1432q0 -20 -20 -20h-41q-21 0 -21 20l3 1387h-9l-405 -350q-12 -12 -29 2z" />
<glyph unicode="2" horiz-adv-x="1183" d="M166 20v25q0 17 10 29l572 637q109 119 156.5 205t47.5 180q0 142 -85.5 228.5t-237.5 86.5q-133 0 -229 -68t-140 -186q-6 -16 -24 -16h-33q-11 0 -16 6t-1 16q53 146 168 232t277 86q182 0 289.5 -104.5t107.5 -278.5q0 -108 -52.5 -204.5t-172.5 -227.5l-524 -588v-8 l784 2q20 0 20 -21v-33q0 -20 -20 -20l-877 2q-20 0 -20 20z" />
<glyph unicode="3" horiz-adv-x="1126" d="M104 305q-3 23 19 23h39q16 0 22 -19q29 -118 132.5 -185t250.5 -67q177 0 280 97.5t103 261.5q0 149 -117 238t-321 89h-76q-20 0 -20 21v27q0 20 20 20h76q190 0 293.5 83t103.5 224q0 128 -88 210.5t-239 82.5q-133 0 -229 -68t-140 -186q-6 -16 -25 -16h-34 q-11 0 -16 6.5t-1 15.5q55 145 170 231.5t277 86.5q181 0 290 -100t109 -259q0 -130 -75 -218.5t-212 -123.5q156 -36 243 -131.5t87 -236.5q0 -192 -125 -308t-332 -116q-180 0 -304.5 87.5t-160.5 229.5z" />
<glyph unicode="4" horiz-adv-x="1208" d="M100 440v29q0 19 11 33l673 956q12 15 27 15h43q20 0 20 -21l3 -960h210q21 0 21 -21v-31q0 -20 -21 -20h-210v-400q0 -20 -21 -20h-39q-20 0 -20 20l2 400h-678q-21 0 -21 20zM190 492h609l4 858h-10l-603 -852v-6z" />
<glyph unicode="5" horiz-adv-x="1140" d="M104 305q-3 23 19 23h39q16 0 22 -19q29 -112 130 -182t251 -70q183 0 291.5 106t108.5 286q0 177 -105 288t-285 111q-88 0 -170.5 -28t-142.5 -75q-11 -8 -24 -8l-37 2q-9 0 -14.5 6t-4.5 15l66 692q3 21 22 21h680q21 0 21 -21v-31q0 -20 -21 -20h-639l-53 -582h8 q132 99 316 99q207 0 332.5 -132t125.5 -337q0 -210 -130 -335.5t-345 -125.5q-181 0 -304.5 89t-156.5 228z" />
<glyph unicode="6" horiz-adv-x="1210" d="M147 633q0 416 137.5 636t385.5 220q149 0 248.5 -76.5t134.5 -200.5q6 -22 -17 -22l-32 -2q-19 0 -25 16q-32 95 -113.5 154t-197.5 59q-196 0 -311 -173t-134 -499h10q183 134 398 134q208 0 343.5 -125t135.5 -328q0 -198 -131 -319t-328 -121q-104 0 -193 37.5 t-159.5 113.5t-111 203t-40.5 293zM221 633q0 -152 34.5 -266t95.5 -180.5t137 -99t167 -32.5q168 0 274.5 100.5t106.5 268.5q0 171 -114.5 277t-298.5 106q-113 0 -218 -39t-184 -102v-33z" />
<glyph unicode="7" horiz-adv-x="1097" d="M100 1423v29q0 21 21 21h856q20 0 20 -21v-22q0 -9 -8 -33q-323 -634 -581 -1381q-6 -16 -25 -16h-45q-22 0 -16 25q264 741 587 1368v8l-788 2q-21 0 -21 20z" />
<glyph unicode="8" horiz-adv-x="1236" d="M147 397q0 145 79.5 250.5t215.5 145.5v6q-105 36 -168 120t-63 211q0 166 112.5 273.5t294.5 107.5q184 0 296 -107t112 -274q0 -128 -64.5 -211.5t-170.5 -121.5v-4q139 -40 219 -145.5t80 -250.5q0 -186 -130 -299.5t-342 -113.5t-341.5 113.5t-129.5 299.5zM223 399 q0 -156 108 -253t287 -97q180 0 288 97t108 253q0 158 -109.5 259.5t-286.5 101.5t-286 -101.5t-109 -259.5zM285 1128q0 -135 91 -221t242 -86t242.5 86t91.5 221q0 138 -92.5 229t-241.5 91t-241 -91t-92 -229z" />
<glyph unicode="9" horiz-adv-x="1200" d="M111 1057q0 195 128 313.5t320 118.5q102 0 189 -37.5t156.5 -113t109 -203.5t39.5 -295q0 -416 -137 -635t-386 -219q-156 0 -260 76t-141 200q-7 23 18 23h33q18 0 25 -17q32 -94 118.5 -152.5t208.5 -58.5q199 0 315.5 178t129.5 513h-8q-78 -60 -180 -97t-211 -37 q-201 0 -334 122.5t-133 320.5zM184 1061q0 -169 112 -273t290 -104q109 0 211 40.5t182 104.5v13q0 152 -33.5 265.5t-93 179.5t-134 98t-163.5 32q-162 0 -266.5 -97t-104.5 -259z" />
<glyph unicode=":" horiz-adv-x="454" d="M221 51v123q0 9 6 15t15 6h47q20 0 20 -21v-123q0 -20 -20 -20h-47q-21 0 -21 20zM221 952v123q0 9 6 15t15 6h49q20 0 20 -21v-123q0 -20 -20 -20h-49q-21 0 -21 20z" />
<glyph unicode=";" horiz-adv-x="614" d="M227 -190q34 52 41 99t-16 81q-10 13 -10 24v123q0 21 20 21h53q21 0 21 -21v-100q0 -87 -20 -143.5t-60 -104.5q-13 -17 -29 -4q-13 6 0 25zM381 952v123q0 21 20 21h50q20 0 20 -21v-123q0 -20 -20 -20h-50q-20 0 -20 20z" />
<glyph unicode="&#x3c;" horiz-adv-x="1464" d="M246 514v35q0 16 14 22l934 435q11 5 18 0t7 -17v-28q0 -17 -15 -23l-885 -406l885 -407q15 -6 15 -23v-26q0 -12 -7 -17t-18 0l-934 433q-14 6 -14 22z" />
<glyph unicode="=" horiz-adv-x="1384" d="M246 319v25q0 21 20 21h856q21 0 21 -21v-25q0 -20 -21 -20h-856q-20 0 -20 20zM246 741v27q0 20 20 20h856q21 0 21 -20v-27q0 -20 -21 -20h-856q-20 0 -20 20z" />
<glyph unicode="&#x3e;" horiz-adv-x="1464" d="M246 76v26q0 17 14 23l885 407l-885 406q-14 6 -14 23v28q0 12 6.5 17t17.5 0l934 -433q15 -6 15 -22v-35q0 -16 -15 -22l-934 -435q-11 -5 -17.5 0t-6.5 17z" />
<glyph unicode="?" d="M113 1161q47 148 165.5 234t288.5 86q192 0 306 -106t114 -279q0 -67 -21 -128t-57.5 -112t-93.5 -100.5t-120.5 -91t-145.5 -86.5l-2 -199q0 -21 -21 -21h-39q-20 0 -20 21l2 217q0 17 14 25q216 110 321 221t105 254q0 138 -91.5 224.5t-252.5 86.5q-140 0 -239 -67 t-136 -183q-6 -16 -24 -16h-35q-11 0 -16 5.5t-2 14.5zM465 16v119q0 21 20 21h47q21 0 21 -21v-119q0 -20 -21 -20h-47q-20 0 -20 20z" />
<glyph unicode="@" horiz-adv-x="1718" d="M158 543q0 161 57.5 296.5t156.5 227t234 142.5t289 51q299 0 482.5 -181t183.5 -471q0 -176 -72 -274t-203 -98q-93 0 -148 48t-71 124h-8q-27 -83 -92 -126.5t-144 -43.5q-114 0 -184 83.5t-70 213.5q0 136 74.5 223.5t192.5 87.5q139 0 202 -121h6v86q0 20 21 20h20 q21 0 21 -20v-250q0 -79 15 -133.5t42.5 -81t56.5 -37t66 -10.5q209 0 209 297q0 276 -165.5 437t-434.5 161q-186 0 -337.5 -77t-242 -226t-90.5 -344q0 -188 83 -335.5t238 -231.5t357 -84q147 0 260 34q22 6 25 -16l2 -18q0 -19 -19 -25q-129 -39 -274 -39 q-213 0 -380.5 87.5t-263 250.5t-95.5 373zM633 541q0 -112 56 -177t147 -65q90 0 145 61t59 170v33q-6 108 -61.5 165.5t-138.5 57.5q-94 0 -150.5 -67.5t-56.5 -177.5z" />
<glyph unicode="A" horiz-adv-x="1267" d="M45 25l541 1429q6 16 22 16h51q17 0 23 -16l541 -1429q1 -4 1 -8q0 -6 -3 -10q-5 -7 -15 -7h-41q-16 0 -22 16l-180 484h-658l-180 -484q-6 -16 -23 -16h-41q-11 0 -15 7q-3 4 -2 10q0 4 1 8zM334 573h602l-301 807z" />
<glyph unicode="B" horiz-adv-x="1302" d="M158 20l4 1430q0 20 20 20h525q186 0 295.5 -99.5t109.5 -260.5q0 -109 -49.5 -194t-142.5 -130q134 -40 208 -138.5t74 -237.5q0 -181 -118.5 -295.5t-315.5 -114.5h-590q-20 0 -20 20zM238 70h524q167 0 265.5 92.5t98.5 243.5q0 150 -100.5 241.5t-271.5 91.5h-516 v-669zM238 809h467q153 0 242 82t89 215q0 132 -91 213.5t-249 81.5h-458v-592z" />
<glyph unicode="C" horiz-adv-x="1433" d="M100 735q0 220 85 391.5t235 266t340 94.5q188 0 331 -93t216 -259q5 -11 0 -18t-17 -7h-35q-16 0 -24 14q-70 136 -193.5 213.5t-281.5 77.5q-259 0 -419.5 -185.5t-160.5 -490.5q0 -199 72.5 -354.5t203.5 -241.5t298 -86q178 0 306.5 88t194.5 254q6 17 23 17h37 q11 0 15 -7q3 -4 2 -10q0 -4 -1 -8q-71 -189 -221.5 -297t-360.5 -108q-189 0 -336 96t-228 266.5t-81 386.5z" />
<glyph unicode="D" horiz-adv-x="1380" d="M158 20l4 1430q0 20 20 20h441q305 0 481 -195.5t176 -518.5q0 -219 -80.5 -390t-233.5 -268.5t-356 -97.5h-432q-20 0 -20 20zM238 1401l2 -1329h360q272 0 438 188.5t166 489.5q0 297 -160.5 474t-431.5 177h-374z" />
<glyph unicode="E" horiz-adv-x="1155" d="M158 20l4 1430q0 20 20 20h844q21 0 21 -20v-31q0 -20 -21 -20h-788v-586h659q21 0 21 -20v-31q0 -9 -6 -15t-15 -6h-659l2 -669h794q21 0 21 -21v-31q0 -20 -21 -20h-856q-20 0 -20 20z" />
<glyph unicode="F" horiz-adv-x="1138" d="M158 20l4 1430q0 20 20 20h836q20 0 20 -20v-31q0 -20 -20 -20h-780v-608h651q20 0 20 -21v-33q0 -20 -20 -20h-649v-697q0 -20 -21 -20h-41q-20 0 -20 20z" />
<glyph unicode="G" horiz-adv-x="1517" d="M111 737q0 164 49.5 304t136 238t209 153t264.5 55q189 0 333.5 -92t213.5 -250q5 -9 0.5 -16t-14.5 -7l-37 -2q-16 0 -25 15q-68 130 -191 205t-284 75q-168 0 -299.5 -83t-206 -237.5t-74.5 -355.5q0 -199 72.5 -354.5t203.5 -241.5t298 -86q107 0 201.5 35t169.5 101 t122 172t54 239l-414 2q-21 0 -21 21v28q0 21 21 21l473 2q18 0 18 -19q-1 -158 -49.5 -286t-133.5 -212t-199.5 -129.5t-247.5 -45.5q-188 0 -335 96t-227.5 267t-80.5 388z" />
<glyph unicode="H" horiz-adv-x="1400" d="M158 20l4 1430q0 20 20 20h33q21 0 21 -20l2 -637h925l2 637q0 20 21 20h33q20 0 20 -20l4 -1430q0 -20 -20 -20h-41q-21 0 -21 20l2 721h-925l2 -721q0 -20 -21 -20h-41q-20 0 -20 20z" />
<glyph unicode="I" horiz-adv-x="643" d="M281 20l4 1430q0 20 20 20h35q20 0 20 -20l2 -1430q0 -20 -20 -20h-41q-20 0 -20 20z" />
<glyph unicode="J" horiz-adv-x="927" d="M100 20v33q0 21 21 21q137 3 227 35t137.5 96.5t65 143t18.5 194.5l2 909q0 21 21 21h35q20 0 20 -21l2 -905q0 -107 -14.5 -187.5t-50.5 -149t-95.5 -112.5t-151.5 -69.5t-216 -28.5q-21 0 -21 20z" />
<glyph unicode="K" horiz-adv-x="1325" d="M106 20l5 1430q0 20 20 20h35q20 0 20 -20l2 -807l902 817q8 10 24 10h43q13 0 16 -7.5t-6 -16.5l-628 -578l690 -843q6 -6 6 -12q1 -3 -1 -5q-4 -8 -17 -8h-54q-12 0 -24 12l-656 807l-295 -272l2 -527q0 -20 -20 -20h-43q-21 0 -21 20z" />
<glyph unicode="L" horiz-adv-x="1110" d="M158 20l4 1430q0 20 20 20h35q21 0 21 -20l2 -1378h792q21 0 21 -21v-31q0 -20 -21 -20h-854q-20 0 -20 20z" />
<glyph unicode="M" horiz-adv-x="1708" d="M158 20l30 1430q0 20 21 20h82q17 0 22 -16l543 -1364l541 1364q5 16 22 16h80q21 0 21 -20l30 -1430q0 -20 -20 -20h-41q-21 0 -21 20l-18 1389l-545 -1393q-5 -16 -22 -16h-56q-17 0 -22 16l-547 1393l-20 -1389q0 -20 -21 -20h-39q-20 0 -20 20z" />
<glyph unicode="N" horiz-adv-x="1392" d="M158 20l4 1430q0 20 20 20h80q17 0 25 -14l866 -1366l4 1360q0 20 21 20h34q21 0 21 -20l2 -1430q0 -20 -21 -20h-75q-17 0 -25 14l-878 1391l4 -1385q0 -20 -21 -20h-41q-20 0 -20 20z" />
<glyph unicode="O" horiz-adv-x="1507" d="M100 737q0 164 49.5 304t137 238t210 153t265.5 55q189 0 335.5 -91.5t228 -258.5t81.5 -381q0 -166 -50 -309.5t-137 -244.5t-210 -158.5t-265 -57.5q-187 0 -334.5 96t-229 267t-81.5 388zM176 739q0 -302 160 -492t412 -190q168 0 300.5 87t206.5 245.5t74 360.5 q0 301 -158 483t-413 182q-256 0 -419 -186.5t-163 -489.5z" />
<glyph unicode="P" horiz-adv-x="1241" d="M158 20l4 1430q0 20 20 20h518q201 0 322 -111.5t121 -291.5q0 -184 -121.5 -301t-321.5 -117h-460v-629q0 -20 -21 -20h-41q-20 0 -20 20zM238 721h456q170 0 270.5 94t100.5 246q0 153 -101.5 246.5t-269.5 93.5h-456v-680z" />
<glyph unicode="Q" horiz-adv-x="1507" d="M100 737q0 164 49.5 304t137 238t210 153t265.5 55q189 0 335.5 -91.5t228 -258.5t81.5 -381q0 -198 -69 -360t-191 -267l125 -149q11 -14 -2 -31l-23 -21q-6 -5 -12 -5q-9 0 -16 9l-129 156q-151 -102 -345 -102q-187 0 -334.5 96t-229 267t-81.5 388zM176 739 q0 -302 160 -492t412 -190q165 0 296 86l-131 158q-12 15 5 29l20 18q16 13 29 -4l133 -160q109 92 169 238t60 328q0 301 -158 483t-413 182q-256 0 -419 -186.5t-163 -489.5z" />
<glyph unicode="R" horiz-adv-x="1267" d="M158 20l4 1430q0 20 20 20h527q197 0 312.5 -103t115.5 -269q0 -163 -109.5 -268.5t-296.5 -112.5l481 -692q4 -7 4 -12q0 -3 -2 -6q-4 -7 -16 -7h-53q-16 0 -25 12l-479 705h-401v-697q0 -20 -21 -20h-41q-20 0 -20 20zM238 786h462q168 0 264.5 84.5t96.5 223.5 q0 138 -97.5 222.5t-263.5 84.5h-462v-615z" />
<glyph unicode="S" horiz-adv-x="1271" d="M106 354q-1 5 -1 9q0 14 20 14h37q17 0 24 -17q16 -44 40.5 -84t66 -81t94.5 -70.5t129 -48.5t166 -19q188 0 300 81t112 224q0 130 -100.5 213t-307.5 146l-102 33q-105 32 -176.5 64t-128.5 76t-85 102q-29 60 -28 134q0 161 130 259t337 98q86 0 161.5 -20.5 t128.5 -52.5t96 -74.5t68.5 -83t42.5 -82.5q4 -10 -0.5 -16.5t-15.5 -6.5h-37q-16 0 -22 14q-23 46 -56.5 86.5t-85 79.5t-126 61.5t-162.5 22.5q-172 0 -276.5 -75t-104.5 -201q0 -64 25 -112t80 -85t116.5 -62.5t161.5 -56.5l102 -30q229 -71 335.5 -169t106.5 -251 q0 -179 -132.5 -283t-360.5 -104q-105 0 -194.5 23t-151 59t-109.5 85.5t-75 98.5t-42 102z" />
<glyph unicode="T" horiz-adv-x="1116" d="M23 1419v31q0 20 20 20h1030q21 0 21 -20v-31q0 -20 -21 -20h-477l4 -1379q0 -20 -20 -20h-43q-21 0 -21 20l4 1379h-477q-20 0 -20 20z" />
<glyph unicode="U" horiz-adv-x="1454" d="M158 635v815q0 20 20 20h37q21 0 21 -20v-811q0 -281 133 -431.5t356 -150.5q147 0 257 64.5t173 197t64 320.5v811q0 20 20 20h35q20 0 20 -20l2 -815q0 -156 -42.5 -280t-119.5 -204t-181.5 -122.5t-229.5 -42.5q-256 0 -410.5 170t-154.5 479z" />
<glyph unicode="V" horiz-adv-x="1261" d="M45 1446q-2 6 -2 10q0 14 18 14h37q17 0 23 -16l506 -1343h6l508 1343q6 16 22 16h37q10 0 15 -6q3 -4 3 -10q0 -3 -1 -8l-533 -1430q-6 -16 -22 -16h-62q-16 0 -22 16z" />
<glyph unicode="W" horiz-adv-x="1988" d="M43 1448q-1 4 -1 8q0 14 19 14h35q19 0 25 -16l407 -1331h7l411 1331q6 16 25 16h51q19 0 25 -16l407 -1331h8l410 1331q6 16 24 16h31q20 0 20 -14q0 -3 -1 -8l-437 -1432q-6 -16 -24 -16h-55q-19 0 -25 16l-412 1356l-409 -1356q-6 -16 -25 -16h-57q-19 0 -25 16z" />
<glyph unicode="X" horiz-adv-x="1376" d="M116 7q-1 2 -2 5q0 6 5 13l526 735l-485 686q-7 10 -3.5 17t15.5 7h35q15 0 24 -12l467 -649l467 649q9 12 25 12h33q12 0 15.5 -7t-3.5 -17l-496 -694l521 -727q4 -7 4 -12q0 -3 -1 -6q-4 -7 -16 -7h-47q-15 0 -24 12l-488 688l-489 -688q-9 -12 -25 -12h-43 q-11 0 -15 7z" />
<glyph unicode="Y" horiz-adv-x="1175" d="M50 1463q4 7 16 7h36q17 0 25 -14l459 -700h8l457 700q8 14 24 14h35q12 0 16 -7q1 -2 1 -5q0 -5 -5 -12l-495 -772l4 -654q0 -20 -21 -20h-43q-20 0 -20 20l4 656l-498 770q-4 6 -4 12q0 2 1 5z" />
<glyph unicode="Z" horiz-adv-x="1282" d="M106 20v25q0 16 9 27l952 1319v8h-917q-21 0 -21 20v31q0 20 21 20h1001q20 0 20 -20v-25q0 -12 -10 -24l-946 -1323v-6h946q21 0 21 -21v-31q0 -20 -21 -20h-1034q-21 0 -21 20z" />
<glyph unicode="[" horiz-adv-x="761" d="M203 -430l2 1905q0 20 20 20h373q20 0 20 -20v-23q0 -20 -20 -20h-322l3 -1819h319q20 0 20 -21v-22q0 -21 -20 -21h-375q-20 0 -20 21z" />
<glyph unicode="\" horiz-adv-x="911" d="M21 1490.5q4 6.5 16 6.5h37q16 0 24 -14l699 -1458q6 -11 1.5 -18t-16.5 -7h-39q-16 0 -24 14l-696 1459q-6 11 -2 17.5z" />
<glyph unicode="]" horiz-adv-x="761" d="M143 -408q0 21 21 21h321l-2 1819h-319q-21 0 -21 20v23q0 20 21 20h375q20 0 20 -20l-2 -1905q0 -21 -20 -21h-373q-21 0 -21 21v22z" />
<glyph unicode="^" horiz-adv-x="1458" d="M434 410l258 933q3 17 23 17h30q20 0 23 -19l256 -931q7 -23 -18 -23h-29q-20 0 -23 19l-225 829l-227 -829q-3 -19 -23 -19h-26q-26 0 -19 23z" />
<glyph unicode="_" horiz-adv-x="1138" d="M115 -229q0 20 20 20h869q20 0 20 -20v-13q0 -20 -20 -20h-869q-20 0 -20 20v13z" />
<glyph unicode="`" horiz-adv-x="692" d="M229 1534.5q4 7.5 17 7.5h33q15 0 24 -12l156 -217q7 -11 3 -18t-16 -7h-4q-12 0 -24 12l-185 218q-8 9 -4 16.5z" />
<glyph unicode="a" d="M115 276q0 77 31 133.5t85.5 93.5t144.5 61.5t191 37t242 19.5l33 2v114q0 122 -70.5 197.5t-212.5 75.5h-4q-112 0 -191 -51q-80 -52 -116 -144q-6 -16 -25 -16h-30q-11 0 -16.5 4.5t-2.5 13.5q37 117 137.5 189.5t253.5 72.5q170 0 260 -92t90 -258l5 -709 q0 -20 -21 -20h-37q-20 0 -20 20v158l-11 4q-59 -90 -159.5 -142t-229.5 -52q-148 0 -237.5 72.5t-89.5 215.5zM190 281q0 -110 71.5 -167t193.5 -57q143 0 247.5 71t139.5 167v262h-31q-106 -5 -184.5 -13t-152 -21.5t-123.5 -33.5t-87.5 -49t-55.5 -68.5t-18 -90.5z" />
<glyph unicode="b" horiz-adv-x="1216" d="M176 20v1463q0 20 21 20h32q21 0 21 -20l2 -584l10 -4q142 184 365 184q210 0 342.5 -153.5t132.5 -401.5q0 -240 -126.5 -389t-336.5 -149q-115 0 -215 47t-162 135l-10 -2v-146q0 -20 -21 -20h-34q-21 0 -21 20zM250 301q50 -118 151 -182t226 -64q185 0 292 130.5 t107 342.5q0 216 -111 348t-286 132q-126 0 -223.5 -71.5t-155.5 -201.5v-434z" />
<glyph unicode="c" horiz-adv-x="1050" d="M115 522q0 246 126 398.5t337 152.5q148 0 251.5 -71t155.5 -193q1 -4 1 -8q0 -6 -2 -10q-4 -7 -15 -7h-37q-17 0 -23 17q-44 96 -128 149.5t-203 53.5q-124 0 -213.5 -65t-132 -171.5t-42.5 -243.5q0 -99 25 -183.5t73 -148.5t123.5 -100.5t170.5 -36.5q117 0 199.5 51 t125.5 140q5 16 23 16h37q19 0 19 -13q0 -5 -3 -11q-54 -116 -156.5 -184t-251.5 -68q-211 0 -335.5 148.5t-124.5 387.5z" />
<glyph unicode="d" horiz-adv-x="1216" d="M115 524q0 248 132 401.5t343 153.5q222 0 364 -184l9 4l2 584q0 20 20 20h33q20 0 20 -20l2 -1463q0 -20 -20 -20h-37q-20 0 -20 20v146l-11 2q-60 -88 -160.5 -135t-216.5 -47q-208 0 -334 149.5t-126 388.5zM190 530q0 -212 109.5 -343.5t292.5 -131.5q124 0 225.5 67 t149.5 189v434q-57 127 -154.5 195t-222.5 68q-179 0 -289.5 -131t-110.5 -347z" />
<glyph unicode="e" horiz-adv-x="1140" d="M115 522q0 246 133.5 397.5t341.5 151.5q198 0 317 -140.5t119 -355.5q0 -20 -20 -20h-816q-1 -18 -1 -35q0 -82 20 -156q24 -90 73.5 -159t129 -109.5t180.5 -40.5q229 0 332 191q8 14 24 14h35q12 0 16 -7t-2 -17q-60 -121 -163.5 -185.5t-245.5 -64.5q-215 0 -344 149 t-129 387zM197 621h753q-9 166 -107 272t-257 106q-156 0 -261.5 -103t-127.5 -275z" />
<glyph unicode="f" horiz-adv-x="657" d="M70 1018v24q0 21 20 21h152v78q0 207 80 285q78 77 259 77h9q20 0 20 -20v-27q0 -20 -20 -20q-104 -3 -160.5 -27.5t-84.5 -87t-28 -176.5v-82h263q20 0 20 -21v-24q0 -21 -20 -21h-263l2 -977q0 -20 -20 -20h-39q-20 0 -20 20l2 977h-152q-20 0 -20 21z" />
<glyph unicode="g" horiz-adv-x="1216" d="M115 539q0 241 126 390.5t334 149.5q116 0 217 -48t160 -136h11l2 147q0 21 20 21h33q20 0 20 -21l2 -962v-9q0 -254 -112 -394q-114 -142 -336 -142q-161 0 -263.5 70.5t-152.5 187.5q-5 11 0 18t17 7h34q17 0 23 -15q101 -198 344 -198q183 0 276 118t93 349v100l-11 4 q-140 -176 -362 -176q-213 0 -344 146t-131 393zM190 532q0 -213 109.5 -337.5t288.5 -124.5q127 0 224.5 64t154.5 183v435q-48 122 -149.5 189t-225.5 67q-183 0 -292.5 -131t-109.5 -345z" />
<glyph unicode="h" horiz-adv-x="1134" d="M176 20v1463q0 20 21 20h34q21 0 21 -20v-600l12 -2q159 194 375 194q149 0 234 -90t85 -256v-709q0 -20 -20 -20h-37q-20 0 -20 20v693q1 139 -67.5 213.5t-192.5 74.5q-230 0 -369 -249l2 -732q0 -20 -21 -20h-36q-21 0 -21 20z" />
<glyph unicode="i" horiz-adv-x="468" d="M197 20v1022q0 21 20 21h35q20 0 20 -21l2 -1022q0 -20 -20 -20h-37q-20 0 -20 20zM197 1376v107q0 20 20 20h35q20 0 20 -20v-107q0 -20 -20 -20h-35q-20 0 -20 20z" />
<glyph unicode="j" horiz-adv-x="557" d="M-27 -401q0 20 21 20q145 4 197.5 66.5t52.5 224.5l2 1132q0 21 20 21h37q21 0 21 -21v-1136q1 -195 -76.5 -274.5t-253.5 -82.5q-9 0 -15 6t-6 15v29zM246 1376v107q0 20 20 20h35q21 0 21 -20v-107q0 -20 -21 -20h-35q-20 0 -20 20z" />
<glyph unicode="k" d="M176 20l2 1463q0 20 21 20h32q21 0 21 -20l2 -983l596 553q8 10 24 10h41q13 0 16.5 -8t-5.5 -17l-422 -393l457 -620q4 -7 4 -12q0 -3 -1 -6q-4 -7 -16 -7h-45q-15 0 -24 12l-426 586l-199 -184l2 -394q0 -20 -20 -20h-39q-21 0 -21 20z" />
<glyph unicode="l" horiz-adv-x="544" d="M231 20l5 1463q0 20 20 20h33q20 0 20 -20l2 -1463q0 -20 -20 -20h-39q-21 0 -21 20z" />
<glyph unicode="m" horiz-adv-x="1662" d="M115 20l2 1022q0 21 20 21h33q20 0 20 -21l3 -161h10q162 198 366 198q217 0 281 -215h8q150 215 367 215q139 0 218.5 -89t80.5 -261v-709q0 -20 -21 -20h-37q-20 0 -20 20v693q0 147 -61.5 220t-176.5 73q-109 0 -196 -65.5t-146 -190.5l2 -730q0 -20 -20 -20h-39 q-21 0 -21 20l3 693q0 147 -63 220t-179 73q-110 0 -201.5 -65.5t-154.5 -188.5v-732q0 -20 -21 -20h-37q-20 0 -20 20z" />
<glyph unicode="n" horiz-adv-x="1132" d="M176 20v1022q0 21 21 21h34q21 0 21 -21v-159l12 -2q163 198 377 198q149 0 232 -89t83 -261v-709q0 -20 -20 -20h-33q-20 0 -20 20v693q0 146 -68.5 219.5t-191.5 73.5q-228 0 -371 -254l2 -732q0 -20 -21 -20h-36q-21 0 -21 20z" />
<glyph unicode="o" horiz-adv-x="1175" d="M115 530q0 243 134.5 396t344.5 153q208 0 338.5 -148t130.5 -388q0 -243 -136 -400t-345 -157q-205 0 -336 153t-131 391zM190 535q0 -211 111.5 -345.5t284.5 -134.5q175 0 287 136t112 348q0 211 -109.5 340t-285.5 129t-288 -130.5t-112 -342.5z" />
<glyph unicode="p" horiz-adv-x="1216" d="M176 -430v1472q0 9 6 15t15 6h34q21 0 21 -21v-145l10 -2q62 88 162.5 136t214.5 48q211 0 337 -149.5t126 -390.5q0 -248 -132.5 -400.5t-342.5 -152.5q-226 0 -363 182l-10 -4v-594q0 -21 -21 -21h-36q-21 0 -21 21zM250 317q59 -126 156.5 -194t222.5 -68 q178 0 287.5 131t109.5 346q0 214 -108 345t-291 131q-126 0 -227 -67t-150 -189v-435z" />
<glyph unicode="q" horiz-adv-x="1216" d="M115 539q0 241 126 390.5t334 149.5q116 0 216.5 -47.5t162.5 -136.5l9 2l2 145q0 21 20 21h33q20 0 20 -21l2 -1472q0 -21 -20 -21h-37q-20 0 -20 21v594l-9 4q-143 -182 -366 -182q-210 0 -341.5 152.5t-131.5 400.5zM190 532q0 -215 110.5 -346t289.5 -131 q125 0 222.5 68.5t154.5 193.5v435q-48 123 -149 189.5t-226 66.5q-183 0 -292.5 -131t-109.5 -345z" />
<glyph unicode="r" horiz-adv-x="688" d="M176 20v1022q0 21 21 21h34q21 0 21 -21v-190l12 -2q129 218 357 229q20 0 20 -20v-41q0 -21 -20 -21q-266 -10 -369 -284l2 -693q0 -20 -21 -20h-36q-21 0 -21 20z" />
<glyph unicode="s" horiz-adv-x="987" d="M106 244q-2 4 -2 8t3 8q5 6 16 6h37q18 0 24 -16q36 -93 126.5 -144t213.5 -51q126 0 206.5 54t80.5 159q0 90 -69 144t-218 100l-78 23q-153 48 -227 107t-74 165q0 125 99.5 198.5t253.5 73.5q277 0 372 -227q3 -9 -1.5 -16t-14.5 -7h-35q-15 0 -24 15 q-86 166 -299 166q-122 0 -198.5 -52.5t-76.5 -144.5q0 -43 17.5 -75t56 -57t81 -42t111.5 -39l82 -25q167 -51 244.5 -120.5t77.5 -180.5q0 -134 -100.5 -211t-270.5 -77q-152 0 -259.5 66t-154.5 192z" />
<glyph unicode="t" horiz-adv-x="659" d="M70 1020v22q0 21 20 21h189l2 416q0 20 20 20h33q20 0 20 -20v-416h238q20 0 20 -21v-22q0 -21 -20 -21h-238l2 -979q0 -20 -20 -20h-39q-21 0 -21 20l3 979h-189q-20 0 -20 21z" />
<glyph unicode="u" horiz-adv-x="1132" d="M176 338v704q0 9 6 15t15 6h34q21 0 21 -21v-686q0 -149 68 -223t192 -74q229 0 369 252v731q0 21 20 21h35q20 0 20 -21l2 -1022q0 -20 -20 -20h-39q-20 0 -20 20l2 160l-11 4q-164 -198 -378 -198q-147 0 -232 90t-84 262z" />
<glyph unicode="v" horiz-adv-x="970" d="M57 1040q-1 4 -1 7q0 5 2 9q4 6 16 7h32q19 0 25 -16l344 -963h14l353 963q6 16 24 16h31q11 0 15 -7q3 -4 2 -9q0 -3 -1 -7l-372 -1024q-6 -16 -25 -16h-72q-18 0 -24 16z" />
<glyph unicode="w" horiz-adv-x="1533" d="M55 1040q-1 4 -1 7q0 5 4 9q6 6 16 7h32q19 0 25 -16l289 -957h12l291 957q6 16 25 16h32q19 0 25 -16l299 -957h12l291 957q6 16 25 16h28q10 -1 16 -7q4 -4 4 -9q0 -3 -1 -7l-310 -1024q-6 -16 -24 -16h-68q-18 0 -24 16l-287 902h-10l-273 -902q-6 -16 -24 -16h-70 q-18 0 -24 16z" />
<glyph unicode="x" horiz-adv-x="1021" d="M90 7q-1 2 -1 5q0 6 5 13l371 526l-340 487q-7 10 -3.5 17.5t15.5 7.5h37q16 0 25 -12l321 -453l324 453q9 12 24 12h37q12 0 16 -7.5t-3 -17.5l-355 -501l361 -512q4 -7 4 -12q0 -3 -1 -6q-4 -7 -16 -7h-43q-15 0 -24 12l-336 477l-336 -477q-9 -12 -25 -12h-41 q-12 0 -16 7z" />
<glyph unicode="y" horiz-adv-x="968" d="M57 1040q-1 3 -1 6q0 6 3 10q5 7 15 7h32q19 0 25 -16l344 -961h10l355 961q6 16 22 16h35q10 0 15 -7q2 -4 2 -9q0 -3 -1 -7l-534 -1474q-7 -17 -25 -17h-43q-10 0 -14.5 7t-1.5 18l147 395z" />
<glyph unicode="z" horiz-adv-x="1019" d="M115 20v29v2q0 1 10 21l684 921v6h-647q-9 0 -15 6t-6 15v22q0 9 6 15t15 6h717q20 0 20 -21v-30q-4 -13 -10 -21l-678 -919v-6h676q20 0 20 -21v-25q0 -20 -20 -20h-752q-20 0 -20 20z" />
<glyph unicode="{" horiz-adv-x="806" d="M203 528v27q0 20 18 23q74 23 98.5 72t24.5 171v424q0 161 66 226t206 65h27q21 0 21 -20v-25q0 -21 -21 -21h-12q-116 0 -165.5 -50.5t-49.5 -186.5v-434q0 -83 -14.5 -134.5t-36.5 -75t-62 -44.5v-8q39 -19 62 -44.5t37 -77.5t14 -134v-437q0 -134 49.5 -184.5 t165.5 -50.5h12q21 0 21 -21v-24q0 -21 -21 -21h-27q-140 0 -206 65t-66 228v424q0 122 -24.5 172.5t-98.5 73.5q-18 3 -18 22z" />
<glyph unicode="|" horiz-adv-x="684" d="M305 -481l2 2048q0 20 21 20h28q21 0 21 -20l2 -2048q0 -9 -6 -15t-15 -6h-32q-9 0 -15 6t-6 15z" />
<glyph unicode="}" horiz-adv-x="806" d="M143 -412q0 9 6 15t15 6h12q116 0 165.5 50.5t49.5 184.5v437q0 83 14.5 134.5t36.5 75t62 44.5v8q-39 19 -62 44.5t-37 77.5t-14 134v434q0 136 -49.5 186.5t-165.5 50.5h-12q-9 0 -15 6t-6 15v25q0 20 21 20h26q140 0 206.5 -66t66.5 -227v-424q0 -123 24.5 -173 t98.5 -73q18 -3 18 -22v-27q0 -19 -18 -22q-74 -23 -98.5 -72.5t-24.5 -171.5v-424q0 -161 -66.5 -226t-206.5 -65h-26q-21 0 -21 21v24z" />
<glyph unicode="~" horiz-adv-x="1044" d="M244 547q5 71 40 116.5t103 45.5q36 0 67 -15.5t53.5 -38t44 -45t47.5 -38t54 -15.5q71 0 74 98q0 21 21 21h22q9 0 15 -6t6 -15q-5 -72 -39.5 -115.5t-98.5 -43.5q-36 0 -67.5 15.5t-54.5 38t-44.5 44.5t-47 37.5t-52.5 15.5q-75 0 -82 -98q0 -21 -20 -21h-21 q-20 0 -20 19z" />
<glyph unicode="&#xa1;" horiz-adv-x="518" d="M215 926v123q0 20 21 20h49q20 0 20 -20v-123q0 -21 -20 -21h-49q-9 0 -15 6t-6 15zM217 623q0 20 21 20h38q21 0 21 -20l-2 -1012q0 -21 -21 -21h-34q-21 0 -21 21z" />
<glyph unicode="&#xa2;" horiz-adv-x="1050" d="M115 698q0 239 119.5 390.5t320.5 160.5l-4 248q0 21 20 21h27q20 0 20 -21l-6 -250q135 -7 230 -77t143 -185q7 -24 -16 -24h-37q-18 0 -23 16q-44 96 -128 149.5t-203 53.5q-124 0 -213.5 -65t-132 -171.5t-42.5 -243.5q0 -99 25 -183.5t73 -148.5t123.5 -100.5 t170.5 -36.5q117 0 199.5 51t125.5 140q5 16 23 16h37q26 0 16 -24q-50 -109 -143.5 -176t-227.5 -74l6 -242q0 -20 -20 -20h-27q-20 0 -20 20l4 240q-134 5 -234 74.5t-153 189t-53 272.5z" />
<glyph unicode="&#xa3;" horiz-adv-x="1259" d="M158 20v27q0 17 14 25q84 58 110.5 117t26.5 182v311h-90q-20 0 -20 20v27q0 21 20 21h90v303q0 205 106 316.5t285 111.5q154 0 256 -85.5t140 -232.5q6 -22 -17 -22h-37q-19 0 -22 18q-29 115 -111.5 183.5t-212.5 68.5q-149 0 -230.5 -93.5t-80.5 -270.5v-297h401 q21 0 21 -21v-27q0 -20 -21 -20h-401v-326q0 -107 -25.5 -171t-80.5 -107v-8l802 2q9 0 15 -6t6 -15v-33q0 -20 -21 -20l-903 2q-20 0 -20 20z" />
<glyph unicode="&#xa4;" horiz-adv-x="1370" d="M322 186q-14 14 0 29l122 125q-71 84 -71 199q0 111 69 196q-12 13 2 27l17 18q16 12 26 2q86 70 197 70q114 0 199 -72l123 121q14 14 28 0l15 -14q15 -15 0 -29l-123 -123q69 -81 69 -196t-71 -199q12 -12 -2 -27l-15 -16q-16 -12 -26 -2q-88 -68 -197 -68 q-111 0 -195 68l-122 -125q-16 -13 -29 0zM432 539q0 -103 74 -177.5t178 -74.5q83 0 154 51l-82 82q-14 14 0 29l16 16q13 13 29 0l82 -82q55 68 55 156q0 104 -75.5 179t-178.5 75q-84 0 -154 -54l86 -88q14 -14 0 -28l-16 -17q-14 -14 -29 0l-86 86q-53 -66 -53 -153z " />
<glyph unicode="&#xa5;" horiz-adv-x="1175" d="M50 1463q4 7 16 7h36q17 0 25 -14l459 -700h8l457 700q8 14 24 14h35q12 0 15.5 -7t-3.5 -17l-460 -719h212q21 0 21 -20v-23q0 -20 -21 -20h-247l2 -158h245q21 0 21 -21v-22q0 -21 -21 -21h-245l2 -422q0 -20 -21 -20h-43q-20 0 -20 20l2 422h-240q-20 0 -20 21v22 q0 21 20 21h240l2 158h-242q-20 0 -20 20v23q0 20 20 20h209l-465 719q-7 10 -3 17z" />
<glyph unicode="&#xa7;" horiz-adv-x="1087" d="M166 186q-4 10 0.5 16.5t15.5 6.5h35q19 0 25 -16q38 -97 125 -150t206 -53q121 0 200 55t79 158q0 90 -68 144t-231 114l-39 12q-65 24 -105 41.5t-83.5 43t-66.5 51.5t-38.5 62t-15.5 81q0 86 50.5 152t137.5 108q-95 41 -141.5 94t-46.5 137q0 125 94.5 200t249.5 75 q271 0 360 -236q9 -22 -16 -22h-33q-16 0 -22 14q-85 174 -291 174q-121 0 -193.5 -53.5t-72.5 -143.5q0 -36 13.5 -65.5t34 -50t59.5 -41t74.5 -34.5t94.5 -34l41 -14q177 -58 254.5 -131t77.5 -179q0 -84 -43 -148.5t-117 -102.5q82 -46 121 -102.5t39 -137.5 q0 -134 -98 -213.5t-263 -79.5q-148 0 -253.5 69t-149.5 199zM281 760q0 -26 7.5 -48t17.5 -39t32.5 -33.5t39.5 -27t52.5 -25.5t58 -23.5t68.5 -24.5l41 -15q48 -17 98 -39q156 76 156 207q0 47 -19 84t-61 67.5t-91.5 53.5t-127.5 51l-82 31q-190 -77 -190 -219z" />
<glyph unicode="&#xa8;" horiz-adv-x="733" d="M213 1376v107q0 20 20 20h21q20 0 20 -20v-107q0 -20 -20 -20h-21q-20 0 -20 20zM459 1376v107q0 20 20 20h21q20 0 20 -20v-107q0 -20 -20 -20h-21q-20 0 -20 20z" />
<glyph unicode="&#xa9;" horiz-adv-x="1794" d="M158 737q0 165 58 305t158 235t235.5 148.5t287.5 53.5q153 0 288.5 -53.5t235 -148.5t157.5 -235t58 -305q0 -220 -99.5 -391.5t-267 -262.5t-372.5 -91q-204 0 -371.5 91t-267.5 262.5t-100 391.5zM213 737q0 -153 54.5 -283t147.5 -218t218 -137.5t266 -49.5 q140 0 264.5 49.5t217 137.5t146.5 218t54 283q0 152 -54 281.5t-146.5 217.5t-217 137.5t-264.5 49.5q-141 0 -266.5 -49.5t-218 -137.5t-147 -217.5t-54.5 -281.5zM520 733q0 195 105 316.5t280 121.5q120 0 204.5 -57.5t127.5 -155.5q7 -24 -16 -24h-19q-17 0 -22 16 q-81 166 -277 166q-154 0 -238.5 -107.5t-84.5 -273.5q0 -168 85 -277.5t240 -109.5q99 0 168.5 44t106.5 120q6 14 22 14h17q26 0 16 -24q-43 -97 -127.5 -153t-204.5 -56q-175 0 -279 122t-104 318z" />
<glyph unicode="&#xab;" horiz-adv-x="1212" d="M182 487v41q0 16 15 25l370 244q11 7 18 3t7 -16v-30q0 -17 -14 -25l-338 -221l338 -221q14 -8 14 -25v-29q0 -12 -7 -15.5t-18 3.5l-370 242q-15 9 -15 24zM621 487v41q0 17 14 25l371 244q10 7 17 3t7 -16v-30q0 -17 -14 -25l-338 -221l338 -221q14 -8 14 -25v-29 q0 -12 -7 -15.5t-17 3.5l-371 242q-14 8 -14 24z" />
<glyph unicode="&#xad;" horiz-adv-x="1097" d="M246 573v27q0 21 20 21h565q21 0 21 -21v-27q0 -20 -21 -20h-565q-20 0 -20 20z" />
<glyph unicode="&#xae;" horiz-adv-x="987" d="M170 1194q0 134 96 230t228 96q135 0 229 -95.5t94 -230.5q0 -133 -94.5 -228.5t-228.5 -95.5q-132 0 -228 96t-96 228zM219 1196q0 -114 80.5 -194t194.5 -80q113 0 193.5 80t80.5 194t-80.5 194t-193.5 80q-114 0 -194.5 -80t-80.5 -194zM387 1065v258q0 20 21 20h106 q45 0 72.5 -23.5t27.5 -59.5q0 -33 -20.5 -55.5t-56.5 -28.5l73 -107q14 -25 -14 -25h-4q-15 0 -25 13l-82 117h-53v-109q0 -21 -20 -21h-4q-21 0 -21 21zM432 1212h78q59 0 59 43q0 23 -15.5 36.5t-43.5 13.5h-78v-93z" />
<glyph unicode="&#xaf;" horiz-adv-x="804" d="M213 1393v12q0 20 20 20h336q21 0 21 -20v-12q0 -21 -21 -21h-336q-20 0 -20 21z" />
<glyph unicode="&#xb0;" horiz-adv-x="790" d="M164 1288q0 95 68 163.5t163 68.5t163.5 -68.5t68.5 -163.5q0 -96 -68 -163.5t-164 -67.5t-163.5 67.5t-67.5 163.5zM225 1288q0 -70 49.5 -120t120.5 -50q70 0 121 50t51 120t-51 120t-121 50q-71 0 -120.5 -50t-49.5 -120z" />
<glyph unicode="&#xb2;" horiz-adv-x="645" d="M162 973v12q0 11 8 19l217 198q44 41 63 69.5t19 59.5q0 42 -30.5 68t-84.5 26q-94 0 -131 -67q-6 -17 -22 -17h-17q-11 0 -16 5t-2 12q21 52 70.5 87.5t119.5 35.5q79 0 124.5 -41.5t45.5 -104.5q0 -80 -98 -168l-176 -161v-5h272q21 0 21 -20v-8q0 -21 -21 -21h-342 q-20 0 -20 21z" />
<glyph unicode="&#xb3;" horiz-adv-x="595" d="M106 1057q-4 10 1 16t16 6h18q17 0 23 -16q14 -33 49.5 -51.5t85.5 -18.5q64 0 100.5 29t36.5 80q0 46 -43 72t-125 26h-16q-9 0 -15 6t-6 15v6q0 20 21 20h16q75 0 113.5 25t38.5 67q0 39 -31.5 63.5t-87.5 24.5q-92 0 -127 -65q-6 -16 -22 -16h-15q-12 0 -17 7t1 17 q23 48 69.5 79.5t116.5 31.5q79 0 123.5 -38.5t44.5 -96.5q0 -42 -26.5 -74t-79.5 -45q127 -31 127 -129q0 -69 -53 -112.5t-142 -43.5q-76 0 -127.5 33t-67.5 82z" />
<glyph unicode="&#xb4;" horiz-adv-x="692" d="M228 1295q-4 7 3 18l158 217q9 12 25 12h30q13 0 17 -7.5t-4 -16.5l-185 -218q-12 -12 -24 -12h-4q-12 0 -16 7z" />
<glyph unicode="&#xb6;" horiz-adv-x="1331" d="M115 870q0 174 114.5 283t305.5 109h217q20 0 20 -21l2 -1425q0 -21 -20 -21h-35q-21 0 -21 21v657h-163q-191 0 -305.5 110.5t-114.5 286.5zM1022 -184v1425q0 21 20 21h35q21 0 21 -21l2 -1425q0 -9 -6 -15t-15 -6h-37q-20 0 -20 21z" />
<glyph unicode="&#xb7;" horiz-adv-x="677" d="M295 500v118q0 21 20 21h47q21 0 21 -21v-118q0 -21 -21 -21h-47q-20 0 -20 21z" />
<glyph unicode="&#xb8;" horiz-adv-x="780" d="M219 -403l2 6q9 19 27 10q62 -27 125 -27q64 0 100.5 32t36.5 85q0 58 -47 93.5t-137 39.5q-26 0 -19 23l43 145q3 16 23 16h16q11 0 16 -6t1 -16l-37 -119q88 -10 142 -52.5t54 -119.5q0 -74 -51 -123t-143 -49q-73 0 -142 35q-17 7 -10 27z" />
<glyph unicode="&#xb9;" horiz-adv-x="516" d="M115 1321q-13 17 2 29l141 110q8 8 25 8h53q20 0 20 -20l2 -475q0 -21 -20 -21h-23q-20 0 -20 21l2 444h-4l-139 -106q-16 -13 -31 2z" />
<glyph unicode="&#xbb;" horiz-adv-x="1212" d="M182 233v31q0 16 15 25l338 221l-338 221q-15 9 -15 25v28q0 12 7 16t18 -3l371 -242q14 -8 14 -25v-41q0 -16 -14 -24l-371 -244q-11 -7 -18 -3.5t-7 15.5zM621 233v31q0 17 14 25l338 221l-338 221q-14 8 -14 25v28q0 12 6.5 16t17.5 -3l371 -242q14 -8 14 -25v-41 q0 -16 -14 -24l-371 -244q-11 -7 -17.5 -3.5t-6.5 15.5z" />
<glyph unicode="&#xbf;" d="M156 -33q0 83 30.5 156.5t91 136.5t136 116.5t178.5 108.5l2 199q0 21 20 21h39q9 0 15 -6t6 -15l-2 -215q0 -16 -15 -25q-217 -111 -321.5 -222.5t-104.5 -254.5q0 -138 91.5 -224.5t252.5 -86.5q140 0 239 67t136 185q6 16 25 16h35q11 0 16 -5.5t2 -14.5 q-47 -148 -166 -234t-289 -86q-190 0 -303.5 105.5t-113.5 277.5zM588 928v121q0 20 20 20h47q21 0 21 -20v-121q0 -21 -21 -21h-47q-20 0 -20 21z" />
<glyph unicode="&#xc0;" horiz-adv-x="1267" d="M45 25l541 1429q6 16 22 16h51q17 0 23 -16l541 -1429q3 -11 -2 -18t-15 -7h-41q-16 0 -22 16l-180 484h-658l-180 -484q-6 -16 -23 -16h-41q-10 0 -14.5 7t-1.5 18zM334 573h602l-301 807zM423.5 1944q3.5 8 16.5 8h31q15 0 25 -13l157 -217q7 -10 3.5 -17t-15.5 -7h-4 q-13 0 -25 12l-184 217q-8 9 -4.5 17z" />
<glyph unicode="&#xc1;" horiz-adv-x="1267" d="M45 25l541 1429q6 16 22 16h51q17 0 23 -16l541 -1429q3 -11 -2 -18t-15 -7h-41q-16 0 -22 16l-180 484h-658l-180 -484q-6 -16 -23 -16h-41q-10 0 -14.5 7t-1.5 18zM334 573h602l-301 807zM617.5 1705q-3.5 7 3.5 17l157 217q10 13 25 13h31q13 0 16.5 -8t-4.5 -17 l-184 -217q-12 -12 -25 -12h-4q-12 0 -15.5 7z" />
<glyph unicode="&#xc2;" horiz-adv-x="1267" d="M45 25l541 1429q6 16 22 16h51q17 0 23 -16l541 -1429q3 -11 -2 -18t-15 -7h-41q-16 0 -22 16l-180 484h-658l-180 -484q-6 -16 -23 -16h-41q-10 0 -14.5 7t-1.5 18zM334 573h602l-301 807zM425.5 1705.5q-3.5 7.5 4.5 16.5l172 209q13 13 25 13h16q12 0 25 -13l172 -209 q8 -9 4 -16.5t-17 -7.5h-26q-15 0 -27 12l-135 186h-8l-135 -186q-9 -12 -25 -12h-29q-13 0 -16.5 7.5z" />
<glyph unicode="&#xc3;" horiz-adv-x="1267" d="M45 25l541 1429q6 16 22 16h51q17 0 23 -16l541 -1429q3 -11 -2 -18t-15 -7h-41q-16 0 -22 16l-180 484h-658l-180 -484q-6 -16 -23 -16h-41q-10 0 -14.5 7t-1.5 18zM334 573h602l-301 807zM412 1761q5 61 34 99t84 38q36 0 67.5 -21t51.5 -45.5t47.5 -45.5t55.5 -21 q58 0 61 84q0 21 21 21h10q20 0 20 -21q-11 -137 -112 -137q-37 0 -69 21t-51.5 45.5t-46.5 45.5t-55 21q-60 0 -67 -84q0 -20 -21 -20h-10q-20 0 -20 20z" />
<glyph unicode="&#xc4;" horiz-adv-x="1267" d="M45 25l541 1429q6 16 22 16h51q17 0 23 -16l541 -1429q3 -11 -2 -18t-15 -7h-41q-16 0 -22 16l-180 484h-658l-180 -484q-6 -16 -23 -16h-41q-10 0 -14.5 7t-1.5 18zM334 573h602l-301 807zM512 1786v106q0 21 20 21h19q20 0 20 -21v-106q0 -21 -20 -21h-19q-20 0 -20 21 zM758 1786v106q0 21 20 21h19q20 0 20 -21v-106q0 -21 -20 -21h-19q-20 0 -20 21z" />
<glyph unicode="&#xc5;" horiz-adv-x="1267" d="M45 25l541 1429q6 16 22 16h51q17 0 23 -16l541 -1429q3 -11 -2 -18t-15 -7h-41q-16 0 -22 16l-180 484h-658l-180 -484q-6 -16 -23 -16h-41q-10 0 -14.5 7t-1.5 18zM334 573h602l-301 807zM483 1812q0 66 44.5 108t107.5 42t106 -42t43 -108q0 -67 -43 -109t-106 -42 t-107.5 42t-44.5 109zM530 1812q0 -46 30.5 -75t74.5 -29t74 29t30 75t-30 75.5t-74 29.5t-74.5 -29.5t-30.5 -75.5z" />
<glyph unicode="&#xc6;" horiz-adv-x="1810" d="M49.5 7q-4.5 7 1.5 18l821 1433q9 15 25 15l784 2q9 0 15 -6t6 -15v-33q0 -20 -21 -20l-688 2v-590h557q21 0 21 -20v-31q0 -21 -21 -21h-557l2 -671l695 2q20 0 20 -21v-33q0 -20 -20 -20l-754 2q-21 0 -21 20v480h-505l-279 -486q-8 -14 -25 -14h-40q-12 0 -16.5 7z M453 573h465v809z" />
<glyph unicode="&#xc7;" horiz-adv-x="1433" d="M100 735q0 220 85 391.5t235 266t340 94.5q188 0 331 -93t216 -259q5 -11 0 -18t-17 -7h-35q-16 0 -24 14q-70 136 -193.5 213.5t-281.5 77.5q-259 0 -419.5 -185.5t-160.5 -490.5q0 -199 72.5 -354.5t203.5 -241.5t298 -86q178 0 306.5 88t194.5 254q6 17 23 17h37 q10 0 14.5 -7t1.5 -18q-70 -188 -220 -296t-359 -109l-39 -125q88 -10 142 -52.5t54 -119.5q0 -74 -51 -123t-143 -49q-75 0 -142 34q-17 7 -10 27l2 6q9 19 27 10q59 -26 125 -26q64 0 100.5 32t36.5 85q0 58 -47 93.5t-137 39.5q-25 0 -19 22l43 148q-264 22 -427 228.5 t-163 518.5z" />
<glyph unicode="&#xc8;" horiz-adv-x="1155" d="M158 20l4 1430q0 20 20 20h844q21 0 21 -20v-31q0 -20 -21 -20h-788v-586h659q21 0 21 -20v-31q0 -9 -6 -15t-15 -6h-659l2 -669h794q21 0 21 -21v-31q0 -20 -21 -20h-856q-20 0 -20 20zM354 1944q4 8 17 8h30q15 0 25 -13l158 -217q7 -10 3 -17t-16 -7h-4q-12 0 -24 12 l-185 217q-8 9 -4 17z" />
<glyph unicode="&#xc9;" horiz-adv-x="1155" d="M158 20l4 1430q0 20 20 20h844q21 0 21 -20v-31q0 -20 -21 -20h-788v-586h659q21 0 21 -20v-31q0 -9 -6 -15t-15 -6h-659l2 -669h794q21 0 21 -21v-31q0 -20 -21 -20h-856q-20 0 -20 20zM547.5 1705q-3.5 7 3.5 17l158 217q10 13 24 13h31q13 0 16.5 -8t-4.5 -17 l-184 -217q-12 -12 -25 -12h-4q-12 0 -15.5 7z" />
<glyph unicode="&#xca;" horiz-adv-x="1155" d="M158 20l4 1430q0 20 20 20h844q21 0 21 -20v-31q0 -20 -21 -20h-788v-586h659q21 0 21 -20v-31q0 -9 -6 -15t-15 -6h-659l2 -669h794q21 0 21 -21v-31q0 -20 -21 -20h-856q-20 0 -20 20zM356 1705.5q-4 7.5 4 16.5l172 209q13 13 25 13h16q12 0 25 -13l172 -209 q8 -9 4.5 -16.5t-16.5 -7.5h-27q-14 0 -26 12l-136 186h-8l-135 -186q-9 -12 -25 -12h-28q-13 0 -17 7.5z" />
<glyph unicode="&#xcb;" horiz-adv-x="1155" d="M158 20l4 1430q0 20 20 20h844q21 0 21 -20v-31q0 -20 -21 -20h-788v-586h659q21 0 21 -20v-31q0 -9 -6 -15t-15 -6h-659l2 -669h794q21 0 21 -21v-31q0 -20 -21 -20h-856q-20 0 -20 20zM442 1786v106q0 21 21 21h18q21 0 21 -21v-106q0 -21 -21 -21h-18q-9 0 -15 6 t-6 15zM688 1786v106q0 21 21 21h18q21 0 21 -21v-106q0 -21 -21 -21h-18q-9 0 -15 6t-6 15z" />
<glyph unicode="&#xcc;" horiz-adv-x="643" d="M112.5 1944q3.5 8 16.5 8h31q14 0 24 -13l158 -217q7 -10 3.5 -17t-15.5 -7h-4q-13 0 -25 12l-184 217q-8 9 -4.5 17zM281 20l4 1430q0 20 20 20h35q20 0 20 -20l2 -1430q0 -20 -20 -20h-41q-20 0 -20 20z" />
<glyph unicode="&#xcd;" horiz-adv-x="643" d="M281 20l4 1430q0 20 20 20h35q20 0 20 -20l2 -1430q0 -20 -20 -20h-41q-20 0 -20 20zM306 1705q-4 7 3 17l158 217q10 13 25 13h30q13 0 17 -8t-4 -17l-185 -217q-12 -12 -24 -12h-4q-12 0 -16 7z" />
<glyph unicode="&#xce;" horiz-adv-x="643" d="M114.5 1705.5q-3.5 7.5 4.5 16.5l172 209q13 13 24 13h17q11 0 24 -13l172 -209q8 -9 4.5 -16.5t-16.5 -7.5h-27q-14 0 -26 12l-135 186h-9l-135 -186q-9 -12 -24 -12h-29q-13 0 -16.5 7.5zM281 20l4 1430q0 20 20 20h35q20 0 20 -20l2 -1430q0 -20 -20 -20h-41 q-20 0 -20 20z" />
<glyph unicode="&#xcf;" horiz-adv-x="643" d="M201 1786v106q0 21 20 21h19q20 0 20 -21v-106q0 -21 -20 -21h-19q-20 0 -20 21zM281 20l4 1430q0 20 20 20h35q20 0 20 -20l2 -1430q0 -20 -20 -20h-41q-20 0 -20 20zM446 1786v106q0 21 21 21h18q21 0 21 -21v-106q0 -21 -21 -21h-18q-9 0 -15 6t-6 15z" />
<glyph unicode="&#xd0;" horiz-adv-x="1380" d="M129 573v27q0 21 21 21h10l2 829q0 20 20 20h441q305 0 481 -195.5t176 -518.5q0 -219 -80.5 -390t-233.5 -268.5t-356 -97.5h-432q-20 0 -20 20l2 533h-10q-21 0 -21 20zM238 1401l2 -780h475q20 0 20 -21v-27q0 -20 -20 -20h-475v-481h360q272 0 438 188.5t166 489.5 q0 297 -160.5 474t-431.5 177h-374z" />
<glyph unicode="&#xd1;" horiz-adv-x="1392" d="M158 20l4 1430q0 20 20 20h80q17 0 25 -14l866 -1366l4 1360q0 20 21 20h34q21 0 21 -20l2 -1430q0 -20 -21 -20h-75q-17 0 -25 14l-878 1391l4 -1385q0 -20 -21 -20h-41q-20 0 -20 20zM475 1763q5 61 34.5 99.5t84.5 38.5q29 0 55 -14t45 -33.5t37 -39t39.5 -33.5 t44.5 -14q59 0 62 84q0 21 20 21h10q9 0 15 -6t6 -15q-11 -137 -113 -137q-37 0 -69 21t-51 45.5t-46 45.5t-55 21q-61 0 -68 -84q0 -20 -20 -20h-10q-21 0 -21 20z" />
<glyph unicode="&#xd2;" horiz-adv-x="1507" d="M100 737q0 164 49.5 304t137 238t210 153t265.5 55q189 0 335.5 -91.5t228 -258.5t81.5 -381q0 -166 -50 -309.5t-137 -244.5t-210 -158.5t-265 -57.5q-187 0 -334.5 96t-229 267t-81.5 388zM176 739q0 -302 160 -492t412 -190q168 0 300.5 87t206.5 245.5t74 360.5 q0 301 -158 483t-413 182q-256 0 -419 -186.5t-163 -489.5zM542.5 1946q3.5 8 16.5 8h31q15 0 24 -12l158 -218q7 -10 3.5 -17t-15.5 -7h-4q-13 0 -25 12l-184 217q-8 9 -4.5 17z" />
<glyph unicode="&#xd3;" horiz-adv-x="1507" d="M100 737q0 164 49.5 304t137 238t210 153t265.5 55q189 0 335.5 -91.5t228 -258.5t81.5 -381q0 -166 -50 -309.5t-137 -244.5t-210 -158.5t-265 -57.5q-187 0 -334.5 96t-229 267t-81.5 388zM176 739q0 -302 160 -492t412 -190q168 0 300.5 87t206.5 245.5t74 360.5 q0 301 -158 483t-413 182q-256 0 -419 -186.5t-163 -489.5zM736 1707q-4 7 3 17l158 218q9 12 25 12h30q13 0 17 -8t-4 -17l-185 -217q-12 -12 -24 -12h-4q-12 0 -16 7z" />
<glyph unicode="&#xd4;" horiz-adv-x="1507" d="M100 737q0 164 49.5 304t137 238t210 153t265.5 55q189 0 335.5 -91.5t228 -258.5t81.5 -381q0 -166 -50 -309.5t-137 -244.5t-210 -158.5t-265 -57.5q-187 0 -334.5 96t-229 267t-81.5 388zM176 739q0 -302 160 -492t412 -190q168 0 300.5 87t206.5 245.5t74 360.5 q0 301 -158 483t-413 182q-256 0 -419 -186.5t-163 -489.5zM544.5 1707.5q-3.5 7.5 4.5 16.5l172 209q13 13 24 13h17q11 0 24 -13l172 -209q8 -9 4.5 -16.5t-16.5 -7.5h-26q-15 0 -27 12l-135 186h-8l-136 -186q-9 -12 -24 -12h-29q-13 0 -16.5 7.5z" />
<glyph unicode="&#xd5;" horiz-adv-x="1507" d="M100 737q0 164 49.5 304t137 238t210 153t265.5 55q189 0 335.5 -91.5t228 -258.5t81.5 -381q0 -166 -50 -309.5t-137 -244.5t-210 -158.5t-265 -57.5q-187 0 -334.5 96t-229 267t-81.5 388zM176 739q0 -302 160 -492t412 -190q168 0 300.5 87t206.5 245.5t74 360.5 q0 301 -158 483t-413 182q-256 0 -419 -186.5t-163 -489.5zM530 1763q5 61 34.5 99.5t84.5 38.5q29 0 55 -14t45 -33.5t37 -39t39.5 -33.5t44.5 -14q59 0 62 84q0 21 20 21h11q20 0 20 -21q-11 -137 -113 -137q-37 0 -69 21t-51 45.5t-46 45.5t-55 21q-60 0 -67 -84 q0 -20 -21 -20h-10q-21 0 -21 20z" />
<glyph unicode="&#xd6;" horiz-adv-x="1507" d="M100 737q0 164 49.5 304t137 238t210 153t265.5 55q189 0 335.5 -91.5t228 -258.5t81.5 -381q0 -166 -50 -309.5t-137 -244.5t-210 -158.5t-265 -57.5q-187 0 -334.5 96t-229 267t-81.5 388zM176 739q0 -302 160 -492t412 -190q168 0 300.5 87t206.5 245.5t74 360.5 q0 301 -158 483t-413 182q-256 0 -419 -186.5t-163 -489.5zM631 1788v106q0 21 20 21h19q20 0 20 -21v-106q0 -21 -20 -21h-19q-20 0 -20 21zM877 1788v106q0 21 20 21h18q21 0 21 -21v-106q0 -21 -21 -21h-18q-20 0 -20 21z" />
<glyph unicode="&#xd7;" horiz-adv-x="1247" d="M260 295q-14 15 0 29l189 188l-189 186q-14 14 0 29l148 147q14 14 28 0l189 -186l186 186q15 14 29 0l147 -147q15 -15 0 -29l-186 -186l186 -188q15 -14 0 -29l-147 -148q-14 -15 -29 0l-186 189l-189 -189q-14 -14 -28 0z" />
<glyph unicode="&#xd8;" horiz-adv-x="1529" d="M115 737q0 164 49.5 304t136.5 238t209.5 153t265.5 55q250 0 424 -160l129 158q12 12 25 12h39q13 0 16.5 -7.5t-4.5 -16.5l-160 -195q176 -198 176 -522q0 -221 -85 -397.5t-236 -274.5t-340 -98q-256 0 -432 176l-123 -150q-12 -12 -25 -12h-39q-13 0 -16.5 8t4.5 17 l154 188q-168 208 -168 524zM190 739q0 -281 142 -469l819 1000q-151 145 -377 145q-257 0 -420.5 -186.5t-163.5 -489.5zM375 219q156 -162 387 -162q256 0 420 193.5t164 499.5q0 283 -148 471z" />
<glyph unicode="&#xd9;" horiz-adv-x="1454" d="M158 635v815q0 20 20 20h37q21 0 21 -20v-811q0 -281 133 -431.5t356 -150.5q147 0 257 64.5t173 197t64 320.5v811q0 20 20 20h35q20 0 20 -20l2 -815q0 -156 -42.5 -280t-119.5 -204t-181.5 -122.5t-229.5 -42.5q-256 0 -410.5 170t-154.5 479zM507.5 1946 q3.5 8 16.5 8h31q16 0 25 -12l157 -218q7 -10 3.5 -17t-15.5 -7h-4q-13 0 -25 12l-184 217q-8 9 -4.5 17z" />
<glyph unicode="&#xda;" horiz-adv-x="1454" d="M158 635v815q0 20 20 20h37q21 0 21 -20v-811q0 -281 133 -431.5t356 -150.5q147 0 257 64.5t173 197t64 320.5v811q0 20 20 20h35q20 0 20 -20l2 -815q0 -156 -42.5 -280t-119.5 -204t-181.5 -122.5t-229.5 -42.5q-256 0 -410.5 170t-154.5 479zM701.5 1707 q-3.5 7 3.5 17l157 218q9 12 25 12h31q13 0 16.5 -8t-4.5 -17l-185 -217q-12 -12 -24 -12h-4q-12 0 -15.5 7z" />
<glyph unicode="&#xdb;" horiz-adv-x="1454" d="M158 635v815q0 20 20 20h37q21 0 21 -20v-811q0 -281 133 -431.5t356 -150.5q147 0 257 64.5t173 197t64 320.5v811q0 20 20 20h35q20 0 20 -20l2 -815q0 -156 -42.5 -280t-119.5 -204t-181.5 -122.5t-229.5 -42.5q-256 0 -410.5 170t-154.5 479zM509.5 1707.5 q-3.5 7.5 4.5 16.5l172 209q13 13 25 13h16q12 0 25 -13l172 -209q8 -9 4 -16.5t-17 -7.5h-26q-15 0 -27 12l-135 186h-8l-135 -186q-9 -12 -25 -12h-29q-13 0 -16.5 7.5z" />
<glyph unicode="&#xdc;" horiz-adv-x="1454" d="M158 635v815q0 20 20 20h37q21 0 21 -20v-811q0 -281 133 -431.5t356 -150.5q147 0 257 64.5t173 197t64 320.5v811q0 20 20 20h35q20 0 20 -20l2 -815q0 -156 -42.5 -280t-119.5 -204t-181.5 -122.5t-229.5 -42.5q-256 0 -410.5 170t-154.5 479zM596 1788v106 q0 21 20 21h19q20 0 20 -21v-106q0 -21 -20 -21h-19q-20 0 -20 21zM842 1788v106q0 21 20 21h19q20 0 20 -21v-106q0 -21 -20 -21h-19q-20 0 -20 21z" />
<glyph unicode="&#xdd;" horiz-adv-x="1175" d="M50 1463q4 7 16 7h36q17 0 25 -14l459 -700h8l457 700q8 14 24 14h35q12 0 15.5 -7t-3.5 -17l-495 -772l4 -654q0 -20 -21 -20h-43q-20 0 -20 20l4 656l-498 770q-7 10 -3 17zM570 1707q-4 7 3 17l158 218q9 12 25 12h30q13 0 17 -8t-4 -17l-185 -217q-12 -12 -24 -12h-4 q-12 0 -16 7z" />
<glyph unicode="&#xdf;" horiz-adv-x="1159" d="M158 20l4 951q0 132 36 233t99 160t140 88t167 29q178 0 284.5 -100t106.5 -259q0 -128 -71 -216.5t-201 -123.5q158 -36 247 -135.5t89 -247.5q0 -189 -132.5 -298t-389.5 -113q-21 0 -21 20v31q0 20 21 20q225 4 335.5 94.5t110.5 249.5q0 151 -111 244.5t-307 97.5 q-20 0 -20 21v27q0 20 20 20q171 4 264 86.5t93 216.5q0 129 -85 212t-231 83q-60 0 -111.5 -13t-99.5 -45t-82 -81.5t-54.5 -126t-20.5 -174.5l4 -951q0 -20 -21 -20h-43q-20 0 -20 20z" />
<glyph unicode="&#xe0;" d="M115 276q0 77 31 133.5t85.5 93.5t144.5 61.5t191 37t242 19.5l33 2v114q0 122 -70.5 197.5t-212.5 75.5q-115 1 -195 -51t-116 -144q-6 -16 -25 -16h-30q-11 0 -16.5 4.5t-2.5 13.5q37 117 137.5 189.5t253.5 72.5q170 0 260 -92t90 -258l5 -709q0 -20 -21 -20h-37 q-20 0 -20 20v158l-11 4q-59 -90 -159.5 -142t-229.5 -52q-148 0 -237.5 72.5t-89.5 215.5zM190 281q0 -110 71.5 -167t193.5 -57q143 0 247.5 71t139.5 167v262h-31q-106 -5 -184.5 -13t-152 -21.5t-123.5 -33.5t-87.5 -49t-55.5 -68.5t-18 -90.5zM335.5 1534.5 q3.5 7.5 16.5 7.5h31q16 0 25 -12l157 -217q7 -11 3.5 -18t-15.5 -7h-4q-13 0 -25 12l-184 218q-8 9 -4.5 16.5z" />
<glyph unicode="&#xe1;" d="M115 276q0 77 31 133.5t85.5 93.5t144.5 61.5t191 37t242 19.5l33 2v114q0 122 -70.5 197.5t-212.5 75.5q-115 1 -195 -51t-116 -144q-6 -16 -25 -16h-30q-11 0 -16.5 4.5t-2.5 13.5q37 117 137.5 189.5t253.5 72.5q170 0 260 -92t90 -258l5 -709q0 -20 -21 -20h-37 q-20 0 -20 20v158l-11 4q-59 -90 -159.5 -142t-229.5 -52q-148 0 -237.5 72.5t-89.5 215.5zM190 281q0 -110 71.5 -167t193.5 -57q143 0 247.5 71t139.5 167v262h-31q-106 -5 -184.5 -13t-152 -21.5t-123.5 -33.5t-87.5 -49t-55.5 -68.5t-18 -90.5zM529 1295q-4 7 3 18 l158 217q9 12 25 12h30q13 0 17 -7.5t-4 -16.5l-185 -218q-12 -12 -24 -12h-4q-12 0 -16 7z" />
<glyph unicode="&#xe2;" d="M115 276q0 77 31 133.5t85.5 93.5t144.5 61.5t191 37t242 19.5l33 2v114q0 122 -70.5 197.5t-212.5 75.5q-115 1 -195 -51t-116 -144q-6 -16 -25 -16h-30q-25 0 -19 22q41 116 140.5 187t250.5 71q170 0 260 -92t90 -258l5 -709q0 -20 -21 -20h-37q-20 0 -20 20v158 l-11 4q-59 -90 -159.5 -142t-229.5 -52q-148 0 -237.5 72.5t-89.5 215.5zM190 281q0 -110 71.5 -167t193.5 -57q143 0 247.5 71t139.5 167v262h-31q-106 -5 -184.5 -13t-152 -21.5t-123.5 -33.5t-87.5 -49t-55.5 -68.5t-18 -90.5zM335.5 1296q-3.5 8 4.5 17l172 209 q12 12 25 12h16q13 0 25 -12l172 -209q8 -9 4 -17t-17 -8h-26q-15 0 -27 12l-135 187h-8l-135 -187q-9 -12 -25 -12h-29q-13 0 -16.5 8z" />
<glyph unicode="&#xe3;" d="M115 276q0 77 31 133.5t85.5 93.5t144.5 61.5t191 37t242 19.5l33 2v114q0 122 -70.5 197.5t-212.5 75.5q-115 1 -195 -51t-116 -144q-6 -16 -25 -16h-30q-11 0 -16.5 4.5t-2.5 13.5q37 117 137.5 189.5t253.5 72.5q170 0 260 -92t90 -258l5 -709q0 -20 -21 -20h-37 q-20 0 -20 20v158l-11 4q-59 -90 -159.5 -142t-229.5 -52q-148 0 -237.5 72.5t-89.5 215.5zM190 281q0 -110 71.5 -167t193.5 -57q143 0 247.5 71t139.5 167v262h-31q-106 -5 -184.5 -13t-152 -21.5t-123.5 -33.5t-87.5 -49t-55.5 -68.5t-18 -90.5zM324 1352q5 61 34 99 t84 38q36 0 67.5 -21t51.5 -45.5t47.5 -45.5t55.5 -21q58 0 61 84q0 20 20 20h11q20 0 20 -20q-11 -137 -112 -137q-37 0 -69 21t-51.5 45.5t-46.5 45.5t-55 21q-60 0 -67 -84q0 -21 -21 -21h-10q-20 0 -20 21z" />
<glyph unicode="&#xe4;" d="M115 276q0 77 31 133.5t85.5 93.5t144.5 61.5t191 37t242 19.5l33 2v114q0 122 -70.5 197.5t-212.5 75.5q-115 1 -195 -51t-116 -144q-6 -16 -25 -16h-30q-11 0 -16.5 4.5t-2.5 13.5q37 117 137.5 189.5t253.5 72.5q170 0 260 -92t90 -258l5 -709q0 -20 -21 -20h-37 q-20 0 -20 20v158l-11 4q-59 -90 -159.5 -142t-229.5 -52q-148 0 -237.5 72.5t-89.5 215.5zM190 281q0 -110 71.5 -167t193.5 -57q143 0 247.5 71t139.5 167v262h-31q-106 -5 -184.5 -13t-152 -21.5t-123.5 -33.5t-87.5 -49t-55.5 -68.5t-18 -90.5zM424 1376v107q0 20 20 20 h19q20 0 20 -20v-107q0 -20 -20 -20h-19q-20 0 -20 20zM670 1376v107q0 20 20 20h19q20 0 20 -20v-107q0 -20 -20 -20h-19q-20 0 -20 20z" />
<glyph unicode="&#xe5;" d="M115 276q0 77 31 133.5t85.5 93.5t144.5 61.5t191 37t242 19.5l33 2v114q0 122 -70.5 197.5t-212.5 75.5q-115 1 -195 -51t-116 -144q-6 -16 -25 -16h-30q-11 0 -16.5 4.5t-2.5 13.5q37 117 137.5 189.5t253.5 72.5q170 0 260 -92t90 -258l5 -709q0 -20 -21 -20h-37 q-20 0 -20 20v158l-11 4q-59 -90 -159.5 -142t-229.5 -52q-148 0 -237.5 72.5t-89.5 215.5zM190 281q0 -110 71.5 -167t193.5 -57q143 0 247.5 71t139.5 167v262h-31q-106 -5 -184.5 -13t-152 -21.5t-123.5 -33.5t-87.5 -49t-55.5 -68.5t-18 -90.5zM395 1403 q0 66 44.5 107.5t107.5 41.5t106 -41.5t43 -107.5q0 -68 -43 -110t-106 -42t-107.5 42.5t-44.5 109.5zM442 1403q0 -46 30.5 -75.5t74.5 -29.5t74 29.5t30 75.5t-30 75t-74 29t-74.5 -29t-30.5 -75z" />
<glyph unicode="&#xe6;" horiz-adv-x="1867" d="M115 276q0 77 31 133.5t85.5 93.5t144.5 61.5t191 37t242 19.5l33 2v96q0 137 -70 218t-213 81q-115 1 -195 -51t-116 -144q-6 -16 -25 -16h-30q-25 0 -19 22q41 116 140.5 187t250.5 71q144 0 230.5 -68.5t111.5 -201.5q60 120 167.5 187t242.5 67q133 0 233 -65.5 t151.5 -177.5t51.5 -253q0 -20 -20 -20h-815q-6 -137 36 -248.5t137 -181.5t228 -70q229 0 332 191q8 14 24 14h35q12 0 16 -7t-2 -17q-60 -121 -163.5 -185.5t-245.5 -64.5q-159 0 -273.5 84t-164.5 231h-5q-50 -149 -162 -227t-268 -78q-148 0 -237.5 70.5t-89.5 209.5z M190 281q0 -105 72 -160t193 -55q78 0 146.5 26.5t123 78t86 135.5t31.5 190v61h-31q-106 -5 -184.5 -13t-152 -21.5t-123.5 -33.5t-87.5 -49t-55.5 -68.5t-18 -90.5zM924 621h753q-9 166 -107 272t-257 106q-156 0 -261.5 -103t-127.5 -275z" />
<glyph unicode="&#xe7;" horiz-adv-x="1050" d="M115 522q0 246 126 398.5t337 152.5q148 0 251.5 -71t155.5 -193q3 -11 -1.5 -18t-14.5 -7h-37q-17 0 -23 17q-44 96 -128 149.5t-203 53.5q-124 0 -213.5 -65t-132 -171.5t-42.5 -243.5q0 -99 25 -183.5t73 -148.5t123.5 -100.5t170.5 -36.5q117 0 199.5 51t125.5 140 q5 16 23 16h37q26 0 16 -24q-52 -113 -152.5 -181t-244.5 -71l-39 -125q88 -10 142 -52.5t54 -119.5q0 -74 -51 -123t-143 -49q-74 0 -141 34q-18 7 -11 27l2 6q9 19 27 10q59 -26 125 -26q64 0 100.5 32t36.5 85q0 58 -47 93.5t-137 39.5q-25 0 -19 22l43 148 q-190 17 -301.5 163t-111.5 371z" />
<glyph unicode="&#xe8;" horiz-adv-x="1140" d="M115 522q0 246 133.5 397.5t341.5 151.5q198 0 317 -140.5t119 -355.5q0 -20 -20 -20h-816q-5 -102 19 -191.5t73.5 -158.5t129 -109.5t180.5 -40.5q229 0 332 191q8 14 24 14h35q12 0 16 -7t-2 -17q-60 -121 -163.5 -185.5t-245.5 -64.5q-215 0 -344 149t-129 387z M197 621h753q-9 166 -107 272t-257 106q-156 0 -261.5 -103t-127.5 -275zM370.5 1534.5q3.5 7.5 16.5 7.5h31q15 0 24 -12l158 -217q7 -11 3.5 -18t-15.5 -7h-4q-13 0 -25 12l-184 218q-8 9 -4.5 16.5z" />
<glyph unicode="&#xe9;" horiz-adv-x="1140" d="M115 522q0 246 133.5 397.5t341.5 151.5q198 0 317 -140.5t119 -355.5q0 -20 -20 -20h-816q-5 -102 19 -191.5t73.5 -158.5t129 -109.5t180.5 -40.5q229 0 332 191q8 14 24 14h35q12 0 16 -7t-2 -17q-60 -121 -163.5 -185.5t-245.5 -64.5q-215 0 -344 149t-129 387z M197 621h753q-9 166 -107 272t-257 106q-156 0 -261.5 -103t-127.5 -275zM562 1295q-4 7 3 18l158 217q9 12 25 12h30q13 0 17 -7.5t-4 -16.5l-185 -218q-12 -12 -24 -12h-4q-12 0 -16 7z" />
<glyph unicode="&#xea;" horiz-adv-x="1140" d="M115 522q0 246 133.5 397.5t341.5 151.5q198 0 317 -140.5t119 -355.5q0 -20 -20 -20h-816q-5 -102 19 -191.5t73.5 -158.5t129 -109.5t180.5 -40.5q229 0 332 191q8 14 24 14h35q12 0 16 -7t-2 -17q-60 -121 -163.5 -185.5t-245.5 -64.5q-215 0 -344 149t-129 387z M197 621h753q-9 166 -107 272t-257 106q-156 0 -261.5 -103t-127.5 -275zM370.5 1296q-3.5 8 4.5 17l172 209q12 12 24 12h17q12 0 24 -12l172 -209q8 -9 4.5 -17t-16.5 -8h-27q-14 0 -26 12l-135 187h-9l-135 -187q-9 -12 -24 -12h-29q-13 0 -16.5 8z" />
<glyph unicode="&#xeb;" horiz-adv-x="1140" d="M115 522q0 246 133.5 397.5t341.5 151.5q198 0 317 -140.5t119 -355.5q0 -20 -20 -20h-816q-5 -102 19 -191.5t73.5 -158.5t129 -109.5t180.5 -40.5q229 0 332 191q8 14 24 14h35q12 0 16 -7t-2 -17q-60 -121 -163.5 -185.5t-245.5 -64.5q-215 0 -344 149t-129 387z M197 621h753q-9 166 -107 272t-257 106q-156 0 -261.5 -103t-127.5 -275zM457 1376v107q0 20 20 20h19q20 0 20 -20v-107q0 -20 -20 -20h-19q-20 0 -20 20zM702 1376v107q0 20 21 20h18q21 0 21 -20v-107q0 -20 -21 -20h-18q-21 0 -21 20z" />
<glyph unicode="&#xec;" horiz-adv-x="468" d="M26.5 1534.5q3.5 7.5 16.5 7.5h31q15 0 24 -12l158 -217q7 -11 3.5 -18t-15.5 -7h-4q-13 0 -25 12l-184 218q-8 9 -4.5 16.5zM197 20v1022q0 21 20 21h35q20 0 20 -21l2 -1022q0 -20 -20 -20h-37q-20 0 -20 20z" />
<glyph unicode="&#xed;" horiz-adv-x="468" d="M197 20v1022q0 21 20 21h35q20 0 20 -21l2 -1022q0 -20 -20 -20h-37q-20 0 -20 20zM217.5 1295q-3.5 7 3.5 18l158 217q9 12 24 12h31q13 0 16.5 -7.5t-4.5 -16.5l-184 -218q-12 -12 -24 -12h-5q-12 0 -15.5 7z" />
<glyph unicode="&#xee;" horiz-adv-x="468" d="M26.5 1296q-3.5 8 4.5 17l172 209q12 12 24 12h17q12 0 24 -12l172 -209q8 -9 4.5 -17t-16.5 -8h-27q-14 0 -26 12l-135 187h-9l-135 -187q-9 -12 -24 -12h-29q-13 0 -16.5 8zM197 20v1022q0 21 20 21h35q20 0 20 -21l2 -1022q0 -20 -20 -20h-37q-20 0 -20 20z" />
<glyph unicode="&#xef;" horiz-adv-x="468" d="M115 1376v107q0 20 20 20h19q20 0 20 -20v-107q0 -20 -20 -20h-19q-20 0 -20 20zM197 20v1022q0 21 20 21h35q20 0 20 -21l2 -1022q0 -20 -20 -20h-37q-20 0 -20 20zM360 1376v107q0 20 21 20h18q21 0 21 -20v-107q0 -20 -21 -20h-18q-21 0 -21 20z" />
<glyph unicode="&#xf1;" horiz-adv-x="1132" d="M176 20v1022q0 21 21 21h34q21 0 21 -21v-159l12 -2q163 198 377 198q149 0 232 -89t83 -261v-709q0 -20 -20 -20h-33q-20 0 -20 20v693q0 146 -68.5 219.5t-191.5 73.5q-228 0 -371 -254l2 -732q0 -20 -21 -20h-36q-21 0 -21 20zM344 1352q5 60 34.5 98.5t84.5 38.5 q29 0 55 -13.5t45 -33t37 -39.5t39.5 -33.5t44.5 -13.5q58 0 61 84q0 20 21 20h10q21 0 21 -20q-11 -137 -113 -137q-37 0 -69 21t-51 45.5t-46 45.5t-55 21q-61 0 -68 -84q0 -21 -20 -21h-10q-9 0 -15 6t-6 15z" />
<glyph unicode="&#xf2;" horiz-adv-x="1175" d="M115 530q0 243 134.5 396t344.5 153q208 0 338.5 -148t130.5 -388q0 -243 -136 -400t-345 -157q-205 0 -336 153t-131 391zM190 535q0 -211 111.5 -345.5t284.5 -134.5q175 0 287 136t112 348q0 211 -109.5 340t-285.5 129t-288 -130.5t-112 -342.5zM378.5 1534.5 q3.5 7.5 16.5 7.5h31q16 0 25 -12l157 -217q7 -11 3.5 -18t-15.5 -7h-4q-13 0 -25 12l-184 218q-8 9 -4.5 16.5z" />
<glyph unicode="&#xf3;" horiz-adv-x="1175" d="M115 530q0 243 134.5 396t344.5 153q208 0 338.5 -148t130.5 -388q0 -243 -136 -400t-345 -157q-205 0 -336 153t-131 391zM190 535q0 -211 111.5 -345.5t284.5 -134.5q175 0 287 136t112 348q0 211 -109.5 340t-285.5 129t-288 -130.5t-112 -342.5zM570 1295q-4 7 3 18 l158 217q9 12 25 12h30q13 0 17 -7.5t-4 -16.5l-185 -218q-12 -12 -24 -12h-4q-12 0 -16 7z" />
<glyph unicode="&#xf4;" horiz-adv-x="1175" d="M115 530q0 243 134.5 396t344.5 153q208 0 338.5 -148t130.5 -388q0 -243 -136 -400t-345 -157q-205 0 -336 153t-131 391zM190 535q0 -211 111.5 -345.5t284.5 -134.5q175 0 287 136t112 348q0 211 -109.5 340t-285.5 129t-288 -130.5t-112 -342.5zM378.5 1296 q-3.5 8 4.5 17l172 209q12 12 25 12h16q13 0 25 -12l172 -209q8 -9 4 -17t-17 -8h-26q-15 0 -27 12l-135 187h-8l-135 -187q-9 -12 -25 -12h-29q-13 0 -16.5 8z" />
<glyph unicode="&#xf5;" horiz-adv-x="1175" d="M115 530q0 243 134.5 396t344.5 153q208 0 338.5 -148t130.5 -388q0 -243 -136 -400t-345 -157q-205 0 -336 153t-131 391zM190 535q0 -211 111.5 -345.5t284.5 -134.5q175 0 287 136t112 348q0 211 -109.5 340t-285.5 129t-288 -130.5t-112 -342.5zM365 1352q5 61 34 99 t84 38q36 0 67.5 -21t51.5 -45.5t47.5 -45.5t55.5 -21q58 0 61 84q0 20 20 20h11q20 0 20 -20q-11 -137 -112 -137q-37 0 -69 21t-51.5 45.5t-46.5 45.5t-55 21q-60 0 -67 -84q0 -21 -21 -21h-10q-20 0 -20 21z" />
<glyph unicode="&#xf6;" horiz-adv-x="1175" d="M115 530q0 243 134.5 396t344.5 153q208 0 338.5 -148t130.5 -388q0 -243 -136 -400t-345 -157q-205 0 -336 153t-131 391zM190 535q0 -211 111.5 -345.5t284.5 -134.5q175 0 287 136t112 348q0 211 -109.5 340t-285.5 129t-288 -130.5t-112 -342.5zM467 1376v107 q0 20 20 20h19q20 0 20 -20v-107q0 -20 -20 -20h-19q-20 0 -20 20zM713 1376v107q0 20 20 20h19q20 0 20 -20v-107q0 -20 -20 -20h-19q-20 0 -20 20z" />
<glyph unicode="&#xf7;" horiz-adv-x="1402" d="M246 539v24q0 21 20 21h869q20 0 20 -21v-24q0 -21 -20 -21h-869q-20 0 -20 21zM686 147v121q0 21 21 21h47q20 0 20 -21v-121q0 -20 -20 -20h-47q-21 0 -21 20zM686 817v119q0 20 21 20h47q20 0 20 -20v-119q0 -20 -20 -20h-47q-21 0 -21 20z" />
<glyph unicode="&#xf8;" horiz-adv-x="1214" d="M130.5 8q-3.5 8 4.5 17l113 135q-113 151 -113 370q0 243 134.5 396t344.5 153q183 0 306 -114l71 86q12 12 25 12h35q13 0 16.5 -8t-4.5 -17l-100 -118q120 -145 120 -377q0 -243 -135 -400t-346 -157q-184 0 -311 127l-84 -101q-12 -12 -25 -12h-35q-13 0 -16.5 8z M211 535q0 -183 88 -314l571 686q-109 101 -260 101q-176 0 -287.5 -130.5t-111.5 -342.5zM340 170q112 -115 266 -115q177 0 289.5 136t112.5 348q0 190 -95 319z" />
<glyph unicode="&#xf9;" horiz-adv-x="1132" d="M176 338v704q0 9 6 15t15 6h34q21 0 21 -21v-686q0 -149 68 -223t192 -74q229 0 369 252v731q0 21 20 21h35q20 0 20 -21l2 -1022q0 -20 -20 -20h-39q-20 0 -20 20l2 160l-11 4q-164 -198 -378 -198q-147 0 -232 90t-84 262zM356 1534.5q4 7.5 17 7.5h30q16 0 25 -12 l158 -217q7 -11 3 -18t-16 -7h-4q-12 0 -24 12l-185 218q-8 9 -4 16.5z" />
<glyph unicode="&#xfa;" horiz-adv-x="1132" d="M176 338v704q0 9 6 15t15 6h34q21 0 21 -21v-686q0 -149 68 -223t192 -74q229 0 369 252v731q0 21 20 21h35q20 0 20 -21l2 -1022q0 -20 -20 -20h-39q-20 0 -20 20l2 160l-11 4q-164 -198 -378 -198q-147 0 -232 90t-84 262zM549.5 1295q-3.5 7 3.5 18l158 217 q9 12 24 12h31q13 0 16.5 -7.5t-4.5 -16.5l-184 -218q-12 -12 -25 -12h-4q-12 0 -15.5 7z" />
<glyph unicode="&#xfb;" horiz-adv-x="1132" d="M176 338v704q0 9 6 15t15 6h34q21 0 21 -21v-686q0 -149 68 -223t192 -74q229 0 369 252v731q0 21 20 21h35q20 0 20 -21l2 -1022q0 -20 -20 -20h-39q-20 0 -20 20l2 160l-11 4q-164 -198 -378 -198q-147 0 -232 90t-84 262zM356 1296q-4 8 4 17l172 209q12 12 25 12h16 q13 0 25 -12l172 -209q8 -9 4.5 -17t-16.5 -8h-27q-14 0 -26 12l-136 187h-8l-135 -187q-9 -12 -25 -12h-28q-13 0 -17 8z" />
<glyph unicode="&#xfc;" horiz-adv-x="1132" d="M176 338v704q0 9 6 15t15 6h34q21 0 21 -21v-686q0 -149 68 -223t192 -74q229 0 369 252v731q0 21 20 21h35q20 0 20 -21l2 -1022q0 -20 -20 -20h-39q-20 0 -20 20l2 160l-11 4q-164 -198 -378 -198q-147 0 -232 90t-84 262zM444 1376v107q0 20 21 20h18q21 0 21 -20 v-107q0 -20 -21 -20h-18q-21 0 -21 20zM690 1376v107q0 20 21 20h18q21 0 21 -20v-107q0 -20 -21 -20h-18q-21 0 -21 20z" />
<glyph unicode="&#xfd;" horiz-adv-x="968" d="M57 1040q-3 9 2 16t15 7h32q19 0 25 -16l344 -961h10l355 961q6 16 22 16h35q10 0 14.5 -7t1.5 -16l-534 -1474q-7 -17 -25 -17h-43q-10 0 -14.5 7t-1.5 18l147 395zM469.5 1295q-3.5 7 3.5 18l158 217q9 12 24 12h31q13 0 16.5 -7.5t-4.5 -16.5l-184 -218 q-12 -12 -25 -12h-4q-12 0 -15.5 7z" />
<glyph unicode="&#xff;" horiz-adv-x="968" d="M57 1040q-3 9 2 16t15 7h32q19 0 25 -16l344 -961h10l355 961q6 16 22 16h35q10 0 14.5 -7t1.5 -16l-534 -1474q-7 -17 -25 -17h-43q-10 0 -14.5 7t-1.5 18l147 395zM365 1376v107q0 20 20 20h18q21 0 21 -20v-107q0 -20 -21 -20h-18q-20 0 -20 20zM610 1376v107 q0 20 21 20h18q21 0 21 -20v-107q0 -20 -21 -20h-18q-21 0 -21 20z" />
<glyph unicode="&#x152;" horiz-adv-x="1796" d="M100 737q0 214 86.5 381.5t242.5 259.5t355 92h119v3l764 2q9 0 15 -6t6 -15v-33q0 -20 -21 -20l-688 2l2 -590h555q20 0 20 -20v-31q0 -21 -20 -21h-555l2 -671l692 2q9 0 15 -6t6 -15v-33q0 -20 -21 -20l-907 2q-197 0 -350 94.5t-235.5 262t-82.5 380.5zM176 739 q0 -297 165 -482t431 -185h127l4 1329h-119q-271 0 -439.5 -182t-168.5 -480z" />
<glyph unicode="&#x153;" horiz-adv-x="2013" d="M115 530q0 243 134.5 396t344.5 153q154 0 267.5 -83t166.5 -230q54 143 168.5 224t263.5 81q199 0 317.5 -140t120.5 -356q0 -20 -20 -20l-815 -2v-10v-33q2 -127 46.5 -228t135.5 -164t217 -63q231 0 334 191q8 14 25 14h34q12 0 16.5 -7t-1.5 -17 q-60 -121 -164 -185.5t-248 -64.5q-157 0 -271.5 84t-166.5 231q-56 -146 -171.5 -230.5t-266.5 -84.5q-205 0 -336 153t-131 391zM190 535q0 -211 111.5 -345.5t284.5 -134.5q175 0 287 136t112 348q0 211 -109.5 340t-285.5 129t-288 -130.5t-112 -342.5zM1069 621h754 q-9 166 -108 272t-259 106q-155 0 -260 -103t-127 -275z" />
<glyph unicode="&#x178;" horiz-adv-x="1175" d="M50 1463q4 7 16 7h36q17 0 25 -14l459 -700h8l457 700q8 14 24 14h35q12 0 15.5 -7t-3.5 -17l-495 -772l4 -654q0 -20 -21 -20h-43q-20 0 -20 20l4 656l-498 770q-7 10 -3 17zM465 1788v106q0 21 20 21h19q20 0 20 -21v-106q0 -21 -20 -21h-19q-20 0 -20 21zM711 1788 v106q0 21 20 21h19q20 0 20 -21v-106q0 -21 -20 -21h-19q-20 0 -20 21z" />
<glyph unicode="&#x2c6;" horiz-adv-x="876" d="M229 1296q-4 8 4 17l173 209q12 12 24 12h16q13 0 25 -12l172 -209q8 -9 4.5 -17t-16.5 -8h-27q-14 0 -26 12l-136 187h-8l-135 -187q-9 -12 -25 -12h-28q-13 0 -17 8z" />
<glyph unicode="&#x2dc;" horiz-adv-x="880" d="M213 1352q5 60 34.5 98.5t84.5 38.5q29 0 55 -13.5t45 -33t37 -39.5t39.5 -33.5t44.5 -13.5q58 0 61 84q0 20 21 20h10q21 0 21 -20q-11 -137 -113 -137q-37 0 -69 21t-51 45.5t-46 45.5t-55 21q-61 0 -68 -84q0 -21 -20 -21h-11q-20 0 -20 21z" />
<glyph unicode="&#x2000;" horiz-adv-x="981" />
<glyph unicode="&#x2001;" horiz-adv-x="1962" />
<glyph unicode="&#x2002;" horiz-adv-x="981" />
<glyph unicode="&#x2003;" horiz-adv-x="1962" />
<glyph unicode="&#x2004;" horiz-adv-x="654" />
<glyph unicode="&#x2005;" horiz-adv-x="490" />
<glyph unicode="&#x2006;" horiz-adv-x="327" />
<glyph unicode="&#x2007;" horiz-adv-x="327" />
<glyph unicode="&#x2008;" horiz-adv-x="245" />
<glyph unicode="&#x2009;" horiz-adv-x="392" />
<glyph unicode="&#x200a;" horiz-adv-x="109" />
<glyph unicode="&#x2010;" horiz-adv-x="1097" d="M246 573v27q0 21 20 21h565q21 0 21 -21v-27q0 -20 -21 -20h-565q-20 0 -20 20z" />
<glyph unicode="&#x2011;" horiz-adv-x="1097" d="M246 573v27q0 21 20 21h565q21 0 21 -21v-27q0 -20 -21 -20h-565q-20 0 -20 20z" />
<glyph unicode="&#x2012;" horiz-adv-x="1097" d="M246 573v27q0 21 20 21h565q21 0 21 -21v-27q0 -20 -21 -20h-565q-20 0 -20 20z" />
<glyph unicode="&#x2013;" horiz-adv-x="1374" d="M231 559v27q0 20 21 20h870q21 0 21 -20v-27q0 -20 -21 -20h-870q-21 0 -21 20z" />
<glyph unicode="&#x2014;" horiz-adv-x="1677" d="M231 557v27q0 20 21 20h1173q21 0 21 -20v-27q0 -20 -21 -20h-1173q-21 0 -21 20z" />
<glyph unicode="&#x2018;" horiz-adv-x="403" d="M150 1133v100q0 88 19 144.5t60 103.5q13 16 29 6q12 -9 0 -25q-34 -53 -41 -100.5t16 -81.5q9 -18 9 -25v-122q0 -21 -21 -21h-51q-20 0 -20 21z" />
<glyph unicode="&#x2019;" horiz-adv-x="368" d="M145 1102q-12 6 0 24q34 52 41 99.5t-16 81.5q-10 13 -10 24v123q0 21 20 21h53q21 0 21 -21v-100q0 -86 -20 -142t-60 -106q-12 -14 -29 -4z" />
<glyph unicode="&#x201a;" horiz-adv-x="614" d="M227 -190q34 52 41 99t-16 81q-10 13 -10 24v123q0 21 20 21h53q21 0 21 -21v-100q0 -87 -20 -143.5t-60 -104.5q-13 -17 -29 -4q-13 6 0 25z" />
<glyph unicode="&#x201c;" horiz-adv-x="659" d="M150 1133v100q0 87 19.5 143.5t59.5 104.5q13 17 29 4q12 -6 0 -25q-34 -52 -41 -99t16 -81q11 -15 11 -25v-122q0 -21 -21 -21h-53q-20 0 -20 21zM406 1133v100q0 87 19.5 143.5t59.5 104.5q13 17 29 4q12 -6 0 -25q-34 -52 -41 -99t16 -81q11 -15 11 -25v-122 q0 -21 -21 -21h-53q-20 0 -20 21z" />
<glyph unicode="&#x201d;" horiz-adv-x="626" d="M145 1098q-12 6 0 24q74 112 27 181q-10 13 -10 24v123q0 20 20 20h51q21 0 21 -20v-98q0 -89 -19.5 -145t-60.5 -105q-13 -17 -29 -4zM401 1098q-12 6 0 24q74 112 27 181q-10 13 -10 24v123q0 20 20 20h51q21 0 21 -20v-98q0 -89 -19.5 -145t-60.5 -105q-13 -17 -29 -4 z" />
<glyph unicode="&#x201e;" horiz-adv-x="614" d="M227 -190q34 52 41 99t-16 81q-10 13 -10 24v123q0 21 20 21h53q21 0 21 -21v-100q0 -87 -20 -143.5t-60 -104.5q-13 -17 -29 -4q-13 6 0 25z" />
<glyph unicode="&#x2022;" horiz-adv-x="966" d="M295 594q0 76 55.5 132t132.5 56q78 0 133.5 -55.5t55.5 -132.5q0 -78 -55.5 -133t-133.5 -55q-77 0 -132.5 55t-55.5 133z" />
<glyph unicode="&#x2026;" horiz-adv-x="1523" d="M221 55v123q0 9 6 15t15 6h47q20 0 20 -21v-123q0 -20 -20 -20h-47q-21 0 -21 20zM756 55v123q0 21 20 21h49q21 0 21 -21v-123q0 -20 -21 -20h-49q-20 0 -20 20zM1290 55v123q0 9 6 15t15 6h49q20 0 20 -21v-123q0 -20 -20 -20h-49q-21 0 -21 20z" />
<glyph unicode="&#x202f;" horiz-adv-x="392" />
<glyph unicode="&#x2039;" horiz-adv-x="774" d="M182 487v41q0 16 15 25l370 244q11 7 18 3t7 -16v-30q0 -17 -14 -25l-338 -221l338 -221q14 -8 14 -25v-29q0 -12 -7 -15.5t-18 3.5l-370 242q-15 9 -15 24z" />
<glyph unicode="&#x203a;" horiz-adv-x="774" d="M182 233v31q0 16 15 25l338 221l-338 221q-15 9 -15 25v28q0 12 7 16t18 -3l371 -242q14 -8 14 -25v-41q0 -16 -14 -24l-371 -244q-11 -7 -18 -3.5t-7 15.5z" />
<glyph unicode="&#x205f;" horiz-adv-x="490" />
<glyph unicode="&#x20ac;" horiz-adv-x="1310" d="M100 616v23q0 20 21 20l127 3q-2 25 -2 73q0 35 4 101l-129 -2q-21 0 -21 20v23q0 20 21 20l137 2q44 268 221 429t434 161q116 0 222 -35q17 -6 14 -24l-8 -31q-6 -21 -27 -15q-109 33 -205 33q-224 0 -379 -139.5t-196 -378.5l491 6q21 0 21 -20v-23q0 -20 -21 -20 l-499 -6q-4 -62 -4 -97q0 -50 2 -77l501 6q9 0 15 -6t6 -15v-22q0 -21 -21 -21l-493 -6q35 -246 189.5 -393.5t383.5 -147.5q113 0 211 35q20 7 27 -14l6 -25q3 -18 -14 -26q-108 -43 -234 -43q-261 0 -435.5 168.5t-211.5 445.5l-133 -2q-21 0 -21 20z" />
<glyph unicode="&#x2122;" horiz-adv-x="1288" d="M164 1444v6q0 20 20 20h353q20 0 20 -20v-6q0 -21 -20 -21h-150l2 -450q0 -21 -20 -21h-15q-20 0 -20 21v450h-150q-20 0 -20 21zM621 973l12 477q0 20 20 20h35q19 0 25 -16l155 -424h6l160 424q6 16 23 16h33q20 0 20 -20l14 -477q0 -21 -20 -21h-10q-21 0 -21 21 l-10 418h-2l-156 -422q-7 -17 -24 -17h-19q-15 0 -22 17l-158 422h-2l-8 -418q0 -21 -21 -21h-10q-20 0 -20 21z" />
<glyph unicode="&#x25fc;" horiz-adv-x="1064" d="M0 0v1065h1065v-1065h-1065z" />
</font>
</defs>
</svg>
