<?xml version="1.0" standalone="no"?>
<!DOCTYPE svg PUBLIC "-//W3C//DTD SVG 1.1//EN" "http://www.w3.org/Graphics/SVG/1.1/DTD/svg11.dtd" >
<svg xmlns="http://www.w3.org/2000/svg">
<metadata></metadata>
<defs>
<font id="gravityregular" horiz-adv-x="1359" >
<font-face units-per-em="2048" ascent="1638" descent="-410" />
<missing-glyph horiz-adv-x="423" />
<glyph horiz-adv-x="0" />
<glyph horiz-adv-x="682" />
<glyph unicode=" "  horiz-adv-x="423" />
<glyph unicode="&#x09;" horiz-adv-x="423" />
<glyph unicode="&#xa0;" horiz-adv-x="423" />
<glyph unicode="!" horiz-adv-x="684" d="M238 41v141q0 41 41 41h127q40 0 40 -41v-141q0 -41 -40 -41h-127q-41 0 -41 41zM256 496l6 962q0 41 41 41h92q41 0 41 -41l6 -962q0 -41 -41 -41h-104q-41 0 -41 41z" />
<glyph unicode="&#x22;" horiz-adv-x="931" d="M233 1053l56 424q3 39 43 39h74q44 0 38 -43l-67 -426q-6 -37 -45 -37h-62q-43 0 -37 43zM569 1053l54 424q3 39 43 39h75q45 0 39 -46l-69 -423q-6 -37 -45 -37h-60q-43 0 -37 43z" />
<glyph unicode="#" horiz-adv-x="1538" d="M113 553l12 59q9 37 45 37h252l59 289h-245q-43 0 -37 45l12 59q9 37 45 37h256l78 381q9 37 45 37h65q43 0 37 -45l-78 -373h332l80 381q9 37 45 37h66q43 0 37 -45l-78 -373h250q42 0 36 -45l-12 -59q-9 -37 -45 -37h-258l-59 -289h252q42 0 36 -45l-12 -59 q-9 -37 -45 -37h-260l-96 -471q-9 -37 -45 -37h-72q-44 0 -35 45l96 463h-329l-97 -471q-9 -37 -45 -37h-69q-44 0 -35 45l96 463h-246q-43 0 -34 45zM571 649h330l62 289h-332z" />
<glyph unicode="$" horiz-adv-x="1286" d="M106 393q-6 21 4.5 33t32.5 12h88q35 0 50 -30q108 -215 409 -215q155 0 239.5 52.5t84.5 149.5q0 92 -82.5 157t-269.5 124l-80 24q-211 64 -315.5 148.5t-108.5 220.5q-4 149 111.5 244.5t301.5 113.5l-6 232q0 41 41 41h74q41 0 41 -41l-6 -232q163 -14 274.5 -97.5 t161.5 -201.5q7 -22 -2.5 -34.5t-32.5 -12.5h-84q-32 0 -49 29q-48 79 -136.5 127.5t-215.5 48.5q-143 0 -220 -52.5t-77 -141.5q0 -87 76.5 -138.5t263.5 -105.5l78 -23q231 -67 334.5 -167t103.5 -240q0 -167 -128 -265t-347 -106l6 -229q0 -41 -41 -41h-74q-41 0 -41 41 l6 235q-101 13 -184 47.5t-138 83.5t-90 101t-53 108z" />
<glyph unicode="%" horiz-adv-x="1607" d="M94 1294q0 119 83.5 202t203.5 83q119 0 202 -83.5t83 -201.5q0 -119 -83.5 -202.5t-201.5 -83.5q-120 0 -203.5 83.5t-83.5 202.5zM209.5 14.5q-7.5 14.5 7.5 34.5l977 1419q18 27 49 27h80q25 0 32.5 -14.5t-7.5 -34.5l-975 -1419q-18 -27 -49 -27h-82 q-25 0 -32.5 14.5zM229 1294q0 -62 44.5 -106.5t107.5 -44.5q61 0 105 44.5t44 106.5q0 63 -43.5 107.5t-105.5 44.5q-63 0 -107.5 -44.5t-44.5 -107.5zM942 317q0 119 83 202t202 83q118 0 201 -83t83 -202t-82.5 -201.5t-201.5 -82.5t-202 83t-83 201zM1075 317 q0 -62 44.5 -106.5t107.5 -44.5q61 0 106 45t45 106q0 63 -44.5 107.5t-106.5 44.5q-63 0 -107.5 -44.5t-44.5 -107.5z" />
<glyph unicode="&#x26;" horiz-adv-x="1503" d="M141 354q0 134 85.5 238.5t256.5 206.5q-90 106 -132 190t-42 178q0 156 104 257.5t279 101.5q172 0 270.5 -98.5t98.5 -247.5q0 -124 -75.5 -224t-244.5 -206l328 -367q25 73 25 162q0 49 -4 80q-6 43 36 43h88q40 0 46 -37q8 -44 8 -101q0 -162 -74 -288l170 -191 q19 -20 12 -35.5t-35 -15.5h-131q-31 0 -51 23l-74 86q-174 -144 -434 -144q-228 0 -369 106t-141 283zM319 362q0 -106 92 -171.5t251 -65.5q201 0 315 108l-391 447q-140 -85 -203.5 -160.5t-63.5 -157.5zM479 1174q0 -66 41 -140t121 -168q126 82 187 151.5t61 156.5 q0 83 -52.5 140.5t-146.5 57.5q-96 0 -153.5 -58t-57.5 -140z" />
<glyph unicode="'" horiz-adv-x="598" d="M233 1053l56 424q3 39 43 39h74q44 0 38 -43l-67 -426q-6 -37 -45 -37h-62q-43 0 -37 43z" />
<glyph unicode="(" horiz-adv-x="876" d="M213 528q0 287 104 544t285 433q28 25 57 2l19 -12q32 -22 8 -57q-278 -372 -278 -910q0 -266 71.5 -497.5t206.5 -411.5q26 -33 -8 -57l-19 -13q-29 -20 -57 5q-181 176 -285 432.5t-104 541.5z" />
<glyph unicode=")" horiz-adv-x="876" d="M190 -381q279 373 279 909q0 267 -72 498t-207 412q-24 34 9 57l18 14q29 21 57 -4q182 -175 286 -433t104 -544q0 -287 -104 -543t-286 -431q-28 -25 -57 -5l-18 13q-35 24 -9 57z" />
<glyph unicode="*" horiz-adv-x="913" d="M166 1307l24 45q22 35 58 10l180 -131l10 194q3 40 43 37l47 -4q22 0 30.5 -12.5t2.5 -34.5l-37 -131l97 98q15 15 31 13.5t26 -19.5l24 -39q22 -36 -12 -57l-162 -102l203 -91q39 -19 17 -55l-25 -45q-21 -34 -57 -12l-179 131l-10 -193q-3 -42 -43 -39l-49 4 q-22 0 -30.5 13t-2.5 35l39 131l-96 -97q-15 -15 -31 -13.5t-26 20.5l-27 36q-23 37 12 58l162 104l-203 90q-39 19 -16 56z" />
<glyph unicode="+" horiz-adv-x="1517" d="M246 508v70q0 40 41 40h393v396q0 41 41 41h76q41 0 41 -41v-396h393q41 0 41 -40v-70q0 -41 -41 -41h-393v-397q0 -41 -41 -41h-76q-41 0 -41 41v397h-393q-41 0 -41 41z" />
<glyph unicode="," horiz-adv-x="692" d="M246 31v143q0 41 41 41h127q41 0 41 -41v-119q0 -132 -29.5 -215.5t-97.5 -152.5q-25 -25 -56 -9q-33 17 -8 56q52 75 56 139.5t-48 108.5q-26 20 -26 49z" />
<glyph unicode="-" horiz-adv-x="1206" d="M246 541v75q0 41 41 41h633q41 0 41 -41v-75q0 -41 -41 -41h-633q-41 0 -41 41z" />
<glyph unicode="." horiz-adv-x="675" d="M238 43v131q0 41 41 41h118q41 0 41 -41v-131q0 -41 -41 -41h-118q-41 0 -41 41z" />
<glyph unicode="/" horiz-adv-x="1019" d="M124.5 13.5q-8.5 13.5 0.5 35.5l682 1417q15 31 47 31h102q23 0 31.5 -13.5t-0.5 -35.5l-680 -1417q-15 -31 -47 -31h-104q-23 0 -31.5 13.5z" />
<glyph unicode="0" horiz-adv-x="1253" d="M94 743q0 356 147 561t394 205q241 0 382.5 -198t141.5 -547q0 -359 -147.5 -570.5t-393.5 -211.5q-239 0 -381.5 205t-142.5 556zM274 766q0 -299 96.5 -462t264.5 -163q164 0 255 156t91 440q0 296 -96.5 454.5t-263.5 158.5q-165 0 -256 -151.5t-91 -432.5z" />
<glyph unicode="1" horiz-adv-x="944" d="M123 1090q-28 31 4 57l385 326q24 18 51 18h191q41 0 41 -41l8 -1409q0 -41 -41 -41h-113q-41 0 -41 41l8 1302h-14l-369 -317q-31 -28 -57 4z" />
<glyph unicode="2" horiz-adv-x="1226" d="M160 1159q46 154 172.5 255.5t316.5 101.5q137 0 237.5 -57t149.5 -147.5t49 -201.5q0 -67 -21.5 -132.5t-68 -138t-96 -133.5t-129.5 -151l-344 -381v-8h666q41 0 41 -41v-84q0 -41 -41 -41h-883q-41 0 -41 41v74q0 31 20 53l459 489q137 145 202.5 249t65.5 200 q0 111 -74 180.5t-202 69.5q-108 0 -188.5 -54t-120.5 -155q-14 -33 -47 -33h-88q-22 0 -31.5 12.5t-3.5 32.5z" />
<glyph unicode="3" horiz-adv-x="1206" d="M100 340q-4 20 6.5 31.5t32.5 11.5h101q33 0 45 -37q27 -98 114 -152.5t209 -54.5q153 0 241.5 79t88.5 216q0 275 -408 275h-55q-41 0 -41 41v69q0 41 41 41h55q187 0 277 66t90 180q0 111 -76 180.5t-205 69.5q-111 0 -192 -54t-119 -155q-14 -33 -47 -33h-88 q-22 0 -31.5 12.5t-3.5 32.5q21 72 62 134.5t101 113.5t144.5 80t182.5 29q104 0 189 -32.5t139.5 -87t84 -125.5t29.5 -149q0 -111 -60.5 -198t-179.5 -131q143 -45 214 -140t71 -227q0 -193 -130.5 -319.5t-365.5 -126.5q-211 0 -348 104t-168 256z" />
<glyph unicode="4" horiz-adv-x="1310" d="M94 383v78q0 49 19 80l657 919q13 18 23 24.5t28 6.5h107q41 0 41 -41l6 -952h201q41 0 41 -41v-74q0 -41 -41 -41h-201l2 -301q0 -41 -41 -41h-102q-41 0 -41 41l2 301h-660q-41 0 -41 41zM274 498h521l4 733h-11l-514 -727v-6z" />
<glyph unicode="5" horiz-adv-x="1210" d="M100 340q-4 20 6.5 31.5t32.5 11.5h99q36 0 45 -35q30 -98 115 -153.5t214 -55.5q158 0 244 83t86 239q0 155 -84.5 242.5t-241.5 87.5q-147 0 -264 -82q-28 -17 -51 -15l-92 4q-40 3 -37 43l66 711q3 39 43 39h733q41 0 41 -41v-84q0 -41 -41 -41h-625l-41 -448h14 q128 73 277 73q218 0 347.5 -138.5t129.5 -350.5q0 -135 -54.5 -242t-169 -173t-274.5 -66q-209 0 -348 105t-170 255z" />
<glyph unicode="6" horiz-adv-x="1259" d="M109 688q0 392 152 611t415 219q173 0 288 -92t154 -240q12 -45 -35 -45h-88q-34 0 -45 35q-34 86 -108 134t-172 48q-169 0 -268.5 -145t-116.5 -410h18q170 112 365 112q221 0 359 -132.5t138 -338.5q0 -107 -41 -196.5t-111 -149t-163.5 -92.5t-198.5 -33 q-89 0 -167.5 24t-148 78t-119 135.5t-78.5 203.5t-29 274zM283 633q5 -141 37.5 -241t86.5 -154.5t117 -78.5t140 -24q149 0 241 79.5t92 219.5q0 66 -22 123t-64.5 102t-112 71t-157.5 26q-202 0 -358 -123z" />
<glyph unicode="7" horiz-adv-x="1177" d="M94 1368v82q0 41 41 41h907q41 0 41 -41v-70q0 -27 -20 -63q-318 -581 -574 -1284q-11 -33 -47 -33h-127q-48 0 -32 47q273 689 600 1266v14h-748q-41 0 -41 41z" />
<glyph unicode="8" horiz-adv-x="1261" d="M109 403q0 142 73 242.5t183 147.5v8q-187 96 -187 313q0 179 125 295.5t328 116.5q201 0 326.5 -116.5t125.5 -291.5q0 -114 -52.5 -194t-143.5 -125v-6q121 -44 193.5 -146t72.5 -244q0 -199 -142.5 -318.5t-379.5 -119.5q-234 0 -378 119.5t-144 318.5zM287 412 q0 -130 92 -208.5t252 -78.5t252 78.5t92 208.5q0 133 -95 218t-249 85t-249 -85t-95 -218zM348 1110q0 -113 76.5 -187.5t206.5 -74.5q129 0 205.5 74.5t76.5 187.5q0 115 -78 188.5t-204 73.5q-128 0 -205.5 -73.5t-77.5 -188.5z" />
<glyph unicode="9" horiz-adv-x="1280" d="M135 1053q0 141 67.5 248t180.5 162t252 55q88 0 165 -23.5t146 -77.5t118 -135.5t78 -204.5t29 -278q0 -395 -152 -610.5t-419 -215.5q-180 0 -300 92.5t-159 239.5q-12 44 35 47l92 2q35 0 47 -35q32 -88 110 -136t181 -48q175 0 275.5 146.5t115.5 420.5h-20 q-170 -112 -361 -112q-215 0 -348 129.5t-133 333.5zM303 1063q0 -136 87 -224.5t253 -88.5q196 0 354 118q-5 112 -28 198t-57.5 141t-82 90t-97.5 49t-109 14q-145 0 -232.5 -79t-87.5 -218z" />
<glyph unicode=":" horiz-adv-x="665" d="M238 66v141q0 41 41 41h129q41 0 41 -41v-141q0 -41 -41 -41h-129q-41 0 -41 41zM240 938v141q0 41 41 41h129q41 0 41 -41v-141q0 -41 -41 -41h-129q-41 0 -41 41z" />
<glyph unicode=";" horiz-adv-x="847" d="M246 31v143q0 41 41 41h127q41 0 41 -41v-119q0 -132 -29.5 -215.5t-97.5 -152.5q-25 -25 -56 -9q-33 17 -8 56q52 75 56 139.5t-48 108.5q-26 20 -26 49zM422 938v141q0 41 41 41h129q41 0 41 -41v-141q0 -41 -41 -41h-129q-41 0 -41 41z" />
<glyph unicode="&#x3c;" horiz-adv-x="1464" d="M246 498v82q0 34 30 49l895 393q22 9 35 0.5t13 -33.5v-69q0 -34 -31 -50l-766 -331l766 -324q31 -12 31 -47v-74q0 -23 -13 -31.5t-35 0.5l-895 386q-30 15 -30 49z" />
<glyph unicode="=" horiz-adv-x="1505" d="M246 268v70q0 41 41 41h934q41 0 41 -41v-70q0 -41 -41 -41h-934q-41 0 -41 41zM246 719v69q0 41 41 41h934q41 0 41 -41v-69q0 -41 -41 -41h-934q-41 0 -41 41z" />
<glyph unicode="&#x3e;" horiz-adv-x="1464" d="M246 96v72q0 34 30 49l766 330l-766 323q-30 15 -30 50v71q0 23 12.5 31.5t34.5 -0.5l895 -385q31 -15 31 -49v-82q0 -34 -31 -49l-895 -394q-22 -9 -34.5 -0.5t-12.5 33.5z" />
<glyph unicode="?" horiz-adv-x="1204" d="M125 1147q18 73 59 138t102.5 117.5t150 83t192.5 30.5q108 0 195.5 -32.5t144 -89.5t86.5 -133t30 -163q0 -160 -103 -286t-308 -232v-136q0 -41 -41 -41h-111q-41 0 -41 41v174q0 32 31 48q212 103 303.5 202.5t91.5 221.5q0 120 -76.5 190t-209.5 70q-112 0 -196 -52 t-120 -149q-11 -35 -45 -35h-94q-23 0 -33.5 9t-7.5 24zM477 25v133q0 41 41 41h119q41 0 41 -41v-133q0 -41 -41 -41h-119q-41 0 -41 41z" />
<glyph unicode="@" horiz-adv-x="1800" d="M141 543q0 172 61 316.5t167 243t250.5 153.5t310.5 55q162 0 299 -52.5t231 -145.5t146.5 -222t52.5 -279q0 -199 -88.5 -304t-231.5 -105q-103 0 -162.5 50t-82.5 118h-7q-35 -80 -100 -120t-139 -40q-119 0 -194.5 91t-75.5 233q0 150 83.5 243.5t208.5 93.5t191 -102 h6v45q0 41 41 41h43q41 0 41 -41v-266q0 -217 149 -217q172 0 172 262t-161 418.5t-424 156.5q-179 0 -322.5 -74t-229 -217.5t-85.5 -334.5q0 -137 46 -252.5t130.5 -198.5t210.5 -129.5t280 -46.5q119 0 216 23q47 10 47 -35l4 -39q3 -37 -33 -49q-115 -35 -260 -35 q-228 0 -408 94.5t-281.5 268.5t-101.5 399zM707 543q0 -99 47 -155t125 -56t128 54.5t54 148.5v32q-6 90 -55.5 137.5t-126.5 47.5q-81 0 -126.5 -56.5t-45.5 -152.5z" />
<glyph unicode="A" d="M45 47l530 1409q11 33 48 33h114q36 0 47 -33l531 -1409q4 -11 4 -19q-1 -10 -5 -16q-10 -12 -32 -12h-115q-36 0 -47 33l-153 428h-576l-153 -428q-11 -33 -48 -33h-112q-22 0 -32 12q-5 6 -5 16q0 8 4 19zM451 625h458l-229 637z" />
<glyph unicode="B" horiz-adv-x="1368" d="M141 41l6 1407q0 41 41 41h553q204 0 326.5 -109.5t122.5 -281.5q0 -93 -36 -173t-103 -137q108 -52 165.5 -143t57.5 -209q0 -188 -129.5 -312t-341.5 -124h-621q-41 0 -41 41zM328 1329l2 -481h420q123 0 191.5 63t68.5 174t-77.5 177.5t-211.5 66.5h-393zM332 686 l2 -526h454q146 0 226 70t80 190q0 122 -86.5 194t-241.5 72h-434z" />
<glyph unicode="C" horiz-adv-x="1519" d="M94 741q0 225 91.5 402t251 273.5t358.5 96.5q208 0 367.5 -105.5t234.5 -293.5q7 -22 -2 -34.5t-31 -12.5l-94 -2q-32 0 -49 29q-71 125 -184 192.5t-253 67.5q-225 0 -367.5 -160t-142.5 -438q0 -282 146 -451.5t383 -169.5q305 0 432 283q14 33 49 33l90 -2 q23 0 33 -13q6 -7 6 -17q0 -8 -4 -16q-33 -87 -87 -162.5t-130.5 -136.5t-181 -96t-224.5 -35q-204 0 -362 98t-244 272.5t-86 397.5z" />
<glyph unicode="D" horiz-adv-x="1476" d="M141 41l6 1407q0 41 41 41h488q338 0 522 -195.5t184 -527.5q0 -222 -80.5 -393.5t-243 -272t-386.5 -100.5h-490q-41 0 -41 41zM328 1329l6 -1167h323q254 0 399.5 156.5t145.5 426.5q0 277 -143 430.5t-397 153.5h-334z" />
<glyph unicode="E" horiz-adv-x="1202" d="M141 41l6 1407q0 41 41 41h877q41 0 41 -41v-82q0 -41 -41 -41h-737l4 -463h629q40 0 40 -41v-84q0 -41 -40 -41h-629l4 -532h731q41 0 41 -41v-82q0 -41 -41 -41h-885q-41 0 -41 41z" />
<glyph unicode="F" horiz-adv-x="1198" d="M141 41l6 1407q0 41 41 41h875q41 0 41 -41v-82q0 -41 -41 -41h-735l4 -457h626q41 0 41 -41v-82q0 -40 -41 -40h-626l4 -664q0 -41 -41 -41h-113q-41 0 -41 41z" />
<glyph unicode="G" horiz-adv-x="1587" d="M104 743q0 224 91.5 400t251.5 273t360 97q205 0 365 -102.5t233 -277.5q7 -22 -2 -35t-31 -13l-94 -2q-32 0 -49 29q-68 115 -181.5 178.5t-252.5 63.5q-109 0 -202.5 -40.5t-161.5 -116t-107 -189t-39 -252.5q0 -282 146 -451.5t382 -169.5q117 0 216.5 48.5t169.5 145 t93 228.5h-366q-41 0 -41 41v82q0 41 41 41h516q35 0 35 -39q-3 -154 -54 -285t-140.5 -224.5t-217.5 -146.5t-279 -53q-197 0 -352.5 98t-242.5 273.5t-87 398.5z" />
<glyph unicode="H" horiz-adv-x="1474" d="M141 41l6 1407q0 41 41 41h99q41 0 41 -41l2 -586h815l2 586q0 41 41 41h98q41 0 41 -41l6 -1407q0 -41 -41 -41h-110q-41 0 -41 41l2 655h-811l2 -655q0 -41 -41 -41h-111q-41 0 -41 41z" />
<glyph unicode="I" horiz-adv-x="722" d="M264 41l6 1407q0 41 41 41h99q41 0 41 -41l8 -1407q0 -41 -41 -41h-113q-41 0 -41 41z" />
<glyph unicode="J" horiz-adv-x="993" d="M94 43v78q0 41 41 41q229 10 317.5 117t88.5 354l4 815q0 41 41 41h98q41 0 41 -41l2 -801v-7q0 -229 -61 -366q-62 -140 -190 -203.5t-341 -68.5q-41 0 -41 41z" />
<glyph unicode="K" horiz-adv-x="1421" d="M113 41l6 1407q0 41 41 41h98q41 0 41 -41l4 -723l780 743q21 21 50 21h118q28 0 34.5 -15.5t-13.5 -35.5l-600 -574l639 -815q10 -14 10 -25q0 -6 -2 -10q-7 -14 -33 -14h-139q-30 0 -49 25l-547 725l-248 -236l2 -473q0 -41 -41 -41h-110q-41 0 -41 41z" />
<glyph unicode="L" horiz-adv-x="1175" d="M141 41l6 1407q0 41 41 41h99q41 0 41 -41l8 -1284h743q41 0 41 -41v-82q0 -41 -41 -41h-897q-41 0 -41 41z" />
<glyph unicode="M" horiz-adv-x="1771" d="M143 41l39 1407q3 41 43 41h201q36 0 47 -33l416 -1206l416 1206q11 33 47 33h194q40 0 43 -41l39 -1407v-5q0 -36 -39 -36h-102q-41 0 -41 41l-21 1262l-428 -1270q-11 -33 -47 -33h-123q-36 0 -45 33l-436 1298l-18 -1290q0 -41 -41 -41h-105q-39 0 -39 36v5z" />
<glyph unicode="N" horiz-adv-x="1480" d="M141 41l6 1407q0 41 41 41h199q32 0 49 -29l713 -1235l6 1223q0 41 41 41h94q41 0 41 -41l8 -1407q0 -41 -41 -41h-188q-32 0 -49 29l-735 1278l6 -1266q0 -41 -41 -41h-109q-41 0 -41 41z" />
<glyph unicode="O" horiz-adv-x="1585" d="M94 743q0 224 92.5 400t254.5 273t364 97q197 0 353 -92.5t244.5 -263t88.5 -389.5q0 -226 -92 -408t-254.5 -284.5t-362.5 -102.5q-196 0 -353 97.5t-246 274t-89 398.5zM274 756q0 -281 146 -451t375 -170q110 0 205 43.5t164.5 122t109 195t39.5 256.5 q0 277 -145.5 439.5t-374.5 162.5q-111 0 -206 -40.5t-164.5 -116t-109 -189t-39.5 -252.5z" />
<glyph unicode="P" horiz-adv-x="1337" d="M141 41l6 1407q0 41 41 41h560q222 0 357.5 -123t135.5 -322q0 -201 -136.5 -331.5t-356.5 -130.5h-416l4 -541q0 -41 -41 -41h-113q-41 0 -41 41zM328 1329l4 -590h401q156 0 243 77.5t87 209.5q0 137 -91 220t-239 83h-405z" />
<glyph unicode="Q" horiz-adv-x="1585" d="M94 743q0 224 92.5 400t254.5 273t364 97q197 0 353 -92.5t244.5 -263t88.5 -389.5q0 -192 -67.5 -354t-188.5 -271l102 -123q12 -14 12 -28q0 -15 -16 -29l-59 -47q-14 -13 -27 -13q-16 0 -30 17l-111 133q-151 -80 -324 -80q-196 0 -353 97.5t-246 274t-89 398.5z M274 756q0 -281 146 -451t375 -170q114 0 204 43l-100 121q-13 14 -13 28q0 15 17 29l60 50q15 12 28 12q15 0 29 -17l113 -135q85 81 132.5 206t47.5 280q0 277 -145.5 439.5t-374.5 162.5q-111 0 -206 -40.5t-164.5 -116t-109 -189t-39.5 -252.5z" />
<glyph unicode="R" horiz-adv-x="1339" d="M141 41l6 1407q0 41 41 41h562q217 0 347 -114t130 -294q0 -161 -104.5 -275.5t-284.5 -141.5l434 -615q9 -13 9 -24q-1 -7 -3 -11q-8 -14 -33 -14h-137q-31 0 -49 27l-426 630h-301l4 -616q0 -41 -41 -41h-113q-41 0 -41 41zM328 1329l2 -512h397q156 0 238 66.5 t82 183.5q0 121 -85 191.5t-235 70.5h-399z" />
<glyph unicode="S" horiz-adv-x="1341" d="M104 365q-2 8 -2 14q0 11 6 19q10 12 33 12h99q35 0 47 -31q113 -242 432 -242q165 0 253.5 58t88.5 167q0 102 -87 174.5t-284 137.5l-84 26q-223 72 -332.5 165.5t-113.5 244.5v10q0 178 142 284q146 110 372 109q203 0 339.5 -97.5t192.5 -244.5q9 -22 0 -34.5 t-32 -12.5h-95q-32 0 -49 29q-52 88 -145.5 143.5t-225.5 55.5q-151 0 -233 -59t-82 -156t81.5 -155t279.5 -118l79 -24q244 -75 353.5 -186t109.5 -267q0 -193 -144.5 -303.5t-389.5 -110.5q-109 0 -203 24t-160.5 62.5t-118 90.5t-82 105.5t-45.5 109.5z" />
<glyph unicode="T" horiz-adv-x="1198" d="M29 1366v82q0 41 41 41h1058q41 0 41 -41v-82q0 -41 -41 -41h-438l6 -1284q0 -41 -41 -41h-110q-41 0 -41 41l6 1284h-440q-41 0 -41 41z" />
<glyph unicode="U" horiz-adv-x="1497" d="M141 641l4 807q0 41 41 41h97q41 0 41 -41l4 -786q1 -262 113 -394.5t311 -132.5t308 132.5t109 394.5l5 786q0 41 40 41h99q41 0 41 -41l2 -807q1 -318 -167 -493t-441 -175t-440.5 175t-166.5 493z" />
<glyph unicode="V" horiz-adv-x="1335" d="M43 1442q-3 10 -3 17q0 9 5 17q9 12 31 13h100q36 0 47 -33l439 -1194h6l442 1194q11 33 47 33h103q22 -1 30 -13q5 -7 5 -16q0 -8 -3 -18l-508 -1409q-11 -33 -47 -33h-141q-36 0 -47 33z" />
<glyph unicode="W" horiz-adv-x="2004" d="M39 1444q-2 8 -2 14q-1 10 5 18q10 12 32 13h100q39 0 47 -35l324 -1155h12l336 1155q8 35 47 35h139q38 0 47 -35l322 -1155h10l338 1155q8 35 47 35h88q21 -1 31 -13q6 -8 6 -18q0 -7 -2 -14l-395 -1409q-8 -35 -47 -35h-138q-39 0 -47 35l-335 1194l-338 -1194 q-8 -35 -48 -35h-135q-39 0 -47 35z" />
<glyph unicode="X" horiz-adv-x="1462" d="M122 14q-3 5 -3 11q0 11 10 24l500 723l-447 668q-14 20 -6 34.5t33 14.5h106q32 0 50 -27l387 -565l387 565q18 27 49 27h98q25 0 33 -14.5t-6 -34.5l-465 -682l483 -709q10 -14 10 -25q0 -6 -2 -10q-7 -14 -32 -14h-129q-32 0 -50 27l-401 602l-401 -602 q-18 -27 -52 -27h-118q-26 0 -34 14z" />
<glyph unicode="Y" horiz-adv-x="1224" d="M51 1476q8 13 33 13h109q32 0 49 -29l368 -641h13l370 641q17 29 49 29h99q25 0 33 -13q2 -6 2 -12q0 -10 -7 -24l-462 -813l4 -586q0 -41 -41 -41h-109q-41 0 -41 41l4 586l-469 813q-7 13 -7 23q0 7 3 13z" />
<glyph unicode="Z" horiz-adv-x="1341" d="M102 41v74q0 25 21 51l838 1145v14h-779q-41 0 -41 41v82q0 41 41 41h975q41 0 41 -41v-70q0 -30 -18 -53l-838 -1149v-10h834q41 0 41 -41v-84q0 -41 -41 -41h-1033q-41 0 -41 41z" />
<glyph unicode="[" horiz-adv-x="845" d="M199 -410l6 1864q0 41 41 41h416q40 0 40 -41v-59q0 -41 -40 -41h-302l7 -1663h295q40 0 40 -41v-60q0 -41 -40 -41h-422q-41 0 -41 41z" />
<glyph unicode="\" horiz-adv-x="1019" d="M32 1483.5q8 13.5 31 13.5h105q32 0 47 -31l680 -1417q9 -22 0.5 -35.5t-31.5 -13.5h-104q-32 0 -47 31l-680 1417q-9 22 -1 35.5z" />
<glyph unicode="]" horiz-adv-x="845" d="M143 -350q0 41 41 41h301l-6 1663h-295q-41 0 -41 41v59q0 41 41 41h422q41 0 41 -41l-6 -1864q0 -41 -41 -41h-416q-41 0 -41 41v60z" />
<glyph unicode="^" horiz-adv-x="1490" d="M461 469l205 891q9 37 45 37h77q37 0 46 -37l198 -891q9 -45 -37 -45h-75q-37 0 -46 37l-126 590l-132 -590q-9 -37 -45 -37h-73q-46 0 -37 45z" />
<glyph unicode="_" horiz-adv-x="1253" d="M90 -197q0 41 41 41h991q41 0 41 -41v-45q0 -41 -41 -41h-991q-41 0 -41 41v45z" />
<glyph unicode="`" horiz-adv-x="817" d="M268.5 1541.5q6.5 14.5 34.5 14.5h66q32 0 49 -28l135 -223q12 -22 4 -36t-33 -14h-12q-32 0 -49 25l-184 227q-17 20 -10.5 34.5z" />
<glyph unicode="a" horiz-adv-x="1148" d="M90 283q0 95 42.5 163t130 111.5t208 67.5t289.5 34l53 5v59q0 107 -57 171t-183 64q-91 0 -153.5 -35t-91.5 -94q-18 -30 -49 -30h-89q-23 0 -34.5 7t-8.5 19q17 55 51 103.5t86 91t131.5 67.5t174.5 25q190 0 293 -101t106 -306l6 -664q0 -41 -41 -41h-100 q-41 0 -41 41v131h-14q-57 -88 -154 -139t-221 -51q-151 0 -242.5 78.5t-91.5 222.5zM266 295q0 -76 52 -117t145 -41q142 0 241 82.5t109 179.5v129l-49 -4q-260 -15 -379 -69t-119 -160z" />
<glyph unicode="b" horiz-adv-x="1245" d="M152 41l8 1446q0 41 41 41h88q41 0 41 -41l2 -508h12q112 133 305 133q226 0 366 -160t140 -420q0 -246 -127 -402.5t-330 -156.5q-106 0 -199 46.5t-151 134.5h-12v-113q0 -41 -41 -41h-102q-41 0 -41 41zM326 438q24 -147 111.5 -226t215.5 -79q152 0 237 108.5 t85 293.5q0 197 -89 308t-235 111q-128 0 -216 -91.5t-109 -256.5v-168z" />
<glyph unicode="c" horiz-adv-x="1089" d="M90 530q0 264 137.5 423t362.5 159q168 0 284.5 -87.5t157.5 -217.5q3 -8 3 -15q0 -10 -6 -18q-10 -12 -32 -12h-90q-31 0 -47 31q-83 159 -268 159q-153 0 -238.5 -105.5t-85.5 -309.5q0 -197 86.5 -299.5t243.5 -102.5q180 0 256 141q16 31 47 31h90q22 0 32 -13t1 -34 q-50 -123 -163.5 -205t-276.5 -82q-225 0 -359.5 153.5t-134.5 403.5z" />
<glyph unicode="d" horiz-adv-x="1243" d="M90 532q0 260 140.5 420t365.5 160q191 0 303 -133h10v508q0 41 41 41h94q41 0 41 -41l7 -1446q0 -41 -41 -41h-107q-41 0 -41 41v113h-12q-54 -88 -146 -134.5t-198 -46.5q-203 0 -330 156.5t-127 402.5zM268 547q0 -192 89.5 -302t236.5 -110q128 0 217 89t107 247v168 q-24 151 -111 233t-215 82q-152 0 -238 -109.5t-86 -297.5z" />
<glyph unicode="e" horiz-adv-x="1163" d="M90 537q0 256 143.5 414.5t372.5 158.5q151 0 259 -74q109 -75 159 -198q48 -116 47 -262v-17q0 -41 -43 -41h-758q1 -179 92.5 -282t245.5 -103q174 0 258 139q17 29 49 29h89q23 0 31.5 -13.5t-1.5 -33.5q-61 -136 -175 -208.5t-265 -72.5q-223 0 -363.5 156.5 t-140.5 407.5zM281 659h608q-5 126 -84 209.5t-213 83.5q-130 0 -209 -81t-102 -212z" />
<glyph unicode="f" horiz-adv-x="755" d="M57 977v70q0 40 41 40h133v23q1 122 33 207t93 131t136 65q68 17 156 17h19q41 -3 41 -43v-78q0 -41 -41 -41q-49 -2 -82.5 -6t-65 -13.5t-51 -26.5t-34.5 -44t-21 -65t-6 -91v-35h249q41 0 41 -40v-70q0 -41 -41 -41h-249l6 -895q0 -41 -41 -41h-107q-41 0 -41 41l6 895 h-133q-41 0 -41 41z" />
<glyph unicode="g" horiz-adv-x="1247" d="M90 557q0 240 127.5 397.5t329.5 157.5q108 0 199 -47.5t149 -136.5l12 2l2 117q0 40 41 40h94q41 0 41 -40l11 -912v-13q0 -290 -130 -443q-134 -156 -368 -156q-152 0 -262 68t-170 192q-10 20 -1 33.5t32 13.5h92q31 0 49 -27q85 -120 260 -120q305 0 305 382v15v55 h-10q-114 -135 -299 -135q-224 0 -364 152.5t-140 404.5zM268 541q0 -181 85.5 -281t238.5 -100q128 0 215 73t111 209v168q-18 161 -107.5 252.5t-216.5 91.5q-146 0 -236 -112t-90 -301z" />
<glyph unicode="h" horiz-adv-x="1183" d="M152 41l8 1446q0 41 41 41h92q41 0 41 -41l4 -561l14 -2q130 180 336 180q156 0 247.5 -101.5t92.5 -285.5l4 -676q0 -41 -41 -41h-106q-41 0 -41 41l4 631q0 128 -57 194t-162 66q-117 0 -195.5 -83t-95.5 -239l2 -569q0 -41 -41 -41h-106q-41 0 -41 41z" />
<glyph unicode="i" horiz-adv-x="534" d="M172 41l8 1006q0 40 41 40h92q41 0 41 -40l6 -1006q0 -41 -41 -41h-106q-41 0 -41 41zM182 1364v123q0 41 41 41h92q41 0 41 -41v-123q0 -41 -41 -41h-92q-41 0 -41 41z" />
<glyph unicode="j" horiz-adv-x="595" d="M-45 -332q0 41 41 41q61 2 98 12t65 36t39.5 73t12.5 123l6 1094q0 40 41 40h92q41 0 41 -40l8 -1084q0 -96 -21 -168.5t-55.5 -117.5t-88 -73.5t-110 -40t-128.5 -14.5q-41 0 -41 41v78zM217 1364v123q0 41 41 41h92q41 0 41 -41v-123q0 -41 -41 -41h-92q-41 0 -41 41z " />
<glyph unicode="k" horiz-adv-x="1159" d="M152 41l8 1446q0 41 41 41h92q41 0 41 -41l4 -889l489 469q20 20 50 20h106q28 0 34.5 -15.5t-13.5 -35.5l-414 -393l442 -594q10 -14 10 -25q0 -6 -2 -10q-7 -14 -32 -14h-117q-30 0 -49 25l-365 512l-139 -131l2 -365q0 -41 -41 -41h-106q-41 0 -41 41z" />
<glyph unicode="l" horiz-adv-x="583" d="M199 41l6 1446q0 41 41 41h92q41 0 41 -41l8 -1446q0 -41 -41 -41h-106q-41 0 -41 41z" />
<glyph unicode="m" horiz-adv-x="1769" d="M129 41l6 1006q0 40 41 40h94q41 0 41 -40v-121h11q144 186 331 186q217 0 285 -205h14q144 205 348 205q154 0 241 -102t87 -293l4 -676q0 -41 -41 -41h-106q-41 0 -41 41l4 631v5q0 131 -50 197q-52 66 -149 66q-110 0 -185 -84.5t-89 -247.5l2 -567q0 -41 -41 -41 h-105q-40 0 -40 41l2 631v5q-1 131 -51 197q-52 66 -148 66q-110 0 -187.5 -81.5t-93.5 -248.5l4 -569q0 -41 -41 -41h-106q-41 0 -41 41z" />
<glyph unicode="n" horiz-adv-x="1177" d="M152 41l8 1006q0 40 41 40h92q41 0 41 -40l2 -121l14 -2q132 188 338 188q156 0 247 -103.5t91 -291.5v-676q0 -41 -41 -41h-94q-41 0 -41 41v631q0 132 -58 200t-163 68q-118 0 -196 -84.5t-95 -245.5l2 -569q0 -41 -41 -41h-106q-41 0 -41 41z" />
<glyph unicode="o" horiz-adv-x="1208" d="M90 539q0 253 147.5 413t374.5 160q220 0 362 -154t142 -401q0 -167 -67 -300.5t-186 -208.5t-267 -75q-219 0 -362.5 159.5t-143.5 406.5zM268 555q0 -187 98.5 -303.5t245.5 -116.5q144 0 235 111t91 291q0 190 -97.5 303.5t-246.5 113.5q-144 0 -235 -108.5 t-91 -290.5z" />
<glyph unicode="p" horiz-adv-x="1245" d="M152 -410l8 1457q0 40 41 40h92q41 0 41 -40l2 -117h12q58 90 151 136t199 46q203 0 330 -156.5t127 -402.5q0 -258 -140 -419t-366 -161q-179 0 -301 131h-10l2 -514q0 -41 -41 -41h-106q-41 0 -41 41zM326 444q26 -149 112 -230t215 -81q151 0 236.5 108.5t85.5 297.5 q0 192 -89 303.5t-235 111.5q-128 0 -216.5 -91t-108.5 -251v-168z" />
<glyph unicode="q" horiz-adv-x="1243" d="M90 551q0 249 126.5 405t330.5 156q107 0 199 -46.5t149 -135.5h14v117q0 40 41 40h94q41 0 41 -40l7 -1457q0 -41 -41 -41h-107q-41 0 -41 41l4 514h-12q-122 -131 -303 -131q-225 0 -363.5 160.5t-138.5 417.5zM268 539q0 -188 86 -297t238 -109q128 0 215 81t111 230 v168q-18 161 -107 251.5t-217 90.5q-147 0 -236.5 -110.5t-89.5 -304.5z" />
<glyph unicode="r" horiz-adv-x="749" d="M152 41l8 1006q0 40 41 40h92q41 0 41 -40l2 -129l14 -3q56 81 135.5 133t173.5 62h5q38 0 38 -41v-106q0 -41 -40 -41q-70 -3 -122.5 -19.5t-98 -52t-71.5 -99t-32 -153.5l2 -557q0 -41 -41 -41h-106q-41 0 -41 41z" />
<glyph unicode="s" horiz-adv-x="1062" d="M100 260q-3 9 -3 17q-1 9 5 17q10 12 33 13h105q32 0 47 -31q80 -143 280 -143q104 0 165 37.5t61 114.5q0 65 -57 107t-191 81l-82 25q-162 46 -246 113.5t-84 183.5q0 140 113.5 228.5t285.5 88.5q166 0 271.5 -76.5t144.5 -185.5q7 -20 -3 -32.5t-32 -12.5h-90 q-32 0 -49 26q-84 123 -252 123q-95 0 -154 -40.5t-59 -106.5q0 -59 54.5 -93t183.5 -71l84 -25q183 -54 263.5 -129t80.5 -188q0 -150 -113.5 -239t-304.5 -89q-177 0 -292.5 78.5t-164.5 208.5z" />
<glyph unicode="t" horiz-adv-x="716" d="M61 977v70q0 40 41 40h156l2 383q0 41 41 41h92q41 0 41 -41l2 -383h193q41 0 41 -40v-70q0 -41 -41 -41h-191l4 -895q0 -41 -41 -41h-106q-41 0 -41 41l4 895h-156q-41 0 -41 41z" />
<glyph unicode="u" horiz-adv-x="1181" d="M152 387l4 660q0 40 41 40h92q41 0 41 -40l4 -617q3 -285 217 -285q118 0 195.5 84t97.5 248l4 570q0 40 41 40h92q41 0 41 -40l6 -1006q0 -41 -41 -41h-104q-41 0 -41 41l2 121h-15q-129 -189 -335 -189q-159 0 -250.5 107t-91.5 307z" />
<glyph unicode="v" horiz-adv-x="1067" d="M59 1040q-4 10 -4 19t5 15q9 12 32 13h90q36 0 47 -32l293 -860h21l295 860q11 32 47 32h90q23 -1 32 -13q5 -7 5 -15t-4 -19l-344 -1007q-11 -33 -48 -33h-167q-37 0 -48 33z" />
<glyph unicode="w" horiz-adv-x="1583" d="M55 1042q-2 8 -2 14q-1 10 5 18q10 12 32 13h90q35 0 47 -34l228 -856h22l230 856q12 34 47 34h77q39 0 48 -34l231 -856h20l228 856q12 34 47 34h88q21 -1 31 -13q6 -8 6 -18q0 -7 -2 -14l-281 -1007q-9 -35 -47 -35h-156q-39 0 -47 35l-204 713h-17l-190 -713 q-12 -35 -47 -35h-158q-38 0 -47 35z" />
<glyph unicode="x" horiz-adv-x="1116" d="M86 14q-3 5 -3 11q0 11 9 24l367 514l-324 475q-14 20 -6 34.5t33 14.5h104q32 0 49 -26l267 -387l268 387q17 26 49 26h94q26 -1 34 -15q3 -5 3 -10q0 -11 -10 -24l-346 -499l336 -490q15 -20 7.5 -34.5t-32.5 -14.5h-115q-31 0 -49 27l-270 399l-272 -399 q-18 -27 -50 -27h-110q-25 0 -33 14z" />
<glyph unicode="y" horiz-adv-x="1075" d="M59 1040q-3 10 -3 17q0 10 5 17q9 13 31 13h90q36 0 47 -32l293 -854h15l309 854q11 32 47 32h88q22 0 31 -13q5 -7 5 -17q0 -7 -3 -17l-510 -1458q-11 -33 -47 -33h-109q-22 0 -31 13t-2 35l129 356z" />
<glyph unicode="z" horiz-adv-x="1007" d="M90 41v82q0 12 6 18l606 785v10h-548q-41 0 -41 41v70q0 40 41 40h710q41 0 41 -40v-84q-10 -25 -20 -39l-578 -764v-8h567q41 0 41 -41v-70q0 -41 -41 -41h-743q-41 0 -41 41z" />
<glyph unicode="{" horiz-adv-x="899" d="M199 494v75q0 36 39 45q61 13 81.5 66.5t20.5 171.5v317q0 200 84 283.5t266 83.5h25q41 0 41 -41v-70q0 -41 -41 -41q-111 0 -160 -50.5t-49 -178.5v-350q0 -83 -15.5 -137.5t-40 -81.5t-63.5 -47v-15q119 -55 119 -278v-338q0 -130 49 -181t160 -51q41 0 41 -41v-69 q0 -41 -41 -41h-25q-181 0 -265.5 86t-84.5 287v313q0 120 -20 172.5t-82 65.5q-39 9 -39 45z" />
<glyph unicode="|" horiz-adv-x="770" d="M301 -461l6 2007q0 41 41 41h74q41 0 41 -41l6 -2007q0 -41 -41 -41h-86q-41 0 -41 41z" />
<glyph unicode="}" horiz-adv-x="899" d="M143 -365q0 41 41 41q111 0 160 51t49 181v348q0 83 15.5 137.5t40 81.5t63.5 47v15q-119 55 -119 278v340q0 128 -49 178.5t-160 50.5q-41 0 -41 41v70q0 41 41 41h25q182 0 266 -85.5t84 -287.5v-313q0 -117 21 -171t82 -67q38 -8 38 -45v-75q0 -38 -38 -46 q-62 -13 -82.5 -65.5t-20.5 -171.5v-318q0 -200 -84 -283t-266 -83h-25q-41 0 -41 41v69z" />
<glyph unicode="~" horiz-adv-x="1245" d="M246 528q7 104 58.5 167t158.5 63q48 0 89.5 -18t70 -43.5t54 -51t52 -43.5t51.5 -18q63 0 70 94q3 41 43 41h55q42 0 39 -41q-8 -99 -58.5 -164t-148.5 -65q-45 0 -84 18t-66.5 44t-52.5 52t-53.5 44t-58.5 18q-71 0 -82 -95q-3 -41 -41 -41h-57q-42 0 -39 39z" />
<glyph unicode="&#xa1;" horiz-adv-x="684" d="M238 920v141q0 41 41 41h127q40 0 40 -41v-141q0 -41 -40 -41h-127q-41 0 -41 41zM242 606q0 41 41 41h104q41 0 41 -41l-6 -962q0 -41 -41 -41h-92q-41 0 -41 41z" />
<glyph unicode="&#xa2;" horiz-adv-x="1089" d="M90 713q0 244 117.5 399t314.5 178l-6 238q0 41 41 41h66q41 0 41 -41l-7 -238q143 -18 241 -102t134 -199q7 -20 -3 -32.5t-32 -12.5h-90q-31 0 -47 31q-83 160 -268 160q-153 0 -238.5 -106t-85.5 -310q0 -197 86.5 -299.5t243.5 -102.5q180 0 256 142q15 30 47 30h90 q22 0 32 -13t1 -34q-43 -107 -137.5 -185t-229.5 -97l7 -236q0 -41 -41 -41h-66q-41 0 -41 41l6 236q-199 22 -315.5 171.5t-116.5 381.5z" />
<glyph unicode="&#xa3;" horiz-adv-x="1347" d="M141 41v74q0 30 27 51q42 29 69.5 58.5t43.5 56.5t24 68.5t10 78t2 100.5v101h-63q-41 0 -41 41v75q0 41 41 41h63v271q0 205 122.5 332t324.5 127q95 0 171.5 -29t128 -80.5t84.5 -113t50 -134.5q9 -45 -37 -45h-88q-36 0 -45 35q-30 100 -98.5 153.5t-171.5 53.5 q-125 0 -197 -80t-72 -236v-254h396q41 0 41 -41v-75q0 -41 -41 -41h-396v-129q0 -222 -96 -324v-10h772q41 0 41 -41v-84q0 -41 -41 -41h-983q-41 0 -41 41z" />
<glyph unicode="&#xa4;" horiz-adv-x="1435" d="M338 201q-28 29 0 57l94 92q-57 85 -57 191q0 141 101 241.5t243 100.5q103 0 186 -58l94 97q29 29 58 0l43 -45q29 -29 0 -58l-92 -94q53 -85 53 -184q0 -88 -43 -166q-9 -18 -14 -23q-35 -52 -91 -92q-8 -8 -10 -6q-83 -55 -184 -55q-99 0 -187 53l-94 -96 q-28 -28 -57 0zM502 541q0 -88 64 -151.5t153 -63.5q44 0 92 20l-43 43q-28 29 0 57l41 43q28 32 57 3l45 -43q21 51 21 92q0 89 -62.5 152t-150.5 63q-46 0 -94 -23l30 -31q29 -28 0 -57l-43 -45q-28 -28 -57 0l-33 33q-20 -48 -20 -92z" />
<glyph unicode="&#xa5;" horiz-adv-x="1224" d="M51 1475.5q8 13.5 33 13.5h109q32 0 49 -29l368 -641h13l370 641q17 29 49 29h99q25 0 32.5 -13.5t-4.5 -35.5l-395 -695h170q41 0 41 -40v-52q0 -41 -41 -41h-237v-137h237q41 0 41 -41v-51q0 -41 -41 -41h-235l2 -301q0 -41 -41 -41h-109q-41 0 -41 41l2 301h-211 q-41 0 -41 41v51q0 41 41 41h211v137h-211q-41 0 -41 41v52q0 40 41 40h144l-400 695q-12 22 -4 35.5z" />
<glyph unicode="&#xa7;" horiz-adv-x="1153" d="M156 205q-8 22 1.5 34.5t32.5 12.5h99q31 0 47 -31q84 -147 276 -147q99 0 157 37.5t58 111.5q0 67 -56.5 108.5t-205.5 90.5l-37 14q-68 23 -115 42.5t-92.5 46.5t-72.5 56t-43.5 69t-16.5 89q0 78 43.5 144.5t118.5 111.5q-81 42 -121.5 96.5t-40.5 135.5 q0 139 111.5 228t282.5 89q159 0 262.5 -78t138.5 -186q7 -20 -3 -32.5t-32 -12.5h-90q-32 0 -49 29q-77 122 -238 122q-94 0 -150 -41t-56 -106q0 -60 53 -93t194 -77l39 -12q199 -64 280 -138t81 -188q0 -160 -148 -252q78 -45 113 -102t35 -133q0 -149 -112.5 -239.5 t-295.5 -90.5q-174 0 -286.5 79.5t-161.5 211.5zM365 752q0 -60 53 -93t194 -77l39 -15l33 -10q143 45 143 154q0 66 -56.5 107t-205.5 93l-20 7q-85 -21 -132.5 -64t-47.5 -102z" />
<glyph unicode="&#xa8;" horiz-adv-x="911" d="M238 1364v123q0 41 41 41h57q41 0 41 -41v-123q0 -41 -41 -41h-57q-41 0 -41 41zM535 1364v123q0 41 40 41h58q41 0 41 -41v-123q0 -41 -41 -41h-58q-40 0 -40 41z" />
<glyph unicode="&#xa9;" horiz-adv-x="1773" d="M141 743q0 165 59 306.5t160 237.5t237.5 150t289.5 54q123 0 235.5 -34t205 -99.5t161 -156t106 -208t37.5 -250.5q0 -220 -100.5 -391.5t-269.5 -262.5t-375 -91q-153 0 -289.5 53.5t-237.5 149t-160 236.5t-59 306zM262 743q0 -184 84.5 -328t226.5 -221t314 -77 t314 77t227 221t85 328q0 185 -85 329.5t-227 221t-314 76.5q-128 0 -242.5 -45t-199 -125.5t-134 -199t-49.5 -257.5zM514 735q0 197 105.5 315.5t277.5 118.5q125 0 214.5 -63.5t123.5 -159.5q7 -20 -3 -32.5t-32 -12.5h-49q-31 0 -47 31q-64 119 -207 119 q-119 0 -184.5 -80t-65.5 -232q0 -149 67.5 -227t190.5 -78q136 0 199 107q15 30 47 30h43q24 0 33.5 -12.5t-0.5 -34.5q-40 -92 -126 -152.5t-208 -60.5q-172 0 -275.5 117t-103.5 307z" />
<glyph unicode="&#xab;" horiz-adv-x="1327" d="M227 504v86q0 33 27 51l334 217q20 14 34.5 6t14.5 -33v-61q0 -34 -27 -49l-266 -174l266 -174q27 -15 27 -49v-60q0 -25 -13.5 -32t-35.5 6l-334 217q-27 15 -27 49zM690 504v86q0 33 27 51l334 217q20 14 34.5 6t14.5 -33v-61q0 -34 -27 -49l-266 -174l266 -174 q27 -15 27 -49v-60q0 -25 -13.5 -32t-35.5 6l-334 217q-27 15 -27 49z" />
<glyph unicode="&#xad;" horiz-adv-x="1206" d="M246 541v75q0 41 41 41h633q41 0 41 -41v-75q0 -41 -41 -41h-633q-41 0 -41 41z" />
<glyph unicode="&#xae;" horiz-adv-x="1103" d="M186 1188q0 151 107 257.5t258 106.5t259 -107t108 -257q0 -151 -108 -259t-259 -108t-258 108t-107 259zM276 1188q0 -113 80.5 -194t194.5 -81t195 81t81 194q0 114 -81 194t-195 80t-194.5 -80t-80.5 -194zM428 1073v225q0 41 41 41h104q55 0 85 -25.5t30 -66.5 q0 -31 -17.5 -55.5t-49.5 -34.5l49 -76q14 -20 6 -34.5t-33 -14.5q-32 0 -47 27l-55 90h-35v-76q0 -41 -41 -41q-37 0 -37 41zM506 1214h65q41 0 41 29q0 13 -12 22t-29 9h-65v-60z" />
<glyph unicode="&#xaf;" horiz-adv-x="940" d="M238 1356v28q0 41 41 41h385q41 0 41 -41v-28q0 -41 -41 -41h-385q-41 0 -41 41z" />
<glyph unicode="&#xb0;" horiz-adv-x="899" d="M164 1268q0 119 83.5 201.5t203.5 82.5q119 0 201.5 -83t82.5 -201q0 -119 -83 -203t-201 -84q-120 0 -203.5 84t-83.5 203zM299 1268q0 -62 44.5 -107t107.5 -45q61 0 105 45t44 107q0 63 -43.5 107t-105.5 44q-63 0 -107.5 -44t-44.5 -107z" />
<glyph unicode="&#xb2;" horiz-adv-x="669" d="M150 1352q20 60 75 102.5t144 42.5q93 0 143.5 -47.5t50.5 -114.5q0 -90 -108 -182l-109 -94v-8h189q40 0 40 -41v-15q0 -41 -40 -41h-334q-41 0 -41 41v23q0 21 12 31l199 172q39 32 56 55t17 49q0 30 -22 49t-62 19q-60 0 -88 -41q-23 -29 -49 -29h-33q-22 0 -33 8 t-7 21z" />
<glyph unicode="&#xb3;" horiz-adv-x="632" d="M102 1069q-7 20 3.5 31.5t33.5 11.5h37q17 0 26.5 -7.5t20.5 -23.5q26 -39 99 -39q100 0 100 68q0 74 -150 74q-36 0 -36 41v2q0 41 36 41q134 0 134 67q0 29 -25.5 47.5t-65.5 18.5q-56 0 -82 -33q-23 -29 -49 -29h-30q-24 0 -34 12.5t-1 32.5q23 49 74.5 81t132.5 32 q95 0 144.5 -42t49.5 -101q0 -86 -98 -123q52 -15 84.5 -46.5t32.5 -80.5q0 -70 -57.5 -114t-159.5 -44q-89 0 -145 35.5t-75 87.5z" />
<glyph unicode="&#xb4;" horiz-adv-x="817" d="M262 1269q-8 14 4 36l133 223q17 28 50 28h67q28 0 35 -14.5t-10 -34.5l-185 -227q-17 -25 -49 -25h-12q-25 0 -33 14z" />
<glyph unicode="&#xb6;" horiz-adv-x="1470" d="M90 870q0 174 114.5 283t307.5 109h295q41 0 41 -41v-1385q0 -41 -41 -41h-86q-41 0 -41 41v637h-168q-192 0 -307 110.5t-115 286.5zM1096 -164l2 1385q0 41 41 41h92q41 0 41 -41v-1385q0 -41 -41 -41h-94q-41 0 -41 41z" />
<glyph unicode="&#xb7;" horiz-adv-x="737" d="M268 506v133q0 41 41 41h119q41 0 41 -41v-133q0 -41 -41 -41h-119q-41 0 -41 41z" />
<glyph unicode="&#xb8;" horiz-adv-x="843" d="M248 -385l4 10q12 41 51 25q53 -21 96 -21q46 0 74.5 24t28.5 62q0 41 -36 69t-110 28q-40 3 -28 47l41 133q8 35 45 35h26q23 0 32 -12.5t1 -34.5l-29 -86q73 -13 118.5 -56.5t45.5 -116.5q0 -81 -55 -133.5t-154 -52.5q-65 0 -129 27q-32 16 -22 53z" />
<glyph unicode="&#xb9;" horiz-adv-x="567" d="M123 1331q-29 32 4 58l96 79q25 19 51 19h107q41 0 41 -41l4 -451q0 -41 -41 -41h-45q-41 0 -41 41v396h-6l-96 -82q-32 -29 -58 4z" />
<glyph unicode="&#xbb;" horiz-adv-x="1327" d="M227 264v62q0 34 27 49l266 174l-266 174q-27 15 -27 49v59q0 25 13.5 32.5t35.5 -5.5l334 -217q27 -15 27 -49v-86q0 -33 -27 -51l-334 -217q-20 -14 -34.5 -6.5t-14.5 32.5zM690 264v62q0 34 27 49l266 174l-266 174q-27 15 -27 49v59q0 25 14.5 33t34.5 -6l334 -217 q27 -15 27 -49v-86q0 -33 -27 -51l-334 -217q-20 -14 -34.5 -6.5t-14.5 32.5z" />
<glyph unicode="&#xbf;" horiz-adv-x="1204" d="M131 -10q0 160 104 285t310 233v135q0 41 41 41h110q41 0 41 -41v-176q0 -32 -30 -47q-212 -101 -304 -200.5t-92 -221.5q0 -120 77 -190t210 -70q112 0 195.5 51.5t119.5 147.5q11 34 45 34h95q23 0 33.5 -8.5t7.5 -23.5q-18 -73 -59 -138t-102.5 -117.5t-150 -83 t-192.5 -30.5q-215 0 -337 119t-122 301zM541 930v131q0 41 41 41h118q41 0 41 -41v-131q0 -41 -41 -41h-118q-41 0 -41 41z" />
<glyph unicode="&#xc0;" d="M45 47l530 1409q11 33 48 33h114q36 0 47 -33l531 -1409q9 -22 -0.5 -34.5t-32.5 -12.5h-115q-36 0 -47 33l-153 428h-576l-153 -428q-11 -33 -48 -33h-112q-23 0 -32.5 12.5t-0.5 34.5zM451 625h458l-229 637zM457 1945.5q7 14.5 35 14.5h67q32 0 49 -29l133 -223 q12 -22 4.5 -35.5t-32.5 -13.5h-13q-33 0 -49 24l-184 228q-17 20 -10 34.5z" />
<glyph unicode="&#xc1;" d="M45 47l530 1409q11 33 48 33h114q36 0 47 -33l531 -1409q9 -22 -0.5 -34.5t-32.5 -12.5h-115q-36 0 -47 33l-153 428h-576l-153 -428q-11 -33 -48 -33h-112q-23 0 -32.5 12.5t-0.5 34.5zM451 625h458l-229 637zM629 1672.5q-8 13.5 4 35.5l133 223q17 29 49 29h68 q28 0 34.5 -14.5t-10.5 -34.5l-184 -228q-16 -24 -49 -24h-12q-25 0 -33 13.5z" />
<glyph unicode="&#xc2;" d="M45 47l530 1409q11 33 48 33h114q36 0 47 -33l531 -1409q9 -22 -0.5 -34.5t-32.5 -12.5h-115q-36 0 -47 33l-153 428h-576l-153 -428q-11 -33 -48 -33h-112q-23 0 -32.5 12.5t-0.5 34.5zM416.5 1673.5q-7.5 14.5 9.5 36.5l184 223q20 23 52 23h32q31 0 51 -23l187 -223 q17 -22 9.5 -36.5t-34.5 -14.5h-53q-31 0 -49 27l-121 172h-16l-117 -172q-18 -27 -49 -27h-51q-27 0 -34.5 14.5zM451 625h458l-229 637z" />
<glyph unicode="&#xc3;" d="M45 47l530 1409q11 33 48 33h114q36 0 47 -33l531 -1409q9 -22 -0.5 -34.5t-32.5 -12.5h-115q-36 0 -47 33l-153 428h-576l-153 -428q-11 -33 -48 -33h-112q-23 0 -32.5 12.5t-0.5 34.5zM416 1737q15 178 159 178q44 0 81.5 -22.5t59 -49t47 -49t48.5 -22.5q46 0 53 69 q6 41 41 41h21q44 0 41 -43q-8 -77 -46.5 -127.5t-109.5 -50.5q-33 0 -62 14.5t-49 35.5t-38.5 42.5t-40 36t-43.5 14.5q-49 0 -60 -69q-6 -41 -41 -41h-22q-42 0 -39 43zM451 625h458l-229 637z" />
<glyph unicode="&#xc4;" d="M45 47l530 1409q11 33 48 33h114q36 0 47 -33l531 -1409q9 -22 -0.5 -34.5t-32.5 -12.5h-115q-36 0 -47 33l-153 428h-576l-153 -428q-11 -33 -48 -33h-112q-23 0 -32.5 12.5t-0.5 34.5zM451 625h458l-229 637zM473 1769v123q0 41 41 41h59q41 0 41 -41v-123 q0 -40 -41 -40h-59q-41 0 -41 40zM770 1769v123q0 41 41 41h59q41 0 41 -41v-123q0 -40 -41 -40h-59q-41 0 -41 40z" />
<glyph unicode="&#xc5;" d="M45 47l530 1409q11 33 48 33h114q36 0 47 -33l531 -1409q9 -22 -0.5 -34.5t-32.5 -12.5h-115q-36 0 -47 33l-153 428h-576l-153 -428q-11 -33 -48 -33h-112q-23 0 -32.5 12.5t-0.5 34.5zM451 625h458l-229 637zM494 1792q0 83 53 134.5t131 51.5q80 0 133 -51.5 t53 -134.5q0 -82 -53.5 -133t-132.5 -51q-78 0 -131 51t-53 133zM578 1792q0 -44 29 -72t71 -28q43 0 72.5 28t29.5 72q0 46 -29 74t-73 28q-42 0 -71 -28t-29 -74z" />
<glyph unicode="&#xc6;" horiz-adv-x="1931" d="M51 13.5q-8 13.5 4 35.5l807 1413q17 29 49 29h883q41 0 41 -41v-82q0 -41 -41 -41h-633v-465h531q41 0 41 -41v-84q0 -41 -41 -41h-531v-532h635q41 0 41 -41v-82q0 -41 -41 -41h-774q-41 0 -41 41v420h-498l-245 -432q-17 -29 -50 -29h-104q-25 0 -33 13.5zM575 625 h406v714z" />
<glyph unicode="&#xc7;" horiz-adv-x="1519" d="M94 741q0 225 91.5 402t251 273.5t358.5 96.5q208 0 367.5 -105.5t234.5 -293.5q7 -22 -2 -34.5t-31 -12.5l-94 -2q-32 0 -49 29q-71 125 -184 192.5t-253 67.5q-225 0 -367.5 -160t-142.5 -438q0 -282 146 -451.5t383 -169.5q305 0 432 283q14 33 49 33l90 -2 q23 0 33 -13t2 -33q-32 -85 -84.5 -158.5t-125.5 -134t-173 -97t-215 -40.5l-33 -98q73 -13 118.5 -56.5t45.5 -115.5q0 -81 -55 -133.5t-154 -52.5q-67 0 -129 26q-32 17 -22 54l4 10q12 40 51 24q50 -20 96 -20t74.5 24t28.5 62q0 41 -36 68.5t-110 27.5q-40 3 -28 47 l40 137q-275 31 -441.5 240.5t-166.5 523.5z" />
<glyph unicode="&#xc8;" horiz-adv-x="1202" d="M141 41l6 1407q0 41 41 41h877q41 0 41 -41v-82q0 -41 -41 -41h-737l4 -463h629q40 0 40 -41v-84q0 -41 -40 -41h-629l4 -532h731q41 0 41 -41v-82q0 -41 -41 -41h-885q-41 0 -41 41zM387 1945.5q7 14.5 35 14.5h67q33 0 50 -29l133 -223q12 -22 4 -35.5t-33 -13.5h-12 q-33 0 -49 24l-185 228q-17 20 -10 34.5z" />
<glyph unicode="&#xc9;" horiz-adv-x="1202" d="M141 41l6 1407q0 41 41 41h877q41 0 41 -41v-82q0 -41 -41 -41h-737l4 -463h629q40 0 40 -41v-84q0 -41 -40 -41h-629l4 -532h731q41 0 41 -41v-82q0 -41 -41 -41h-885q-41 0 -41 41zM559 1672.5q-8 13.5 4 35.5l133 223q17 29 49 29h68q28 0 35 -14.5t-10 -34.5 l-185 -228q-16 -24 -49 -24h-12q-25 0 -33 13.5z" />
<glyph unicode="&#xca;" horiz-adv-x="1202" d="M141 41l6 1407q0 41 41 41h877q41 0 41 -41v-82q0 -41 -41 -41h-737l4 -463h629q40 0 40 -41v-84q0 -41 -40 -41h-629l4 -532h731q41 0 41 -41v-82q0 -41 -41 -41h-885q-41 0 -41 41zM346.5 1673.5q-7.5 14.5 9.5 36.5l185 223q20 23 51 23h33q31 0 51 -23l186 -223 q17 -22 10 -36.5t-34 -14.5h-54q-31 0 -49 27l-121 172h-16l-117 -172q-18 -27 -49 -27h-51q-27 0 -34.5 14.5z" />
<glyph unicode="&#xcb;" horiz-adv-x="1202" d="M141 41l6 1407q0 41 41 41h877q41 0 41 -41v-82q0 -41 -41 -41h-737l4 -463h629q40 0 40 -41v-84q0 -41 -40 -41h-629l4 -532h731q41 0 41 -41v-82q0 -41 -41 -41h-885q-41 0 -41 41zM403 1769v123q0 41 41 41h60q41 0 41 -41v-123q0 -40 -41 -40h-60q-41 0 -41 40z M700 1769v123q0 41 41 41h60q41 0 41 -41v-123q0 -40 -41 -40h-60q-41 0 -41 40z" />
<glyph unicode="&#xcc;" horiz-adv-x="722" d="M139.5 1945.5q6.5 14.5 34.5 14.5h68q32 0 49 -29l133 -223q12 -22 4 -35.5t-33 -13.5h-12q-33 0 -49 24l-184 228q-17 20 -10.5 34.5zM264 41l6 1407q0 41 41 41h99q41 0 41 -41l8 -1407q0 -41 -41 -41h-113q-41 0 -41 41z" />
<glyph unicode="&#xcd;" horiz-adv-x="722" d="M264 41l6 1407q0 41 41 41h99q41 0 41 -41l8 -1407q0 -41 -41 -41h-113q-41 0 -41 41zM311 1672.5q-8 13.5 4 35.5l134 223q17 29 49 29h67q28 0 35 -14.5t-10 -34.5l-184 -228q-16 -24 -50 -24h-12q-25 0 -33 13.5z" />
<glyph unicode="&#xce;" horiz-adv-x="722" d="M99 1673.5q-7 14.5 10 36.5l184 223q20 23 51 23h33q31 0 51 -23l186 -223q17 -22 10 -36.5t-34 -14.5h-53q-32 0 -50 27l-120 172h-17l-117 -172q-18 -27 -49 -27h-51q-27 0 -34 14.5zM264 41l6 1407q0 41 41 41h99q41 0 41 -41l8 -1407q0 -41 -41 -41h-113 q-41 0 -41 41z" />
<glyph unicode="&#xcf;" horiz-adv-x="722" d="M156 1769v123q0 41 41 41h59q41 0 41 -41v-123q0 -40 -41 -40h-59q-41 0 -41 40zM264 41l6 1407q0 41 41 41h99q41 0 41 -41l8 -1407q0 -41 -41 -41h-113q-41 0 -41 41zM453 1769v123q0 41 41 41h59q41 0 41 -41v-123q0 -40 -41 -40h-59q-41 0 -41 40z" />
<glyph unicode="&#xd0;" horiz-adv-x="1476" d="M117 541v75q0 41 26 41l4 791q0 41 41 41h488q338 0 522 -195.5t184 -527.5q0 -222 -80.5 -393.5t-243 -272t-386.5 -100.5h-490q-41 0 -41 41l2 459q-26 0 -26 41zM328 1329l4 -672h459q40 0 40 -41v-75q0 -41 -40 -41h-459l2 -338h323q254 0 399.5 156.5t145.5 426.5 q0 277 -143 430.5t-397 153.5h-334z" />
<glyph unicode="&#xd1;" horiz-adv-x="1480" d="M141 41l6 1407q0 41 41 41h199q32 0 49 -29l713 -1235l6 1223q0 41 41 41h94q41 0 41 -41l8 -1407q0 -41 -41 -41h-188q-32 0 -49 29l-735 1278l6 -1266q0 -41 -41 -41h-109q-41 0 -41 41zM477 1745q15 178 160 178q36 0 67 -14.5t52 -35.5t39.5 -42.5t38 -36t38.5 -14.5 q47 0 54 69q6 41 41 41h20q44 0 41 -43q-8 -77 -46.5 -127.5t-109.5 -50.5q-33 0 -62 14.5t-49 35.5t-38.5 42.5t-40 36t-43.5 14.5q-48 0 -59 -69q-6 -41 -41 -41h-23q-42 0 -39 43z" />
<glyph unicode="&#xd2;" horiz-adv-x="1585" d="M94 743q0 224 92.5 400t254.5 273t364 97q197 0 353 -92.5t244.5 -263t88.5 -389.5q0 -226 -92 -408t-254.5 -284.5t-362.5 -102.5q-196 0 -353 97.5t-246 274t-89 398.5zM274 756q0 -281 146 -451t375 -170q110 0 205 43.5t164.5 122t109 195t39.5 256.5 q0 277 -145.5 439.5t-374.5 162.5q-111 0 -206 -40.5t-164.5 -116t-109 -189t-39.5 -252.5zM571.5 1953.5q6.5 14.5 34.5 14.5h68q32 0 49 -29l133 -223q12 -22 4 -35.5t-33 -13.5h-12q-32 0 -49 25l-184 227q-17 20 -10.5 34.5z" />
<glyph unicode="&#xd3;" horiz-adv-x="1585" d="M94 743q0 224 92.5 400t254.5 273t364 97q197 0 353 -92.5t244.5 -263t88.5 -389.5q0 -226 -92 -408t-254.5 -284.5t-362.5 -102.5q-196 0 -353 97.5t-246 274t-89 398.5zM274 756q0 -281 146 -451t375 -170q110 0 205 43.5t164.5 122t109 195t39.5 256.5 q0 277 -145.5 439.5t-374.5 162.5q-111 0 -206 -40.5t-164.5 -116t-109 -189t-39.5 -252.5zM743.5 1680.5q-7.5 13.5 4.5 35.5l133 223q17 29 49 29h67q28 0 35 -14.5t-10 -34.5l-184 -227q-17 -25 -50 -25h-12q-25 0 -32.5 13.5z" />
<glyph unicode="&#xd4;" horiz-adv-x="1585" d="M94 743q0 224 92.5 400t254.5 273t364 97q197 0 353 -92.5t244.5 -263t88.5 -389.5q0 -226 -92 -408t-254.5 -284.5t-362.5 -102.5q-196 0 -353 97.5t-246 274t-89 398.5zM274 756q0 -281 146 -451t375 -170q110 0 205 43.5t164.5 122t109 195t39.5 256.5 q0 277 -145.5 439.5t-374.5 162.5q-111 0 -206 -40.5t-164.5 -116t-109 -189t-39.5 -252.5zM531 1681.5q-7 14.5 10 36.5l184 224q19 22 51 22h33q32 0 51 -22l187 -224q17 -22 9.5 -36.5t-34.5 -14.5h-53q-31 0 -49 27l-121 172h-17l-116 -172q-18 -27 -50 -27h-51 q-27 0 -34 14.5z" />
<glyph unicode="&#xd5;" horiz-adv-x="1585" d="M94 743q0 224 92.5 400t254.5 273t364 97q197 0 353 -92.5t244.5 -263t88.5 -389.5q0 -226 -92 -408t-254.5 -284.5t-362.5 -102.5q-196 0 -353 97.5t-246 274t-89 398.5zM274 756q0 -281 146 -451t375 -170q110 0 205 43.5t164.5 122t109 195t39.5 256.5 q0 277 -145.5 439.5t-374.5 162.5q-111 0 -206 -40.5t-164.5 -116t-109 -189t-39.5 -252.5zM530 1745q15 178 160 178q44 0 81.5 -22.5t59 -49t47 -49t48.5 -22.5q46 0 53 69q6 41 41 41h20q44 0 41 -43q-8 -77 -46 -127.5t-109 -50.5q-41 0 -76 22.5t-55.5 49t-48 49 t-54.5 22.5q-48 0 -59 -69q-6 -41 -41 -41h-23q-42 0 -39 43z" />
<glyph unicode="&#xd6;" horiz-adv-x="1585" d="M94 743q0 224 92.5 400t254.5 273t364 97q197 0 353 -92.5t244.5 -263t88.5 -389.5q0 -226 -92 -408t-254.5 -284.5t-362.5 -102.5q-196 0 -353 97.5t-246 274t-89 398.5zM274 756q0 -281 146 -451t375 -170q110 0 205 43.5t164.5 122t109 195t39.5 256.5 q0 277 -145.5 439.5t-374.5 162.5q-111 0 -206 -40.5t-164.5 -116t-109 -189t-39.5 -252.5zM588 1778v123q0 41 41 41h59q41 0 41 -41v-123q0 -41 -41 -41h-59q-41 0 -41 41zM885 1778v123q0 41 41 41h59q41 0 41 -41v-123q0 -41 -41 -41h-59q-41 0 -41 41z" />
<glyph unicode="&#xd7;" horiz-adv-x="1312" d="M274 307q-29 29 0 58l129 127l-129 129q-28 29 0 57l197 194q29 28 57 0l129 -127l127 127q29 29 58 0l196 -194q28 -28 0 -57l-127 -129l127 -127q29 -29 0 -58l-196 -198q-29 -29 -58 0l-127 129l-129 -129q-28 -29 -57 0z" />
<glyph unicode="&#xd8;" horiz-adv-x="1638" d="M127.5 14.5q-7.5 14.5 9.5 36.5l160 193q-152 207 -152 499q0 224 92.5 400t254.5 273t364 97q224 0 393 -118l66 78q19 24 51 24h102q27 0 34.5 -14.5t-9.5 -36.5l-129 -156q178 -203 178 -522q0 -226 -92 -408t-254 -284.5t-362 -102.5q-248 0 -431 156l-86 -104 q-19 -25 -51 -25h-104q-27 0 -34.5 14.5zM326 756q0 -213 90 -371l725 877q-131 92 -299 92q-227 0 -371.5 -160t-144.5 -438zM514 262q136 -127 332 -127q110 0 205 43.5t164 122t108 195t39 256.5q0 242 -113 399z" />
<glyph unicode="&#xd9;" horiz-adv-x="1497" d="M141 641l4 807q0 41 41 41h97q41 0 41 -41l4 -786q1 -262 113 -394.5t311 -132.5t308 132.5t109 394.5l5 786q0 41 40 41h99q41 0 41 -41l2 -807q1 -318 -167 -493t-441 -175t-440.5 175t-166.5 493zM524.5 1953.5q6.5 14.5 34.5 14.5h68q32 0 49 -29l133 -223 q12 -22 4 -35.5t-33 -13.5h-12q-32 0 -49 25l-184 227q-17 20 -10.5 34.5z" />
<glyph unicode="&#xda;" horiz-adv-x="1497" d="M141 641l4 807q0 41 41 41h97q41 0 41 -41l4 -786q1 -262 113 -394.5t311 -132.5t308 132.5t109 394.5l5 786q0 41 40 41h99q41 0 41 -41l2 -807q1 -318 -167 -493t-441 -175t-440.5 175t-166.5 493zM696 1680.5q-8 13.5 4 35.5l134 223q17 29 49 29h67q28 0 35 -14.5 t-10 -34.5l-184 -227q-17 -25 -50 -25h-12q-25 0 -33 13.5z" />
<glyph unicode="&#xdb;" horiz-adv-x="1497" d="M141 641l4 807q0 41 41 41h97q41 0 41 -41l4 -786q1 -262 113 -394.5t311 -132.5t308 132.5t109 394.5l5 786q0 41 40 41h99q41 0 41 -41l2 -807q1 -318 -167 -493t-441 -175t-440.5 175t-166.5 493zM484 1681.5q-7 14.5 10 36.5l184 224q19 22 51 22h33q32 0 51 -22 l186 -224q17 -22 10 -36.5t-34 -14.5h-53q-32 0 -50 27l-120 172h-17l-117 -172q-18 -27 -49 -27h-51q-27 0 -34 14.5z" />
<glyph unicode="&#xdc;" horiz-adv-x="1497" d="M141 641l4 807q0 41 41 41h97q41 0 41 -41l4 -786q1 -262 113 -394.5t311 -132.5t308 132.5t109 394.5l5 786q0 41 40 41h99q41 0 41 -41l2 -807q1 -318 -167 -493t-441 -175t-440.5 175t-166.5 493zM541 1778v123q0 41 41 41h59q41 0 41 -41v-123q0 -41 -41 -41h-59 q-41 0 -41 41zM838 1778v123q0 41 41 41h59q41 0 41 -41v-123q0 -41 -41 -41h-59q-41 0 -41 41z" />
<glyph unicode="&#xdd;" horiz-adv-x="1224" d="M51 1475.5q8 13.5 33 13.5h109q32 0 49 -29l368 -641h13l370 641q17 29 49 29h99q25 0 32.5 -13.5t-4.5 -35.5l-462 -813l4 -586q0 -41 -41 -41h-109q-41 0 -41 41l4 586l-469 813q-12 22 -4 35.5zM563 1680.5q-8 13.5 4 35.5l133 223q17 29 50 29h67q28 0 35 -14.5 t-10 -34.5l-185 -227q-17 -25 -49 -25h-12q-25 0 -33 13.5z" />
<glyph unicode="&#xdf;" horiz-adv-x="1249" d="M141 41l6 897q3 268 137 423t365 155q103 0 187.5 -32t139.5 -87t84.5 -127t29.5 -152q0 -112 -57.5 -202.5t-170.5 -139.5q146 -43 219.5 -138.5t73.5 -229.5q0 -185 -135.5 -302t-411.5 -126q-43 0 -43 40v84q0 41 41 41q375 14 375 271q0 124 -87.5 194.5t-264.5 79.5 q-41 0 -41 41v70q0 40 41 43q145 9 218 79t73 179q0 114 -76 184t-199 70q-142 0 -229 -102t-86 -316l6 -897q0 -41 -41 -41h-113q-41 0 -41 41z" />
<glyph unicode="&#xe0;" horiz-adv-x="1148" d="M90 283q0 95 42.5 163t130 111.5t208 67.5t289.5 34l53 5v59q0 107 -57 171t-183 64q-91 0 -153.5 -35t-91.5 -94q-18 -30 -49 -30h-89q-23 0 -34.5 7t-8.5 19q17 55 51 103.5t86 91t131.5 67.5t174.5 25q190 0 293 -101t106 -306l6 -664q0 -41 -41 -41h-100 q-41 0 -41 41v131h-14q-57 -88 -154 -139t-221 -51q-151 0 -242.5 78.5t-91.5 222.5zM266 295q0 -76 52 -117t145 -41q142 0 241 82.5t109 179.5v129l-49 -4q-260 -15 -379 -69t-119 -160zM346 1541.5q7 14.5 35 14.5h68q32 0 49 -28l133 -223q12 -22 4 -36t-33 -14h-12 q-32 0 -49 25l-185 227q-17 20 -10 34.5z" />
<glyph unicode="&#xe1;" horiz-adv-x="1148" d="M90 283q0 95 42.5 163t130 111.5t208 67.5t289.5 34l53 5v59q0 107 -57 171t-183 64q-91 0 -153.5 -35t-91.5 -94q-18 -30 -49 -30h-89q-23 0 -34.5 7t-8.5 19q17 55 51 103.5t86 91t131.5 67.5t174.5 25q190 0 293 -101t106 -306l6 -664q0 -41 -41 -41h-100 q-41 0 -41 41v131h-14q-57 -88 -154 -139t-221 -51q-151 0 -242.5 78.5t-91.5 222.5zM266 295q0 -76 52 -117t145 -41q142 0 241 82.5t109 179.5v129l-49 -4q-260 -15 -379 -69t-119 -160zM518 1269q-8 14 4 36l133 223q17 28 50 28h67q28 0 35 -14.5t-10 -34.5l-185 -227 q-17 -25 -49 -25h-12q-25 0 -33 14z" />
<glyph unicode="&#xe2;" horiz-adv-x="1148" d="M90 283q0 95 42.5 163t130 111.5t208 67.5t289.5 34l53 5v59q0 107 -57 171t-183 64q-91 0 -153.5 -35t-91.5 -94q-18 -30 -49 -30h-89q-23 0 -32.5 12.5t-1.5 32.5q19 52 53 97.5t85.5 85t128 62.5t167.5 23q190 0 293 -101t106 -306l6 -664q0 -41 -41 -41h-100 q-41 0 -41 41v131h-14q-57 -88 -154 -139t-221 -51q-151 0 -242.5 78.5t-91.5 222.5zM266 295q0 -76 52 -117t145 -41q142 0 241 82.5t109 179.5v129l-49 -4q-260 -15 -379 -69t-119 -160zM307.5 1270q-7.5 15 9.5 37l185 223q19 22 51 22h33q32 0 51 -22l186 -223 q17 -22 9.5 -37t-33.5 -15h-54q-31 0 -49 27l-121 172h-16l-117 -172q-18 -27 -49 -27h-51q-27 0 -34.5 15z" />
<glyph unicode="&#xe3;" horiz-adv-x="1148" d="M90 283q0 95 42.5 163t130 111.5t208 67.5t289.5 34l53 5v59q0 107 -57 171t-183 64q-91 0 -153.5 -35t-91.5 -94q-18 -30 -49 -30h-89q-23 0 -34.5 7t-8.5 19q17 55 51 103.5t86 91t131.5 67.5t174.5 25q190 0 293 -101t106 -306l6 -664q0 -41 -41 -41h-100 q-41 0 -41 41v131h-14q-57 -88 -154 -139t-221 -51q-151 0 -242.5 78.5t-91.5 222.5zM266 295q0 -76 52 -117t145 -41q142 0 241 82.5t109 179.5v129l-49 -4q-260 -15 -379 -69t-119 -160zM305 1333q15 178 160 178q36 0 67 -14.5t52 -35.5t39.5 -42.5t38 -36t38.5 -14.5 q47 0 54 70q6 41 41 41h20q44 0 41 -43q-8 -77 -46.5 -128t-109.5 -51q-33 0 -62 15t-49 36t-38.5 42t-40 36t-43.5 15q-48 0 -59 -70q-6 -41 -41 -41h-23q-42 0 -39 43z" />
<glyph unicode="&#xe4;" horiz-adv-x="1148" d="M90 283q0 95 42.5 163t130 111.5t208 67.5t289.5 34l53 5v59q0 107 -57 171t-183 64q-91 0 -153.5 -35t-91.5 -94q-18 -30 -49 -30h-89q-23 0 -34.5 7t-8.5 19q17 55 51 103.5t86 91t131.5 67.5t174.5 25q190 0 293 -101t106 -306l6 -664q0 -41 -41 -41h-100 q-41 0 -41 41v131h-14q-57 -88 -154 -139t-221 -51q-151 0 -242.5 78.5t-91.5 222.5zM266 295q0 -76 52 -117t145 -41q142 0 241 82.5t109 179.5v129l-49 -4q-260 -15 -379 -69t-119 -160zM362 1366v123q0 41 41 41h60q41 0 41 -41v-123q0 -41 -41 -41h-60q-41 0 -41 41z M659 1366v123q0 41 41 41h60q41 0 41 -41v-123q0 -41 -41 -41h-60q-41 0 -41 41z" />
<glyph unicode="&#xe5;" horiz-adv-x="1148" d="M90 283q0 95 42.5 163t130 111.5t208 67.5t289.5 34l53 5v59q0 107 -57 171t-183 64q-91 0 -153.5 -35t-91.5 -94q-18 -30 -49 -30h-89q-23 0 -34.5 7t-8.5 19q17 55 51 103.5t86 91t131.5 67.5t174.5 25q190 0 293 -101t106 -306l6 -664q0 -41 -41 -41h-100 q-41 0 -41 41v131h-14q-57 -88 -154 -139t-221 -51q-151 0 -242.5 78.5t-91.5 222.5zM266 295q0 -76 52 -117t145 -41q142 0 241 82.5t109 179.5v129l-49 -4q-260 -15 -379 -69t-119 -160zM383 1389q0 83 53 134.5t131 51.5q80 0 133.5 -51.5t53.5 -134.5q0 -82 -54 -133.5 t-133 -51.5q-78 0 -131 51.5t-53 133.5zM467 1389q0 -44 29 -72.5t71 -28.5q43 0 73 28.5t30 72.5q0 46 -29.5 74t-73.5 28q-42 0 -71 -28t-29 -74z" />
<glyph unicode="&#xe6;" horiz-adv-x="1886" d="M90 283q0 95 42.5 163t130 111.5t208 67.5t289.5 34l53 5v47q0 250 -240 250q-91 0 -153.5 -35.5t-91.5 -94.5q-18 -30 -49 -30h-89q-23 0 -32.5 12.5t-1.5 32.5q19 52 53 97.5t85.5 85t128 62.5t167.5 23q258 0 350 -182q145 178 389 178q150 0 258 -74.5t159 -197.5 t48 -279q0 -41 -43 -41h-758q1 -179 92.5 -282t245.5 -103q171 0 258 139q17 29 49 29h88q23 0 32 -13.5t-1 -33.5q-61 -136 -175 -208.5t-265 -72.5q-146 0 -259 69.5t-177 193.5h-7q-57 -116 -177.5 -184t-272.5 -68q-151 0 -242.5 77.5t-91.5 221.5zM266 295 q0 -75 52 -115.5t145 -40.5q148 0 249 104t101 242v43l-49 -4q-260 -15 -379 -69t-119 -160zM1004 659h608q-5 126 -84 209.5t-213 83.5q-130 0 -209 -81t-102 -212z" />
<glyph unicode="&#xe7;" horiz-adv-x="1089" d="M90 530q0 264 137.5 423t362.5 159q168 0 284.5 -87.5t157.5 -217.5q7 -20 -3 -32.5t-32 -12.5h-90q-31 0 -47 31q-83 159 -268 159q-153 0 -238.5 -105.5t-85.5 -309.5q0 -197 86.5 -299.5t243.5 -102.5q180 0 256 141q16 31 47 31h90q22 0 32 -13t1 -34 q-47 -116 -151.5 -196.5t-254.5 -88.5l-32 -100q73 -13 118.5 -56.5t45.5 -115.5q0 -81 -55 -133.5t-154 -52.5q-67 0 -129 26q-33 17 -23 54l4 10q12 40 51 24q50 -20 97 -20q46 0 74 24t28 62q0 41 -35.5 68.5t-109.5 27.5q-41 3 -29 47l41 137q-194 26 -307 175t-113 378 z" />
<glyph unicode="&#xe8;" horiz-adv-x="1163" d="M90 537q0 256 143.5 414.5t372.5 158.5q151 0 259 -74.5t158.5 -197.5t47.5 -279q0 -41 -43 -41h-758q1 -179 92.5 -282t245.5 -103q174 0 258 139q17 29 49 29h89q23 0 31.5 -13.5t-1.5 -33.5q-61 -136 -175 -208.5t-265 -72.5q-223 0 -363.5 156.5t-140.5 407.5z M281 659h608q-5 126 -84 209.5t-213 83.5q-130 0 -209 -81t-102 -212zM360.5 1541.5q6.5 14.5 34.5 14.5h68q32 0 49 -28l133 -223q12 -22 4 -36t-33 -14h-12q-32 0 -49 25l-184 227q-17 20 -10.5 34.5z" />
<glyph unicode="&#xe9;" horiz-adv-x="1163" d="M90 537q0 256 143.5 414.5t372.5 158.5q151 0 259 -74.5t158.5 -197.5t47.5 -279q0 -41 -43 -41h-758q1 -179 92.5 -282t245.5 -103q174 0 258 139q17 29 49 29h89q23 0 31.5 -13.5t-1.5 -33.5q-61 -136 -175 -208.5t-265 -72.5q-223 0 -363.5 156.5t-140.5 407.5z M281 659h608q-5 126 -84 209.5t-213 83.5q-130 0 -209 -81t-102 -212zM534.5 1269q-7.5 14 4.5 36l133 223q17 28 49 28h67q28 0 35 -14.5t-10 -34.5l-184 -227q-17 -25 -49 -25h-13q-25 0 -32.5 14z" />
<glyph unicode="&#xea;" horiz-adv-x="1163" d="M90 537q0 256 143.5 414.5t372.5 158.5q151 0 259 -74.5t158.5 -197.5t47.5 -279q0 -41 -43 -41h-758q1 -179 92.5 -282t245.5 -103q174 0 258 139q17 29 49 29h89q23 0 31.5 -13.5t-1.5 -33.5q-61 -136 -175 -208.5t-265 -72.5q-223 0 -363.5 156.5t-140.5 407.5z M281 659h608q-5 126 -84 209.5t-213 83.5q-130 0 -209 -81t-102 -212zM322.5 1270q-7.5 15 9.5 37l184 223q19 22 51 22h33q32 0 51 -22l187 -223q17 -22 9.5 -37t-34.5 -15h-53q-31 0 -49 27l-121 172h-17l-116 -172q-18 -27 -49 -27h-52q-26 0 -33.5 15z" />
<glyph unicode="&#xeb;" horiz-adv-x="1163" d="M90 537q0 256 143.5 414.5t372.5 158.5q151 0 259 -74.5t158.5 -197.5t47.5 -279q0 -41 -43 -41h-758q1 -179 92.5 -282t245.5 -103q174 0 258 139q17 29 49 29h89q23 0 31.5 -13.5t-1.5 -33.5q-61 -136 -175 -208.5t-265 -72.5q-223 0 -363.5 156.5t-140.5 407.5z M281 659h608q-5 126 -84 209.5t-213 83.5q-130 0 -209 -81t-102 -212zM379 1366v123q0 41 41 41h59q41 0 41 -41v-123q0 -41 -41 -41h-59q-41 0 -41 41zM676 1366v123q0 41 41 41h59q41 0 41 -41v-123q0 -41 -41 -41h-59q-41 0 -41 41z" />
<glyph unicode="&#xec;" horiz-adv-x="534" d="M45 1541.5q7 14.5 35 14.5h67q33 0 50 -28l133 -223q12 -22 4 -36t-33 -14h-12q-32 0 -49 25l-185 227q-17 20 -10 34.5zM172 41l8 1006q0 40 41 40h92q41 0 41 -40l6 -1006q0 -41 -41 -41h-106q-41 0 -41 41z" />
<glyph unicode="&#xed;" horiz-adv-x="534" d="M172 41l8 1006q0 40 41 40h92q41 0 41 -40l6 -1006q0 -41 -41 -41h-106q-41 0 -41 41zM219 1269q-8 14 4 36l133 223q17 28 50 28h67q28 0 35 -14.5t-10 -34.5l-185 -227q-17 -25 -49 -25h-12q-25 0 -33 14z" />
<glyph unicode="&#xee;" horiz-adv-x="534" d="M6.5 1270q-7.5 15 9.5 37l185 223q19 22 51 22h33q32 0 51 -22l186 -223q17 -22 9.5 -37t-33.5 -15h-54q-31 0 -49 27l-121 172h-16l-117 -172q-18 -27 -49 -27h-51q-27 0 -34.5 15zM172 41l8 1006q0 40 41 40h92q41 0 41 -40l6 -1006q0 -41 -41 -41h-106q-41 0 -41 41z " />
<glyph unicode="&#xef;" horiz-adv-x="534" d="M61 1366v123q0 41 41 41h60q41 0 41 -41v-123q0 -41 -41 -41h-60q-41 0 -41 41zM172 41l8 1006q0 40 41 40h92q41 0 41 -40l6 -1006q0 -41 -41 -41h-106q-41 0 -41 41zM358 1366v123q0 41 41 41h60q41 0 41 -41v-123q0 -41 -41 -41h-60q-41 0 -41 41z" />
<glyph unicode="&#xf1;" horiz-adv-x="1177" d="M152 41l8 1006q0 40 41 40h92q41 0 41 -40l2 -121l14 -2q132 188 338 188q156 0 247 -103.5t91 -291.5v-676q0 -41 -41 -41h-94q-41 0 -41 41v631q0 132 -58 200t-163 68q-118 0 -196 -84.5t-95 -245.5l2 -569q0 -41 -41 -41h-106q-41 0 -41 41zM330 1333q15 178 159 178 q44 0 81.5 -22.5t59 -49t47 -49t48.5 -22.5q46 0 53 70q6 41 41 41h21q44 0 41 -43q-8 -77 -46.5 -128t-109.5 -51q-33 0 -62 15t-49 36t-38.5 42t-40 36t-43.5 15q-49 0 -60 -70q-6 -41 -41 -41h-22q-42 0 -39 43z" />
<glyph unicode="&#xf2;" horiz-adv-x="1208" d="M90 539q0 253 147.5 413t374.5 160q220 0 362 -154t142 -401q0 -167 -67 -300.5t-186 -208.5t-267 -75q-219 0 -362.5 159.5t-143.5 406.5zM268 555q0 -187 98.5 -303.5t245.5 -116.5q144 0 235 111t91 291q0 190 -97.5 303.5t-246.5 113.5q-144 0 -235 -108.5 t-91 -290.5zM381 1541.5q7 14.5 35 14.5h67q32 0 49 -28l134 -223q12 -22 4 -36t-33 -14h-12q-33 0 -50 25l-184 227q-17 20 -10 34.5z" />
<glyph unicode="&#xf3;" horiz-adv-x="1208" d="M90 539q0 253 147.5 413t374.5 160q220 0 362 -154t142 -401q0 -167 -67 -300.5t-186 -208.5t-267 -75q-219 0 -362.5 159.5t-143.5 406.5zM268 555q0 -187 98.5 -303.5t245.5 -116.5q144 0 235 111t91 291q0 190 -97.5 303.5t-246.5 113.5q-144 0 -235 -108.5 t-91 -290.5zM555 1269q-8 14 4 36l133 223q17 28 49 28h68q28 0 35 -14.5t-10 -34.5l-185 -227q-17 -25 -49 -25h-12q-25 0 -33 14z" />
<glyph unicode="&#xf4;" horiz-adv-x="1208" d="M90 539q0 253 147.5 413t374.5 160q220 0 362 -154t142 -401q0 -167 -67 -300.5t-186 -208.5t-267 -75q-219 0 -362.5 159.5t-143.5 406.5zM268 555q0 -187 98.5 -303.5t245.5 -116.5q144 0 235 111t91 291q0 190 -97.5 303.5t-246.5 113.5q-144 0 -235 -108.5 t-91 -290.5zM342.5 1270q-7.5 15 9.5 37l185 223q19 22 51 22h33q32 0 51 -22l186 -223q17 -22 9.5 -37t-33.5 -15h-54q-31 0 -49 27l-121 172h-16l-117 -172q-18 -27 -49 -27h-51q-27 0 -34.5 15z" />
<glyph unicode="&#xf5;" horiz-adv-x="1208" d="M90 539q0 253 147.5 413t374.5 160q220 0 362 -154t142 -401q0 -167 -67 -300.5t-186 -208.5t-267 -75q-219 0 -362.5 159.5t-143.5 406.5zM268 555q0 -187 98.5 -303.5t245.5 -116.5q144 0 235 111t91 291q0 190 -97.5 303.5t-246.5 113.5q-144 0 -235 -108.5 t-91 -290.5zM342 1333q15 178 160 178q36 0 67 -14.5t52 -35.5t39.5 -42.5t38 -36t38.5 -14.5q47 0 54 70q6 41 40 41h21q44 0 41 -43q-8 -77 -46.5 -128t-109.5 -51q-33 0 -62 15t-49 36t-38.5 42t-40 36t-43.5 15q-49 0 -60 -70q-6 -41 -41 -41h-22q-42 0 -39 43z" />
<glyph unicode="&#xf6;" horiz-adv-x="1208" d="M90 539q0 253 147.5 413t374.5 160q220 0 362 -154t142 -401q0 -167 -67 -300.5t-186 -208.5t-267 -75q-219 0 -362.5 159.5t-143.5 406.5zM268 555q0 -187 98.5 -303.5t245.5 -116.5q144 0 235 111t91 291q0 190 -97.5 303.5t-246.5 113.5q-144 0 -235 -108.5 t-91 -290.5zM397 1366v123q0 41 41 41h60q41 0 41 -41v-123q0 -41 -41 -41h-60q-41 0 -41 41zM694 1366v123q0 41 41 41h60q41 0 41 -41v-123q0 -41 -41 -41h-60q-41 0 -41 41z" />
<glyph unicode="&#xf7;" horiz-adv-x="1562" d="M246 510v78q0 41 41 41h989q41 0 41 -41v-78q0 -41 -41 -41h-989q-41 0 -41 41zM690 80v131q0 41 41 41h119q41 0 41 -41v-131q0 -41 -41 -41h-119q-41 0 -41 41zM690 866v133q0 41 41 41h119q41 0 41 -41v-133q0 -41 -41 -41h-119q-41 0 -41 41z" />
<glyph unicode="&#xf8;" horiz-adv-x="1314" d="M123 14.5q-7 14.5 10 36.5l111 127q-107 151 -107 361q0 253 147.5 413t374.5 160q173 0 306 -100l45 53q19 22 51 22h94q26 0 33 -14.5t-10 -36.5l-115 -131q100 -146 100 -348q0 -253 -148.5 -418.5t-371.5 -165.5q-166 0 -297 101l-43 -51q-20 -23 -51 -23h-96 q-26 0 -33 14.5zM315 555q0 -134 52 -233l483 557q-87 75 -209 75q-144 0 -235 -108.5t-91 -290.5zM459 205q86 -70 200 -70q142 0 233 111t91 291q0 131 -47 223z" />
<glyph unicode="&#xf9;" horiz-adv-x="1181" d="M152 387l4 660q0 40 41 40h92q41 0 41 -40l4 -617q3 -285 217 -285q118 0 195.5 84t97.5 248l4 570q0 40 41 40h92q41 0 41 -40l6 -1006q0 -41 -41 -41h-104q-41 0 -41 41l2 121h-15q-129 -189 -335 -189q-159 0 -250.5 107t-91.5 307zM366.5 1541.5q6.5 14.5 34.5 14.5 h68q32 0 49 -28l133 -223q12 -22 4.5 -36t-32.5 -14h-13q-32 0 -49 25l-184 227q-17 20 -10.5 34.5z" />
<glyph unicode="&#xfa;" horiz-adv-x="1181" d="M152 387l4 660q0 40 41 40h92q41 0 41 -40l4 -617q3 -285 217 -285q118 0 195.5 84t97.5 248l4 570q0 40 41 40h92q41 0 41 -40l6 -1006q0 -41 -41 -41h-104q-41 0 -41 41l2 121h-15q-129 -189 -335 -189q-159 0 -250.5 107t-91.5 307zM538.5 1269q-7.5 14 4.5 36 l133 223q17 28 49 28h68q28 0 34.5 -14.5t-10.5 -34.5l-184 -227q-17 -25 -49 -25h-13q-25 0 -32.5 14z" />
<glyph unicode="&#xfb;" horiz-adv-x="1181" d="M152 387l4 660q0 40 41 40h92q41 0 41 -40l4 -617q3 -285 217 -285q118 0 195.5 84t97.5 248l4 570q0 40 41 40h92q41 0 41 -40l6 -1006q0 -41 -41 -41h-104q-41 0 -41 41l2 121h-15q-129 -189 -335 -189q-159 0 -250.5 107t-91.5 307zM328.5 1270q-7.5 15 9.5 37 l184 223q19 22 51 22h33q32 0 51 -22l187 -223q17 -22 9.5 -37t-34.5 -15h-53q-31 0 -49 27l-121 172h-16l-117 -172q-18 -27 -49 -27h-52q-26 0 -33.5 15z" />
<glyph unicode="&#xfc;" horiz-adv-x="1181" d="M152 387l4 660q0 40 41 40h92q41 0 41 -40l4 -617q3 -285 217 -285q118 0 195.5 84t97.5 248l4 570q0 40 41 40h92q41 0 41 -40l6 -1006q0 -41 -41 -41h-104q-41 0 -41 41l2 121h-15q-129 -189 -335 -189q-159 0 -250.5 107t-91.5 307zM383 1366v123q0 41 41 41h59 q41 0 41 -41v-123q0 -41 -41 -41h-59q-41 0 -41 41zM680 1366v123q0 41 41 41h59q41 0 41 -41v-123q0 -41 -41 -41h-59q-41 0 -41 41z" />
<glyph unicode="&#xfd;" horiz-adv-x="1075" d="M59 1040q-7 22 2 34.5t31 12.5h90q36 0 47 -32l293 -854h15l309 854q11 32 47 32h88q22 0 31 -12.5t2 -34.5l-510 -1458q-11 -33 -47 -33h-109q-22 0 -31 13t-2 35l129 356zM491.5 1269q-7.5 14 4.5 36l133 223q17 28 49 28h67q28 0 35 -14.5t-10 -34.5l-184 -227 q-17 -25 -49 -25h-13q-25 0 -32.5 14z" />
<glyph unicode="&#xff;" horiz-adv-x="1075" d="M59 1040q-7 22 2 34.5t31 12.5h90q36 0 47 -32l293 -854h15l309 854q11 32 47 32h88q22 0 31 -12.5t2 -34.5l-510 -1458q-11 -33 -47 -33h-109q-22 0 -31 13t-2 35l129 356zM336 1366v123q0 41 41 41h59q41 0 41 -41v-123q0 -41 -41 -41h-59q-41 0 -41 41zM633 1366v123 q0 41 41 41h59q41 0 41 -41v-123q0 -41 -41 -41h-59q-41 0 -41 41z" />
<glyph unicode="&#x152;" horiz-adv-x="1873" d="M94 743q0 163 55 302t152 236.5t234 152.5t296 55h906q41 0 41 -41v-80q0 -41 -41 -41h-633l2 -465h528q41 0 41 -41v-84q0 -41 -41 -41h-526l2 -532h629q41 0 41 -41v-82q0 -41 -41 -41h-928q-215 0 -379 95t-251 263.5t-87 384.5zM274 756q0 -272 152 -434t401 -162h91 l6 1167h-93q-253 0 -405 -151.5t-152 -419.5z" />
<glyph unicode="&#x153;" horiz-adv-x="2009" d="M90 539q0 253 147.5 413t374.5 160q133 0 242 -60t176 -167q68 107 178 166t246 59q150 0 258 -74.5t158.5 -197.5t46.5 -279q0 -41 -41 -41h-760q1 -179 92.5 -282t247.5 -103q172 0 256 139q17 29 49 29h88q23 0 32 -13.5t-1 -33.5q-61 -136 -174.5 -208.5 t-263.5 -72.5q-137 0 -246 61.5t-176 172.5q-70 -109 -180.5 -171.5t-243.5 -62.5q-219 0 -362.5 159.5t-143.5 406.5zM268 555q0 -187 98.5 -303.5t245.5 -116.5q144 0 235 111t91 291q0 190 -97.5 303.5t-246.5 113.5q-144 0 -235 -108.5t-91 -290.5zM1126 659h609 q-5 126 -83.5 209.5t-211.5 83.5q-132 0 -211.5 -81t-102.5 -212z" />
<glyph unicode="&#x178;" horiz-adv-x="1224" d="M51 1475.5q8 13.5 33 13.5h109q32 0 49 -29l368 -641h13l370 641q17 29 49 29h99q25 0 32.5 -13.5t-4.5 -35.5l-462 -813l4 -586q0 -41 -41 -41h-109q-41 0 -41 41l4 586l-469 813q-12 22 -4 35.5zM408 1778v123q0 41 41 41h59q41 0 41 -41v-123q0 -41 -41 -41h-59 q-41 0 -41 41zM705 1778v123q0 41 40 41h60q41 0 41 -41v-123q0 -41 -41 -41h-60q-40 0 -40 41z" />
<glyph unicode="&#x2c6;" horiz-adv-x="1062" d="M269.5 1270q-7.5 15 9.5 37l184 223q19 22 51 22h33q32 0 51 -22l186 -223q17 -22 9.5 -37t-33.5 -15h-53q-32 0 -50 27l-120 172h-17l-117 -172q-18 -27 -49 -27h-51q-26 0 -33.5 15z" />
<glyph unicode="&#x2dc;" horiz-adv-x="1028" d="M240 1333q15 178 159 178q44 0 81.5 -22.5t59 -49t47 -49t48.5 -22.5q46 0 53 70q6 41 41 41h21q44 0 41 -43q-8 -77 -46.5 -128t-109.5 -51q-33 0 -62 15t-49.5 36t-39 42t-40 36t-43.5 15q-48 0 -59 -70q-6 -41 -41 -41h-22q-42 0 -39 43z" />
<glyph unicode="&#x2000;" horiz-adv-x="989" />
<glyph unicode="&#x2001;" horiz-adv-x="1978" />
<glyph unicode="&#x2002;" horiz-adv-x="989" />
<glyph unicode="&#x2003;" horiz-adv-x="1978" />
<glyph unicode="&#x2004;" horiz-adv-x="659" />
<glyph unicode="&#x2005;" horiz-adv-x="494" />
<glyph unicode="&#x2006;" horiz-adv-x="329" />
<glyph unicode="&#x2007;" horiz-adv-x="329" />
<glyph unicode="&#x2008;" horiz-adv-x="247" />
<glyph unicode="&#x2009;" horiz-adv-x="395" />
<glyph unicode="&#x200a;" horiz-adv-x="109" />
<glyph unicode="&#x2010;" horiz-adv-x="1206" d="M246 541v75q0 41 41 41h633q41 0 41 -41v-75q0 -41 -41 -41h-633q-41 0 -41 41z" />
<glyph unicode="&#x2011;" horiz-adv-x="1206" d="M246 541v75q0 41 41 41h633q41 0 41 -41v-75q0 -41 -41 -41h-633q-41 0 -41 41z" />
<glyph unicode="&#x2012;" horiz-adv-x="1206" d="M246 541v75q0 41 41 41h633q41 0 41 -41v-75q0 -41 -41 -41h-633q-41 0 -41 41z" />
<glyph unicode="&#x2013;" horiz-adv-x="1468" d="M199 537v75q0 41 41 41h989q41 0 41 -41v-75q0 -41 -41 -41h-989q-41 0 -41 41z" />
<glyph unicode="&#x2014;" horiz-adv-x="1824" d="M199 537v75q0 41 41 41h1345q41 0 41 -41v-75q0 -41 -41 -41h-1345q-41 0 -41 41z" />
<glyph unicode="&#x2018;" horiz-adv-x="591" d="M219 1004v118q0 131 30 214t97 155q24 24 55 8q33 -17 9 -55q-51 -75 -55.5 -139.5t46.5 -108.5q29 -19 29 -49v-143q0 -41 -41 -41h-129q-41 0 -41 41z" />
<glyph unicode="&#x2019;" horiz-adv-x="473" d="M164 1313v143q0 41 41 41h127q41 0 41 -41v-119q0 -132 -29.5 -215.5t-97.5 -152.5q-24 -24 -56 -8q-32 17 -8 55q52 75 56 139.5t-48 108.5q-26 20 -26 49z" />
<glyph unicode="&#x201a;" horiz-adv-x="614" d="M246 31v143q0 41 41 41h127q41 0 41 -41v-119q0 -132 -29.5 -215.5t-97.5 -152.5q-25 -25 -56 -9q-33 17 -8 56q52 75 56 139.5t-48 108.5q-26 20 -26 49z" />
<glyph unicode="&#x201c;" horiz-adv-x="980" d="M219 1004v118q0 132 29.5 216t97.5 153q24 24 55 8q33 -17 9 -55q-52 -75 -56.5 -139t47.5 -109q27 -20 27 -49v-143q0 -41 -41 -41h-127q-41 0 -41 41zM608 1004v118q0 132 29.5 216t97.5 153q24 24 56 8q32 -17 8 -55q-52 -75 -56 -139.5t48 -108.5q26 -20 26 -49v-143 q0 -41 -41 -41h-127q-41 0 -41 41z" />
<glyph unicode="&#x201d;" horiz-adv-x="860" d="M162 1305v143q0 41 41 41h129q41 0 41 -41v-121q0 -130 -30 -213t-97 -153q-25 -25 -56 -9q-33 17 -8 56q32 49 45.5 94t4.5 85.5t-44 67.5q-26 19 -26 50zM551 1305v143q0 41 41 41h129q41 0 41 -41v-121q0 -130 -30 -213t-97 -153q-24 -24 -55 -9q-34 18 -9 56 q32 49 46 94t5 85.5t-44 67.5q-27 20 -27 50z" />
<glyph unicode="&#x201e;" horiz-adv-x="614" d="M246 31v143q0 41 41 41h127q41 0 41 -41v-119q0 -132 -29.5 -215.5t-97.5 -152.5q-25 -25 -56 -9q-33 17 -8 56q52 75 56 139.5t-48 108.5q-26 20 -26 49z" />
<glyph unicode="&#x2022;" horiz-adv-x="1081" d="M268 594q0 114 79.5 193t193.5 79t193 -79t79 -193t-79 -193t-193 -79t-193.5 79t-79.5 193z" />
<glyph unicode="&#x2026;" horiz-adv-x="1847" d="M238 82v141q0 41 41 41h129q41 0 41 -41v-141q0 -41 -41 -41h-129q-41 0 -41 41zM829 82v141q0 41 41 41h129q41 0 41 -41v-141q0 -41 -41 -41h-129q-41 0 -41 41zM1421 82v141q0 41 41 41h129q41 0 41 -41v-141q0 -41 -41 -41h-129q-41 0 -41 41z" />
<glyph unicode="&#x202f;" horiz-adv-x="395" />
<glyph unicode="&#x2039;" horiz-adv-x="864" d="M227 504v86q0 33 27 51l334 217q20 14 34.5 6t14.5 -33v-61q0 -34 -27 -49l-266 -174l266 -174q27 -15 27 -49v-60q0 -25 -13.5 -32t-35.5 6l-334 217q-27 15 -27 49z" />
<glyph unicode="&#x203a;" horiz-adv-x="864" d="M227 264v62q0 34 27 49l266 174l-266 174q-27 15 -27 49v59q0 25 14.5 33t34.5 -6l334 -217q27 -15 27 -49v-86q0 -33 -27 -51l-334 -217q-20 -14 -34.5 -6.5t-14.5 32.5z" />
<glyph unicode="&#x205f;" horiz-adv-x="494" />
<glyph unicode="&#x20ac;" horiz-adv-x="1425" d="M94 567v62q0 41 41 41h115q-2 23 -2 69q0 28 4 82h-117q-41 0 -41 41v62q0 41 41 41h137q60 254 244.5 403.5t441.5 149.5q157 0 291 -60q34 -14 25 -53l-21 -76q-12 -39 -53 -24q-130 53 -256 53q-182 0 -312 -103t-179 -290l456 2q41 0 41 -41v-62q0 -41 -41 -41 l-479 -2q-2 -20 -2 -65q0 -28 4 -86l477 2q41 0 41 -41v-62q0 -41 -41 -41l-452 -2q53 -184 185.5 -287.5t320.5 -103.5q119 0 245 47q43 16 52 -26l14 -68q9 -36 -25 -51q-134 -64 -301 -64q-262 0 -442 150t-236 403h-135q-41 0 -41 41z" />
<glyph unicode="&#x2122;" horiz-adv-x="1345" d="M164 1442v6q0 41 41 41h340q41 0 41 -41v-4q0 -41 -41 -41h-123v-402q0 -40 -41 -40h-14q-41 0 -41 40l2 402l-123 -2q-41 0 -41 41zM647 1001l12 447q3 41 43 41h58q37 0 45 -35l106 -352h9l106 352q8 35 45 35h53q40 0 43 -41l13 -447q3 -40 -39 -40h-11q-40 0 -40 40 l-9 340h-6l-102 -346q-8 -34 -45 -34h-23q-37 0 -45 34l-108 346h-9l-8 -340q0 -40 -41 -40h-8q-42 0 -39 40z" />
<glyph unicode="&#x25fc;" horiz-adv-x="1085" d="M0 0v1085h1085v-1085h-1085z" />
</font>
</defs>
</svg>
