<?xml version="1.0" encoding="utf-8"?>
<!-- Generator: Adobe Illustrator 21.0.2, SVG Export Plug-In . SVG Version: 6.00 Build 0)  -->
<svg version="1.1" id="Capa_1" xmlns="http://www.w3.org/2000/svg" xmlns:xlink="http://www.w3.org/1999/xlink" x="0px" y="0px"
	 viewBox="0 0 200 150" style="enable-background:new 0 0 200 150;" xml:space="preserve">
<style type="text/css">
	.st0{fill:#FFFFFF;}
</style>
<path class="st0" d="M160.5,60.1c0.5-2.8,0.8-5.8,0.8-8.8c0-26.1-20.8-47.3-46.4-47.3C93,4,74.6,19.6,69.8,40.5c-3-0.6-6.2-1-9.4-1
	C34.8,39.5,14,60.7,14,86.9s20.8,47.3,46.4,47.3c12.5,0,23.9-5.1,32.3-13.3c7.8,14.9,23.2,25.1,41,25.1c25.6,0,46.4-21.2,46.4-47.3
	C180,82.8,172.3,68.7,160.5,60.1z"/>
</svg>
