<?xml version="1.0" encoding="utf-8"?>
<!-- Generator: Adobe Illustrator 19.2.1, SVG Export Plug-In . SVG Version: 6.00 Build 0)  -->
<svg version="1.1" id="Capa_1" xmlns="http://www.w3.org/2000/svg" xmlns:xlink="http://www.w3.org/1999/xlink" x="0px" y="0px"
	 viewBox="0 0 612 612" style="enable-background:new 0 0 612 612;" xml:space="preserve">
<style type="text/css">
	.st0{fill:#FFFFFF;}
</style>
<path class="st0" d="M448.8,185.2c-32.3-38.1-77.4-61.4-127.2-65.6c-5.2-0.4-10.5-0.7-15.8-0.7c-46.7,0-91.5,17.4-126.1,49.1
	c-34.8,31.9-56.1,75.3-60,122.3c-4.2,49.8,11.3,98.2,43.6,136.3c32.3,38.1,77.4,61.4,127.2,65.6c5.2,0.4,10.5,0.7,15.8,0.7
	c46.7,0,91.5-17.4,126.1-49.1c34.8-31.9,56.1-75.3,60-122.3C496.5,271.8,481,223.4,448.8,185.2z M197.1,403.2l-2-0.5V208.5H282
	l-82.6,195.2L197.1,403.2z M342.6,403.5c-5.9,0-11.8,0-17.6,0h0c-2,0-3.3-0.9-4.1-2.7c-3.7-8.8-7.5-17.7-11.2-26.5l-3.1-7.4
	c-3.1,0.1-6.2,0.2-9.2,0.3c-1.6,0.1-3.2,0.1-4.8,0.2c-4.6,0.2-9.3,0.3-13.9,0.5l-10.6,0.4c-0.2,0-0.4,0-0.6,0l-5,0l41.4-89.6
	l57.7,124.7H342.6z M416.9,402.1l-1.6,0.8l-2.4,1.2l-82.8-195.7h86.8V402.1z"/>
</svg>
