<?xml version="1.0" encoding="utf-8"?>
<!-- Generator: Adobe Illustrator 19.2.1, SVG Export Plug-In . SVG Version: 6.00 Build 0)  -->
<svg version="1.1" id="Layer_1" xmlns="http://www.w3.org/2000/svg" xmlns:xlink="http://www.w3.org/1999/xlink" x="0px" y="0px"
	 viewBox="0 0 512 512" style="enable-background:new 0 0 512 512;" xml:space="preserve">
<style type="text/css">
	.st0{fill:#FFFFFF;}
</style>
<path class="st0" d="M95.7,128.8l-4.2-13l-4,13H95.7 M98.2,136.3h-13l-1.8,6H70.8L84,106.4h14.8l14,35.9h-12.6L98.2,136.3z"/>
<polyline class="st0" points="116.6,106.4 127.8,106.4 142.4,126.5 142.4,106.4 153.7,106.4 153.7,142.3 142.4,142.3 127.9,122.3 
	127.9,142.3 116.6,142.3 116.6,106.4 "/>
<path class="st0" d="M180.6,130.3v-8.5H199v14.7c-3.5,2.4-6.6,4.1-9.2,4.9c-2.7,0.9-5.8,1.3-9.5,1.3c-4.5,0-8.2-0.7-11.1-2.2
	c-2.8-1.4-5.1-3.6-6.6-6.4c-1.6-2.9-2.4-6.1-2.4-9.8c0-3.9,0.9-7.3,2.6-10.2c1.7-2.9,4.2-5.1,7.5-6.6c2.6-1.2,6-1.7,10.4-1.7
	c4.2,0,7.4,0.4,9.4,1.1c2.1,0.7,3.8,1.9,5.2,3.4c1.4,1.5,2.4,3.5,3.1,5.9l-11.8,1.6c-0.4-1.1-1.2-2-2.3-2.6s-2.4-0.9-4.1-0.9
	c-2.5,0-4.5,0.8-5.9,2.4c-1.5,1.6-2.2,4.1-2.2,7.5c0,3.6,0.8,6.2,2.3,7.8c1.6,1.6,3.7,2.3,6.5,2.3c1.3,0,2.6-0.1,3.8-0.4
	c1.2-0.2,2.6-0.7,4.1-1.3v-2.3L180.6,130.3"/>
<path class="st0" d="M231.3,106.4h11.8v21.3c0,2.1-0.4,4.1-1.1,6c-0.7,1.9-1.8,3.5-3.4,4.9c-1.5,1.4-3.1,2.4-4.8,3
	c-2.3,0.8-5.1,1.2-8.4,1.2c-1.9,0-4-0.1-6.2-0.4c-2.2-0.2-4.1-0.7-5.6-1.5c-1.5-0.7-2.9-1.8-4.1-3.1c-1.2-1.3-2.1-2.7-2.6-4.1
	c-0.7-2.3-1.1-4.3-1.1-6v-21.3h11.8v21.7c0,1.9,0.6,3.5,1.8,4.6s2.8,1.6,5,1.6c2.1,0,3.7-0.5,4.9-1.6c1.2-1.1,1.8-2.6,1.8-4.6
	L231.3,106.4"/>
<polyline class="st0" points="250.7,106.4 262.5,106.4 262.5,133.3 281.3,133.3 281.3,142.3 250.7,142.3 250.7,106.4 "/>
<path class="st0" d="M307.9,128.8l-4.2-13l-4,13H307.9 M310.4,136.3h-13l-1.8,6H283l13.3-35.9H311l14,35.9h-12.6L310.4,136.3z"/>
<path class="st0" d="M341.1,120.3h5c0.5,0,1.6-0.2,3.1-0.5c0.8-0.1,1.4-0.5,1.9-1.1c0.5-0.6,0.7-1.2,0.7-2c0-1.1-0.4-2-1.2-2.6
	c-0.8-0.6-2.3-0.9-4.4-0.9h-5.2V120.3 M329.3,142.3v-35.9h19.7c3.7,0,6.4,0.3,8.4,0.9c1.9,0.6,3.5,1.6,4.7,3.2
	c1.2,1.6,1.8,3.5,1.8,5.7c0,2-0.5,3.6-1.4,5c-0.9,1.4-2.2,2.6-3.8,3.4c-1,0.6-2.4,1-4.2,1.4c1.4,0.5,2.4,0.9,3,1.4
	c0.4,0.3,1,1,1.9,2c0.8,1,1.3,1.8,1.6,2.4l6.2,10.5h-13.2l-6.6-11.3c-0.8-1.5-1.5-2.4-2.1-2.8c-0.9-0.6-1.8-0.9-2.9-0.9h-1v14.9
	L329.3,142.3L329.3,142.3z"/>
<path class="st0" d="M387.4,106.4h11.9v19.4c0,4.1-0.4,7.2-1.2,9.3c-0.8,2.1-2.4,3.9-4.7,5.4c-2.4,1.5-5.4,2.2-9.1,2.2
	c-3.9,0-7-0.5-9.1-1.5c-2.2-1-3.8-2.4-5-4.2c-1.2-1.9-1.9-4.2-2.1-6.9l11.8-1.4c0,1.5,0.2,2.6,0.4,3.3c0.3,0.7,0.7,1.3,1.4,1.7
	c0.4,0.3,1.1,0.4,1.9,0.4c1.3,0,2.3-0.5,2.9-1.4c0.6-0.9,0.9-2.5,0.9-4.6L387.4,106.4"/>
<path class="st0" d="M404.7,130.5l11.9-0.6c0.2,1.7,0.7,3,1.4,3.8c1.2,1.4,2.8,2.1,4.9,2.1c1.6,0,2.8-0.4,3.7-1.1s1.3-1.6,1.3-2.6
	c0-0.9-0.4-1.8-1.1-2.5c-0.8-0.7-2.7-1.4-5.9-2.1c-5.2-1.1-8.9-2.5-11.1-4.3c-2.2-1.8-3.4-4.1-3.4-6.9c0-1.8,0.6-3.6,1.7-5.2
	c1.1-1.6,2.9-2.9,5.2-3.8c2.3-0.9,5.5-1.4,9.5-1.4c4.9,0,8.7,0.9,11.3,2.6c2.6,1.7,4.1,4.5,4.6,8.2l-11.8,0.7
	c-0.3-1.7-0.8-3-1.6-3.8c-0.8-0.8-2-1.2-3.4-1.2c-1.2,0-2.1,0.3-2.7,0.8c-0.6,0.5-0.9,1.2-0.9,2c0,0.6,0.1,1.1,0.4,1.5
	c0.3,0.5,1.5,0.9,3.6,1.3c5.2,1,8.9,2.1,11.1,3.2c2.2,1.1,3.9,2.4,4.9,4c1,1.6,1.5,3.4,1.5,5.3c0,2.3-0.7,4.4-2.1,6.4
	c-1.4,1.9-3.3,3.4-5.7,4.4c-2.5,1-5.6,1.5-9.3,1.5c-6.6,0-11.1-1.2-13.6-3.5C406.4,137,405,134,404.7,130.5"/>
<path class="st0" d="M255.1,168.6l-108.6,38.2l17.2,142.3l91.5,50.3l92-51l17.2-142.3L255.1,168.6z M335.6,340.2l-80.4,44.5
	l-80-43.9l-15-124.3l94.8-33.4l95.5,32.8L335.6,340.2z"/>
<path class="st0" d="M235.4,283.1h20l1.1,0h22l-22.9-48L235.4,283.1 M255.4,303.3h-29l-13.6,34.1l-25.3,0.5l67.9-151.1v0l0,0v0l0,0
	l71.1,151.6l-24.2-0.4l-14.9-34.5H255.4L255.4,303.3z"/>
<path class="st0" d="M279.3,284.3L255,236.1l-20,47.4h19.8L279.3,284.3 M282,290.7l-27.2,12.7h-28.6l-13.5,33.7l-25,0.5l67.1-149.4
	L282,290.7z"/>
<polyline class="st0" points="254.8,188.2 255,236.1 277.7,283.5 254.9,283.5 254.8,303.4 286.3,303.4 301.1,337.6 325,338 
	254.8,188.2 "/>
</svg>
