<?xml version="1.0" encoding="utf-8"?>
<!-- Generator: Adobe Illustrator 19.2.1, SVG Export Plug-In . SVG Version: 6.00 Build 0)  -->
<svg version="1.1" id="Layer_1" xmlns="http://www.w3.org/2000/svg" xmlns:xlink="http://www.w3.org/1999/xlink" x="0px" y="0px"
	 viewBox="0 0 512 512" style="enable-background:new 0 0 512 512;" xml:space="preserve">
<style type="text/css">
	.st0{fill:#FFFFFF;}
</style>
<path class="st0" d="M109.4,141.8h7.2c2.4,0,4.1-0.4,5.1-1.2c1-0.8,1.5-1.8,1.5-3.2c0-1.2-0.5-2.2-1.5-3c-1-0.7-2.7-1.1-5.2-1.1
	h-7.2V141.8 M109.4,125h6.1c2.2,0,3.7-0.3,4.6-0.9c0.9-0.6,1.3-1.5,1.3-2.7c0-1.1-0.4-2-1.3-2.6c-0.9-0.6-2.4-0.9-4.5-0.9h-6.2
	C109.4,117.8,109.4,125,109.4,125z M96.2,108.8h25.3c4.2,0,7.5,1,9.7,3c2.3,2,3.4,4.5,3.4,7.4c0,2.5-0.8,4.6-2.4,6.3
	c-1.1,1.2-2.6,2.1-4.7,2.8c3.1,0.8,5.3,2.1,6.7,4c1.4,1.9,2.2,4.2,2.2,7.1c0,2.3-0.5,4.4-1.6,6.2c-1,1.8-2.5,3.3-4.3,4.4
	c-1.1,0.7-2.8,1.2-5.1,1.5c-3,0.4-5,0.6-6,0.6H96.2V108.8z"/>
<path class="st0" d="M153.2,136.4c0,2.9,0.5,5,1.6,6.4c1.1,1.4,2.4,2.1,4.1,2.1c1.7,0,3-0.7,4.1-2c1.1-1.4,1.6-3.5,1.6-6.5
	c0-2.8-0.5-4.9-1.6-6.2c-1.1-1.4-2.4-2-4-2c-1.7,0-3.1,0.7-4.2,2.1C153.7,131.5,153.2,133.6,153.2,136.4 M141.2,136.5
	c0-4.7,1.6-8.6,4.8-11.7c3.2-3.1,7.5-4.6,12.9-4.6c6.2,0,10.8,1.8,14,5.4c2.5,2.9,3.8,6.5,3.8,10.7c0,4.8-1.6,8.7-4.7,11.7
	c-3.1,3-7.5,4.6-13,4.6c-5,0-9-1.3-12-3.8C143.1,145.7,141.2,141.6,141.2,136.5z"/>
<path class="st0" d="M193.4,136.4c0,2.9,0.5,5,1.6,6.4c1.1,1.4,2.4,2.1,4.1,2.1c1.7,0,3-0.7,4.1-2c1.1-1.4,1.6-3.5,1.6-6.5
	c0-2.8-0.5-4.9-1.6-6.2c-1.1-1.4-2.4-2-4-2c-1.7,0-3.1,0.7-4.2,2.1C193.9,131.5,193.4,133.6,193.4,136.4 M181.4,136.5
	c0-4.7,1.6-8.6,4.8-11.7c3.2-3.1,7.5-4.6,12.9-4.6c6.2,0,10.8,1.8,14,5.4c2.5,2.9,3.8,6.5,3.8,10.7c0,4.8-1.6,8.7-4.7,11.7
	c-3.1,3-7.5,4.6-13,4.6c-5,0-9-1.3-12-3.8C183.3,145.7,181.4,141.6,181.4,136.5z"/>
<path class="st0" d="M237.2,108.8v12h6.6v9h-6.6v11.3c0,1.4,0.1,2.3,0.4,2.7c0.4,0.7,1.1,1,2.1,1c0.9,0,2.2-0.3,3.8-0.8l0.9,7.7
	c-3,0.6-5.8,0.9-8.4,0.9c-3,0-5.2-0.4-6.6-1.1c-1.4-0.7-2.5-1.9-3.2-3.4c-0.7-1.5-1-4-1-7.4v-10.8H221v-9h4.2V115L237.2,108.8"/>
<path class="st0" d="M247.4,143.6l12-1.2c0.4,1.3,1,2.2,1.8,2.8c0.8,0.6,1.8,0.8,3.1,0.8c1.4,0,2.5-0.3,3.3-1
	c0.6-0.5,0.9-1.1,0.9-1.9c0-0.8-0.2-1.5-0.7-1.9c-0.4-0.3-1.9-0.7-4.7-1.2c-4.1-0.7-7-1.4-8.6-2c-1.6-0.6-3-1.7-4.1-3.1
	c-1.1-1.5-1.7-3.1-1.7-5c0-2,0.6-3.8,1.8-5.3c1.2-1.5,2.8-2.6,4.9-3.3s4.9-1.1,8.4-1.1c3.7,0,6.4,0.3,8.2,0.9
	c1.8,0.6,3.2,1.5,4.4,2.7c1.2,1.2,2.2,2.8,2.9,4.9l-12,1.2c-0.3-1-0.7-1.7-1.3-2.1c-0.8-0.6-1.8-0.9-3-0.9c-1.2,0-2.1,0.2-2.6,0.7
	c-0.6,0.5-0.8,1-0.8,1.7c0,0.7,0.4,1.3,1.1,1.7c0.7,0.4,2.4,0.7,5,1c4,0.4,6.9,1.1,8.9,1.8c1.9,0.8,3.4,1.9,4.4,3.4
	c1,1.5,1.5,3.1,1.5,4.8c0,1.8-0.5,3.5-1.6,5.2c-1.1,1.7-2.8,3-5.1,4c-2.3,1-5.5,1.5-9.5,1.5c-5.7,0-9.7-0.8-12.1-2.3
	C249.6,148.7,248.1,146.5,247.4,143.6"/>
<path class="st0" d="M300.2,108.8v12h6.6v9h-6.6v11.3c0,1.4,0.1,2.3,0.4,2.7c0.4,0.7,1.1,1,2.1,1c0.9,0,2.2-0.3,3.8-0.8l0.9,7.7
	c-3,0.6-5.8,0.9-8.4,0.9c-3,0-5.2-0.4-6.6-1.1c-1.4-0.7-2.5-1.9-3.2-3.4c-0.7-1.5-1-4-1-7.4v-10.8H284v-9h4.2V115L300.2,108.8"/>
<path class="st0" d="M312.2,120.8h11.2v5.4c1.1-2.3,2.2-3.8,3.3-4.7c1.1-0.9,2.6-1.3,4.3-1.3c1.8,0,3.7,0.5,5.8,1.6l-3.7,8.9
	c-1.4-0.6-2.5-0.9-3.4-0.9c-1.6,0-2.8,0.6-3.7,1.9c-1.2,1.8-1.9,5.1-1.9,10V152h-12L312.2,120.8"/>
<path class="st0" d="M361.1,137.6c-1.6,0.6-3.2,1-4.9,1.5c-2.3,0.6-3.8,1.2-4.4,1.8c-0.6,0.6-0.9,1.3-0.9,2.1c0,0.9,0.3,1.6,0.9,2.2
	c0.6,0.6,1.5,0.8,2.7,0.8c1.3,0,2.4-0.3,3.5-0.9c1.1-0.6,1.9-1.4,2.3-2.2c0.5-0.9,0.7-2,0.7-3.4L361.1,137.6 M352.1,131.6l-12-1.2
	c0.4-2.1,1-3.8,1.8-5c0.8-1.2,2-2.3,3.5-3.2c1.1-0.6,2.6-1.1,4.5-1.5s3.9-0.5,6.1-0.5c3.5,0,6.4,0.2,8.5,0.6
	c2.1,0.4,3.9,1.2,5.4,2.5c1,0.9,1.8,2.1,2.4,3.7c0.6,1.6,0.9,3.1,0.9,4.6v13.7c0,1.5,0.1,2.6,0.3,3.4c0.2,0.8,0.6,1.9,1.2,3.2h-11.5
	c-0.5-0.8-0.8-1.4-0.9-1.9c-0.1-0.4-0.3-1.1-0.4-2c-1.5,1.5-3.1,2.6-4.6,3.2c-2.1,0.9-4.5,1.3-7.2,1.3c-3.6,0-6.4-0.8-8.3-2.5
	c-1.9-1.7-2.8-3.8-2.8-6.2c0-2.3,0.7-4.2,2-5.7c1.4-1.5,3.9-2.6,7.5-3.3c4.4-0.9,7.2-1.5,8.5-1.8c1.3-0.4,2.7-0.8,4.1-1.4
	c0-1.3-0.3-2.3-0.8-2.8c-0.5-0.5-1.5-0.8-2.8-0.8c-1.7,0-3,0.3-3.8,0.9C353,129.4,352.5,130.3,352.1,131.6z"/>
<path class="st0" d="M392.2,136.6c0,2.8,0.5,4.9,1.5,6.2c1,1.3,2.3,2,3.9,2c1.4,0,2.5-0.6,3.5-1.9c0.9-1.3,1.4-3.5,1.4-6.6
	c0-2.9-0.5-4.9-1.5-6.3c-1-1.3-2.1-2-3.5-2c-1.5,0-2.8,0.7-3.8,2C392.7,131.4,392.2,133.6,392.2,136.6 M380.3,164v-43.2h11.1v4.1
	c1.5-1.7,3-2.9,4.2-3.5c1.7-0.8,3.7-1.2,5.8-1.2c4.2,0,7.4,1.6,9.6,4.8c2.3,3.2,3.4,7.1,3.4,11.8c0,5.2-1.2,9.1-3.7,11.8
	c-2.5,2.7-5.6,4.1-9.4,4.1c-1.8,0-3.5-0.3-5-0.8c-1.5-0.5-2.9-1.4-4.1-2.4V164H380.3z"/>
<path class="st0" d="M208.1,305.6v57.9h42.7c16.6,0,27.2-0.4,31.6-1.3c6.9-1.2,12.5-4.1,16.8-8.6s6.5-10.7,6.5-18.4
	c0-6.5-1.7-12-5-16.5c-3.3-4.5-8.1-7.8-14.4-9.9c-6.3-2.1-19.9-3.1-40.9-3.1L208.1,305.6 M208.1,217.2V269h30.1
	c17.9,0,29-0.3,33.3-0.8c7.9-0.9,14-3.6,18.5-8c4.5-4.4,6.7-10.3,6.7-17.5c0-6.9-1.9-12.5-5.8-16.9c-3.9-4.3-9.6-7-17.3-7.9
	c-4.6-0.5-17.6-0.8-39.2-0.8L208.1,217.2L208.1,217.2z M166.7,180.7h86.9c17.2,0,30,0.7,38.5,2.2c8.5,1.5,16,4.5,22.7,9.1
	c6.7,4.6,12.2,10.8,16.7,18.5c4.4,7.7,6.7,16.4,6.7,26c0,10.4-2.6,19.9-7.7,28.6c-5.1,8.7-12.1,15.2-20.9,19.5
	c12,3.8,21.3,10.4,27.8,19.7c6.5,9.3,9.7,20.2,9.7,32.7c0,9.9-2.3,19.5-6.8,28.8c-4.6,9.3-10.8,16.8-18.7,22.4
	c-7.9,5.6-17.6,9-29.1,10.3c-7.2,0.8-24.7,1.3-52.4,1.5h-73.2L166.7,180.7L166.7,180.7z"/>
</svg>
