<?xml version="1.0" encoding="utf-8"?>
<!-- Generator: Adobe Illustrator 19.2.1, SVG Export Plug-In . SVG Version: 6.00 Build 0)  -->
<svg version="1.1" id="Capa_1" xmlns="http://www.w3.org/2000/svg" xmlns:xlink="http://www.w3.org/1999/xlink" x="0px" y="0px"
	 viewBox="0 0 100 100" style="enable-background:new 0 0 100 100;" xml:space="preserve">
<style type="text/css">
	.st0{fill:#FFFFFF;}
</style>
<g>
	<polygon class="st0" points="28.4,68.7 15,61 15,39.2 28.4,31.5 28.4,30.2 48,18.9 33.8,10.7 3.3,30.4 3.3,69.8 33.8,89.5 
		48.3,81.1 28.4,69.6 	"/>
	<polygon class="st0" points="48,36.5 52.7,39.2 52.7,61 48.3,63.5 62.5,71.6 68,68.5 68,31.3 62.5,28.2 	"/>
	<polygon class="st0" points="43.7,39 48,36.5 33.8,28.4 28.4,31.5 28.4,68.7 33.8,71.8 48.3,63.5 43.7,60.8 	"/>
	<polygon class="st0" points="62.5,10.5 48,18.9 68,30.4 68,31.3 81.4,39 81.4,60.8 68,68.5 68,69.8 48.3,81.1 62.5,89.3 96.7,69.6 
		96.7,30.2 	"/>
</g>
</svg>
