<?xml version="1.0" encoding="utf-8"?>
<!-- Generator: Adobe Illustrator 20.1.0, SVG Export Plug-In . SVG Version: 6.00 Build 0)  -->
<svg version="1.1" xmlns="http://www.w3.org/2000/svg" xmlns:xlink="http://www.w3.org/1999/xlink" x="0px" y="0px"
	 viewBox="0 0 733 863.3" style="enable-background:new 0 0 733 863.3;" xml:space="preserve">
<style type="text/css">
	.st0{display:none;}
	.st1{display:inline;fill:#FFFCDC;}
	.st2{fill:#FFFFFF;}
	.st3{fill:#009245;}
	.st4{fill:#222221;}
	.st5{stroke:#262424;stroke-width:16;stroke-miterlimit:10;}
	.st6{fill:none;stroke:#262424;stroke-width:16;stroke-miterlimit:10;}
</style>
<g id="Capa_5" class="st0">
	<rect x="-560.8" y="-2244.3" class="st1" width="1823.6" height="1816"/>
</g>
<g id="Capa_3">
	<path class="st2" d="M587-1336.7c0,0,19.1,314.2-236,309.3c-273-5.3-238.2-309.3-238.2-309.3v-307H587V-1336.7z"/>
</g>
<g id="Capa_2">
</g>
<g id="Capa_1">
	<g>
		<path class="st3" d="M564-1405.7H369.7l97.1-168.3L564-1405.7z M407.3-1427.4h119.1l-59.5-103.1L407.3-1427.4z"/>
		<polygon class="st3" points="331.3,-1405.7 137,-1405.7 234.2,-1573.9 274.6,-1503.9 255.8,-1493.1 234.2,-1530.5 174.6,-1427.4 
			293.7,-1427.4 272.2,-1464.7 291,-1475.5 		"/>
		<path class="st3" d="M279.7-1524.5"/>
		<path class="st3" d="M323.5-1459.7"/>
		<polygon class="st3" points="370.7,-1574.5 370.7,-1552.8 410,-1552.8 383.3,-1506.7 317.5,-1506.7 290.9,-1552.8 331.2,-1552.8 
			331.2,-1574.5 253.3,-1574.5 322.7,-1454.3 341.5,-1465.1 330,-1484.9 370.8,-1484.9 359.3,-1465.1 378.1,-1454.3 447.6,-1574.5 
					"/>
	</g>
	<g>
		<path class="st3" d="M278.1-1248h-4.9c-1.4,0-2.8,0.6-3.8,1.6l-12.8,12.6c-1.2,1.2-2.8,1.7-4.4,1.5l38.2-66.2h-44.4v12.5h22.7
			l-15.4,26.7h-38l-15.4-26.7h23.3v-12.5h-45l38.3,66.3c-1.3,0-2.7-0.6-3.7-1.6l-12.8-12.6c-1-1-2.4-1.6-3.8-1.6H191
			c-3,0-5.5,2.5-5.5,5.5v4.8c0,1.4,0.6,2.8,1.6,3.9l9.4,9.4c1,1,2.4,1.6,3.9,1.6h9l-0.1,0.1v11.1c0,0.9,0.2,1.7,0.6,2.5l10.3,20.4h0
			l-10.2,51.4c-0.4,1.8,0.2,3.6,1.5,4.9l23.1,23.1h0.2l23.1-23.1c1.3-1.3,1.9-3.1,1.5-4.9l-10.2-51.4l10.2-20.5
			c0.4-0.8,0.6-1.6,0.6-2.4v-5.7c0-3,2.5-5.5,5.5-5.5h3.4c1.5,0,2.9-0.6,3.9-1.6l9.4-9.4c1-1,1.6-2.4,1.6-3.9v-4.8
			C283.6-1245.6,281.1-1248,278.1-1248z M245.9-1246.8l-6.5,11.3h-10.5l-6.5-11.3H245.9z M215.9-1224.2l13.1,12.6
			C213.5-1211.6,215.9-1224.2,215.9-1224.2z M239.8-1192.4l-3.8,3.8c-1.1,1-2.8,1-3.8,0l-3.7-3.8c-1.5-1.5-0.7-4.2,1.5-4.5l3.8-0.6
			c0.3,0,0.6,0,0.9,0l3.7,0.6C240.5-1196.6,241.4-1193.9,239.8-1192.4z M239.3-1211.6l13.1-12.6
			C252.5-1224.2,254.9-1211.6,239.3-1211.6z"/>
	</g>
	<path class="st3" d="M596-1288.1v-363.5h-48l36.4-37.4l36.6,36.7l-5.9,6l14.8,14.9l29.7-29.7l-14.8-14.8l-5.9,5.9l-37.8-37.8
		c1.8-0.3,3.6-1.2,5-2.6l82.2-82.2l7.9,7.9l21.8-21.8l-47.5-47.5l-21.8,21.8l6.9,6.9l-82.2,82.2c-1.4,1.4-2.3,3.2-2.6,5l-36.8-36.8
		l5.9-5.9l-14.8-14.8l-29.7,29.7l14.8,14.8l5.9-5.9l35.6,35.4l-72,70H221.5l-71.3-69l36.6-36.5l5.9,6l14.8-14.8l-29.7-29.7
		l-14.8,14.8l5.9,5.9l-37.8,37.8c-0.3-1.8-1.2-3.6-2.6-5l-82.2-82.2l7.9-7.9L32.5-1854l-47.5,47.5l21.8,21.8l6.9-6.9l82.2,82.2
		c1.4,1.4,3.2,2.3,5,2.6L64.1-1670l-5.9-5.9l-14.8,14.8l29.7,29.7l14.8-14.8l-5.9-5.9l35.6-35.8l35.6,36.4H106v364.2l-95,92.8
		l-4.5,52.1l52.2-4.7l52.9-54.7c23.7,104.5,120.6,180.6,239.4,180.6c119.1,0,216.1-76.4,239.6-181.2l53.9,55.4l52.1,4.7l-4.5-52.1
		L596-1288.1z M122-1252v-76.7h220.5l0.5,291.2C218.7-1041.3,122-1134.2,122-1252z M434-1136.7h-31v-135h26v69h5V-1136.7z
		 M475-1136.7h-34v-66h5v-69h24v69h5V-1136.7z M513-1136.7h-30v-66h4v-69h26V-1136.7z M580-1344.7H122v-291h458V-1344.7z"/>
	<g>
		<g>
			<path class="st3" d="M367.5-1753.6l30.6-58.3l-41.9,8.8v9.4h19.1l-16,31.7h-16.5l-16-31.7h19.6v-9.4l-42.4-8.8l30.6,58.3
				l-8.3,74.5c0,0-20.8-8.7-35.3-44.5c0,0,0-87.9,0-102.5s11.9-58.6,60.2-58.6c48.3,0,60.2,43.9,60.2,58.6s0,102.5,0,102.5
				c-14.6,35.8-34.3,44.5-34.3,44.5L367.5-1753.6z"/>
		</g>
		<polygon class="st3" points="335.9,-1679.7 366.1,-1679.7 359.5,-1753.7 342.2,-1753.7 		"/>
	</g>
	<path class="st4" d="M-1505.5-1222.3l237-0.3c0,0,36.1,307.3-236.6,307.3C-1505-1097.6-1505.5-1222.3-1505.5-1222.3"/>
	<g>
		<path d="M-1292-1291.7h-194.3l97.1-168.3L-1292-1291.7z M-1448.7-1313.4h119.1l-59.5-103.1L-1448.7-1313.4z"/>
		<polygon points="-1524.7,-1291.7 -1719,-1291.7 -1621.8,-1459.9 -1581.4,-1389.9 -1600.2,-1379.1 -1621.8,-1416.5 
			-1681.4,-1313.4 -1562.3,-1313.4 -1583.8,-1350.7 -1565,-1361.5 		"/>
		<path d="M-1576.3-1410.5"/>
		<path d="M-1532.5-1345.7"/>
		<polygon points="-1485.3,-1460.5 -1485.3,-1438.8 -1446,-1438.8 -1472.7,-1392.7 -1538.5,-1392.7 -1565.1,-1438.8 
			-1524.8,-1438.8 -1524.8,-1460.5 -1602.7,-1460.5 -1533.3,-1340.3 -1514.5,-1351.1 -1526,-1370.9 -1485.2,-1370.9 
			-1496.7,-1351.1 -1477.9,-1340.3 -1408.4,-1460.5 		"/>
	</g>
	<g>
		<path d="M-1577.9-1134h-4.9c-1.4,0-2.8,0.6-3.8,1.6l-12.8,12.6c-1.2,1.2-2.8,1.7-4.4,1.5l38.2-66.2h-44.4v12.5h22.7l-15.4,26.7
			h-38l-15.4-26.7h23.3v-12.5h-45l38.3,66.3c-1.3,0-2.7-0.6-3.7-1.6l-12.8-12.6c-1-1-2.4-1.6-3.8-1.6h-4.9c-3,0-5.5,2.5-5.5,5.5v4.8
			c0,1.4,0.6,2.8,1.6,3.9l9.4,9.4c1,1,2.4,1.6,3.9,1.6h9l-0.1,0.1v11.1c0,0.9,0.2,1.7,0.6,2.5l10.3,20.4h0l-10.2,51.4
			c-0.4,1.8,0.2,3.6,1.5,4.9l23.1,23.1h0.2l23.1-23.1c1.3-1.3,1.9-3.1,1.5-4.9l-10.2-51.4l10.2-20.5c0.4-0.8,0.6-1.6,0.6-2.4v-5.7
			c0-3,2.5-5.5,5.5-5.5h3.4c1.5,0,2.9-0.6,3.9-1.6l9.4-9.4c1-1,1.6-2.4,1.6-3.9v-4.8C-1572.4-1131.6-1574.9-1134-1577.9-1134z
			 M-1610.1-1132.8l-6.5,11.3h-10.5l-6.5-11.3H-1610.1z M-1640.1-1110.2l13.1,12.6C-1642.5-1097.6-1640.1-1110.2-1640.1-1110.2z
			 M-1616.2-1078.4l-3.8,3.8c-1.1,1-2.8,1-3.8,0l-3.7-3.8c-1.5-1.5-0.7-4.2,1.5-4.5l3.8-0.6c0.3,0,0.6,0,0.9,0l3.7,0.6
			C-1615.5-1082.6-1614.6-1079.9-1616.2-1078.4z M-1616.7-1097.6l13.1-12.6C-1603.5-1110.2-1601.1-1097.6-1616.7-1097.6z"/>
	</g>
	<g>
		<g>
			<polygon class="st2" points="-1427,-1088.7 -1427,-1157.7 -1453,-1157.7 -1453,-1022.7 -1422,-1022.7 -1422,-1088.7 			"/>
		</g>
		<g>
			<polygon class="st2" points="-1369,-1157.7 -1369,-1088.7 -1373,-1088.7 -1373,-1022.7 -1343,-1022.7 -1343,-1157.7 			"/>
		</g>
		<g>
			<polygon class="st2" points="-1386,-1088.7 -1386,-1157.7 -1410,-1157.7 -1410,-1088.7 -1415,-1088.7 -1415,-1022.7 
				-1381,-1022.7 -1381,-1088.7 			"/>
		</g>
	</g>
	<line class="st5" x1="-1505.5" y1="-1216.1" x2="-1505" y2="-915.4"/>
	<g>
		<g>
			<path d="M-1492.2-1620l23.6-45l-32.4,6.8v7.3h14.7l-12.4,26.8h-12.8l-12.3-26.8h15.1v-7.3l-32.8-6.8l23.6,45l-4.9,57.6
				c0,0-17.6-6.7-28.9-34.4c0,0,0-67.9,0-79.2c0-11.3,9.2-45.3,46.5-45.3s46.5,33.9,46.5,45.3c0,11.3,0,79.2,0,79.2
				c-11.3,27.7-28.1,34.4-28.1,34.4L-1492.2-1620z"/>
		</g>
		<polygon points="-1516.6,-1562.7 -1493.4,-1562.7 -1498.4,-1619.7 -1511.8,-1619.7 		"/>
	</g>
	<path class="st6" d="M-1741.6-1529.3v391.3c0,126.9,105.9,222.6,236.6,222.6s236.6-95.7,236.6-222.6v-391.3H-1741.6z"/>
	<g>
		<path d="M-1842.3-1677.7l82.2,82.2c1.4,1.4,3.2,2.3,5,2.6l-36.8,36.8l-5.9-5.9l-14.8,14.8l29.7,29.7l14.8-14.8l-5.9-5.9l35.6-35.8
			l43.4,44.4h68.8l-79.5-77l36.6-36.5l5.9,6l14.8-14.8l-29.7-29.7l-14.8,14.8l5.9,5.9l-37.8,37.8c-0.3-1.8-1.2-3.6-2.6-5l-82.2-82.2
			l7.9-7.9l-21.8-21.8l-47.5,47.5l21.8,21.8L-1842.3-1677.7z"/>
		<path d="M-1339.8-1643.1l35.6,35.4l-80.2,78h68.7l44.2-45.4l36.6,36.7l-5.9,6l14.8,14.9l29.7-29.7l-14.8-14.8l-5.9,5.9l-37.8-37.8
			c1.8-0.3,3.6-1.2,5-2.6l82.2-82.2l7.9,7.9l21.8-21.8l-47.5-47.5l-21.8,21.8l6.9,6.9l-82.2,82.2c-1.4,1.4-2.3,3.2-2.6,5l-36.8-36.8
			l5.9-5.9l-14.8-14.8l-29.7,29.7l14.8,14.8L-1339.8-1643.1z"/>
		<path d="M-1268-1181.9v44c0,14.5-1.6,28.7-4.3,42.3l60.7,62.4l52.1,4.7l-4.5-52.1L-1268-1181.9z"/>
		<path d="M-1742-1138v-43.3l-103,100.6l-4.5,52.1l52.2-4.7l59.8-61.8C-1740.4-1108.8-1742-1123.2-1742-1138z"/>
	</g>
	<line class="st6" x1="-1735" y1="-1222.7" x2="-1276" y2="-1222.7"/>
	<path class="st2" d="M602,548c0,0,19.1,314.2-236,309.3C93,852,127.8,548,127.8,548V241H602V548z"/>
	<g>
		<path class="st3" d="M579,479H384.7l97.1-168.3L579,479z M422.3,457.3h119.1l-59.5-103.1L422.3,457.3z"/>
		<polygon class="st3" points="346.3,479 152,479 249.2,310.7 289.6,380.8 270.8,391.6 249.2,354.1 189.6,457.3 308.7,457.3 
			287.2,420 306,409.1 		"/>
		<path class="st3" d="M294.7,360.2"/>
		<path class="st3" d="M338.5,425"/>
		<polygon class="st3" points="385.7,310.2 385.7,331.9 425,331.9 398.3,378 332.5,378 305.9,331.9 346.2,331.9 346.2,310.2 
			268.3,310.2 337.7,430.4 356.5,419.5 345,399.7 385.8,399.7 374.3,419.5 393.1,430.4 462.6,310.2 		"/>
	</g>
	<g>
		<path class="st3" d="M293.1,636.6h-4.9c-1.4,0-2.8,0.6-3.8,1.6l-12.8,12.6c-1.2,1.2-2.8,1.7-4.4,1.5l38.2-66.2h-44.4v12.5h22.7
			l-15.4,26.7h-38l-15.4-26.7h23.3v-12.5h-45l38.3,66.3c-1.3,0-2.7-0.6-3.7-1.6l-12.8-12.6c-1-1-2.4-1.6-3.8-1.6H206
			c-3,0-5.5,2.5-5.5,5.5v4.8c0,1.4,0.6,2.8,1.6,3.9l9.4,9.4c1,1,2.4,1.6,3.9,1.6h9l-0.1,0.1v11.1c0,0.9,0.2,1.7,0.6,2.5l10.3,20.4h0
			l-10.2,51.4c-0.4,1.8,0.2,3.6,1.5,4.9l23.1,23.1h0.2l23.1-23.1c1.3-1.3,1.9-3.1,1.5-4.9L264,695.9l10.2-20.5
			c0.4-0.8,0.6-1.6,0.6-2.4v-5.7c0-3,2.5-5.5,5.5-5.5h3.4c1.5,0,2.9-0.6,3.9-1.6l9.4-9.4c1-1,1.6-2.4,1.6-3.9v-4.8
			C298.6,639.1,296.1,636.6,293.1,636.6z M260.9,637.9l-6.5,11.3h-10.5l-6.5-11.3H260.9z M230.9,660.4l13.1,12.6
			C228.5,673.1,230.9,660.4,230.9,660.4z M254.8,692.3l-3.8,3.8c-1.1,1-2.8,1-3.8,0l-3.7-3.8c-1.5-1.5-0.7-4.2,1.5-4.5l3.8-0.6
			c0.3,0,0.6,0,0.9,0l3.7,0.6C255.5,688.1,256.4,690.8,254.8,692.3z M254.3,673.1l13.1-12.6C267.5,660.4,269.9,673.1,254.3,673.1z"
			/>
	</g>
	<path class="st3" d="M611,596.5V233.3h-48l36.4-37.5l36.6,36.6l-5.9,5.9l14.8,14.8l29.7-29.7l-14.8-14.8l-5.9,5.9l-37.8-37.8
		c1.8-0.3,3.6-1.2,5-2.6L703.3,92l7.9,7.9L733,78.1l-47.5-47.5l-21.8,21.8l6.9,6.9l-82.2,82.2c-1.4,1.4-2.3,3.2-2.6,5L549,109.8
		l5.9-5.9L540.1,89l-29.7,29.7l14.8,14.8l5.9-5.9l35.6,35.6l-72,70.2H236.5l-71.3-69.2l36.6-36.6l5.9,5.9l14.8-14.8L192.9,89
		l-14.8,14.8l5.9,5.9l-37.8,37.8c-0.3-1.8-1.2-3.6-2.6-5L61.3,60.3l7.9-7.9L47.5,30.6L0,78.1l21.8,21.8l6.9-6.9l82.2,82.2
		c1.4,1.4,3.2,2.3,5,2.6l-36.8,36.8l-5.9-5.9l-14.8,14.8L88,253.2l14.8-14.8l-5.9-5.9l35.6-35.6l35.6,36.5H121v363.8l-95,92.8
		l-4.5,52.1l52.2-4.7l52.9-54.7C150.3,787.2,247.1,863.3,366,863.3c119.1,0,216.1-76.4,239.6-181.2l53.9,55.4l52.1,4.7l-4.5-52.1
		L611,596.5z M137,632.7v-76.4h220.5l0.5,291C233.7,843.5,137,750.5,137,632.7z M449,748.3h-31v-135h26v69h5V748.3z M490,748.3h-34
		v-66h5v-69h24v69h5V748.3z M528,748.3h-30v-66h4v-69h26V748.3z M595,540.3H137v-291h458V540.3z"/>
	<g>
		<g>
			<path class="st3" d="M382.5,131.1l30.6-58.3l-41.9,8.8V91h19.1l-16,31.7h-16.5l-16-31.7h19.6v-9.4l-42.4-8.8l30.6,58.3l-8.3,74.5
				c0,0-20.8-8.7-35.3-44.5c0,0,0-87.9,0-102.5S317.7,0,366,0c48.3,0,60.2,43.9,60.2,58.6s0,102.5,0,102.5
				c-14.6,35.8-34.3,44.5-34.3,44.5L382.5,131.1z"/>
		</g>
		<polygon class="st3" points="350.9,205.3 381.1,205.3 374.5,131.3 357.2,131.3 		"/>
	</g>
</g>
</svg>
