<?xml version="1.0" encoding="utf-8"?>
<!-- Generator: Adobe Illustrator 19.2.1, SVG Export Plug-In . SVG Version: 6.00 Build 0)  -->
<svg version="1.1" id="Layer_1" xmlns="http://www.w3.org/2000/svg" xmlns:xlink="http://www.w3.org/1999/xlink" x="0px" y="0px"
	 viewBox="0 0 512 512" style="enable-background:new 0 0 512 512;" xml:space="preserve">
<style type="text/css">
	.st0{fill:#FFFFFF;}
</style>
<path class="st0" d="M218.4,135.4l12.8,4c-0.9,3.7-2.3,6.8-4.2,9.3c-1.9,2.5-4.2,4.4-7,5.6c-2.8,1.3-6.4,1.9-10.7,1.9
	c-5.3,0-9.5-0.8-12.9-2.3c-3.3-1.5-6.2-4.2-8.6-8c-2.4-3.8-3.6-8.7-3.6-14.7c0-8,2.1-14.1,6.4-18.3c4.2-4.3,10.2-6.4,18-6.4
	c6.1,0,10.8,1.2,14.3,3.7c3.5,2.5,6,6.3,7.7,11.5l-13.4,2.9c-0.5-1.5-0.9-2.5-1.4-3.2c-0.8-1.1-1.8-2-3-2.6c-1.2-0.6-2.5-0.9-4-0.9
	c-3.3,0-5.9,1.3-7.7,4c-1.3,2-2,5.1-2,9.3c0,5.2,0.8,8.8,2.5,10.7c1.7,1.9,4,2.9,7,2.9c2.9,0,5.2-0.8,6.7-2.4
	C216.6,140.8,217.7,138.5,218.4,135.4"/>
<path class="st0" d="M235.2,139.7l14.8-0.9c0.3,2.3,0.9,4,1.8,5.2c1.4,1.9,3.5,2.9,6.2,2.9c2,0,3.5-0.5,4.6-1.5
	c1.1-1,1.6-2.2,1.6-3.5c0-1.3-0.5-2.4-1.4-3.4c-1-1-3.4-1.9-7.4-2.8c-6.5-1.5-11.1-3.4-13.9-5.8c-2.8-2.4-4.2-5.5-4.2-9.3
	c0-2.5,0.7-4.8,2.2-7c1.4-2.2,3.6-3.9,6.5-5.2c2.9-1.3,6.8-1.9,11.8-1.9c6.2,0,10.8,1.2,14.1,3.5c3.2,2.3,5.2,6,5.8,11.1l-14.8,0.9
	c-0.3-2.3-1-4.1-2-5.1c-1-1.1-2.4-1.6-4.2-1.6c-1.5,0-2.6,0.4-3.4,1.1c-0.8,0.7-1.1,1.6-1.1,2.7c0,0.8,0.2,1.5,0.5,2.1
	c0.3,0.6,1.8,1.2,4.4,1.8c6.5,1.4,11.1,2.8,13.9,4.3c2.8,1.4,4.8,3.2,6.1,5.4c1.3,2.1,1.9,4.5,1.9,7.2c0,3.1-0.9,5.9-2.6,8.6
	c-1.7,2.6-4.1,4.6-7.2,5.9c-3.1,1.4-6.9,2-11.6,2c-8.2,0-13.9-1.6-17-4.7C237.4,148.5,235.6,144.5,235.2,139.7"/>
<path class="st0" d="M283.6,139.7l14.8-0.9c0.3,2.3,0.9,4,1.8,5.2c1.4,1.9,3.5,2.9,6.1,2.9c2,0,3.5-0.5,4.6-1.5
	c1.1-1,1.6-2.2,1.6-3.5c0-1.3-0.5-2.4-1.4-3.4c-1-1-3.4-1.9-7.4-2.8c-6.5-1.5-11.1-3.4-13.9-5.8c-2.8-2.4-4.2-5.5-4.2-9.3
	c0-2.5,0.7-4.8,2.2-7c1.4-2.2,3.6-3.9,6.5-5.2c2.9-1.3,6.8-1.9,11.8-1.9c6.2,0,10.8,1.2,14.1,3.5c3.2,2.3,5.2,6,5.8,11.1l-14.8,0.9
	c-0.3-2.3-1-4.1-2-5.1c-1-1.1-2.4-1.6-4.2-1.6c-1.5,0-2.6,0.4-3.4,1.1c-0.8,0.7-1.1,1.6-1.1,2.7c0,0.8,0.2,1.5,0.5,2.1
	c0.3,0.6,1.8,1.2,4.4,1.8c6.5,1.4,11.1,2.8,13.9,4.3c2.8,1.4,4.8,3.2,6.1,5.4c1.3,2.1,1.9,4.5,1.9,7.2c0,3.1-0.9,5.9-2.6,8.6
	c-1.7,2.6-4.1,4.6-7.2,5.9c-3.1,1.4-6.9,2-11.6,2c-8.2,0-13.9-1.6-17-4.7C285.7,148.5,284,144.5,283.6,139.7"/>
<polyline class="st0" points="171.5,174 163.5,213.9 326.1,213.9 321,239.7 158.3,239.7 150.4,279.7 313,279.7 303.9,325.3 
	238.4,347 181.6,325.3 185.5,305.5 145.6,305.5 136,353.4 230,389.4 338.3,353.4 352.6,281.3 355.5,266.9 374,174 171.5,174 "/>
</svg>
