<?xml version="1.0" encoding="utf-8"?>
<!-- Generator: Adobe Illustrator 19.2.1, SVG Export Plug-In . SVG Version: 6.00 Build 0)  -->
<svg version="1.1" id="Capa_1" xmlns="http://www.w3.org/2000/svg" xmlns:xlink="http://www.w3.org/1999/xlink" x="0px" y="0px"
	 viewBox="0 0 800 800" style="enable-background:new 0 0 800 800;" xml:space="preserve">
<style type="text/css">
	.st0{fill:#FFFFFF;}
</style>
<g>
	<g>
		<path class="st0" d="M672.8,136.6l-1.9-6.9l-543,543l2.1,7.8l-1.5,1.5l-1.8-8.1l-1.5,1.5l1.8,8.1l-1.5,1.5l-1.8-8.1l-1.5,1.5
			l1.8,8.1l-1.5,1.5l-1.8-8.1l-1.4,1.4l-1.4-1.4l1.4-1.4l-8.8-2.5l1.5-1.5l8.8,2.5l1.5-1.5l-8.8-2.5l1.5-1.5l8.8,2.5l1.5-1.5
			l-8.8-2.5l1.5-1.5l7.9,2l542.8-542.8l-6.4-1.6l18.2-7.8L672.8,136.6z"/>
	</g>
</g>
<g>
	<g>
		<path class="st0" d="M135.2,126.1l-6.6,1.6l542.9,542.9l7.8-2.1l1.5,1.5l-8.8,2.5l1.5,1.5l8.8-2.5l1.5,1.5l-8.8,2.5l1.5,1.5
			l8.8-2.5l1.5,1.5l-8.8,2.5l1.4,1.4l-1.4,1.4l-1.4-1.4l-1.8,8.1l-1.5-1.5l1.8-8.1l-1.5-1.5l-1.8,8.1l-1.5-1.5l1.8-8.1l-1.5-1.5
			l-1.8,8.1l-1.5-1.5l2-7.9L126.5,129.8l-1.8,6.6l-7.8-18.2L135.2,126.1z"/>
	</g>
</g>
</svg>
