<?xml version="1.0" encoding="utf-8"?>
<!-- Generator: Adobe Illustrator 19.2.1, SVG Export Plug-In . SVG Version: 6.00 Build 0)  -->
<svg version="1.1" id="Capa_1" xmlns="http://www.w3.org/2000/svg" xmlns:xlink="http://www.w3.org/1999/xlink" x="0px" y="0px"
	 viewBox="0 0 100 100" style="enable-background:new 0 0 100 100;" xml:space="preserve">
<style type="text/css">
	.st0{display:none;}
	.st1{display:inline;}
	.st2{fill:#2E770C;}
	.st3{fill:#2E770C;stroke:#2E770C;stroke-width:0.75;stroke-miterlimit:10;}
	.st4{fill:none;stroke:#2E770C;stroke-miterlimit:10;}
	.st5{fill:#2E770C;stroke:#2E770C;stroke-miterlimit:10;}
	.st6{fill:none;stroke:#2E770C;stroke-linecap:round;stroke-linejoin:round;stroke-miterlimit:10;}
	.st7{fill:#FFFFFF;}
</style>
<g id="Capa_1_1_" class="st0">
	<g class="st1">
		<polygon class="st2" points="28.4,68.7 15,61 15,39.2 28.4,31.5 28.4,30.2 48,18.9 33.8,10.7 3.3,30.4 3.3,69.8 33.8,89.5 
			48.3,81.1 28.4,69.6 		"/>
		<polygon class="st2" points="48,36.5 52.7,39.2 52.7,61 48.3,63.5 62.5,71.6 68,68.5 68,31.3 62.5,28.2 		"/>
		<polygon class="st2" points="43.7,39 48,36.5 33.8,28.4 28.4,31.5 28.4,68.7 33.8,71.8 48.3,63.5 43.7,60.8 		"/>
		<polygon class="st2" points="62.5,10.5 48,18.9 68,30.4 68,31.3 81.4,39 81.4,60.8 68,68.5 68,69.8 48.3,81.1 62.5,89.3 
			96.7,69.6 96.7,30.2 		"/>
	</g>
</g>
<g id="Capa_2" class="st0">
	<g class="st1">
		<rect x="27.2" y="84" class="st2" width="43.7" height="10"/>
		<polygon class="st2" points="66,7 66,17 55,17 55,7 44,7 44,17 33,17 33,7 24,7 24,30 75,30 75,7 		"/>
		<polygon class="st2" points="67.2,38.4 30.6,38.4 23.8,29.9 75.2,29.9 		"/>
		<path class="st2" d="M31,40v42h36V40H31z M56,64H43v-5.2c0-3.5,3-6.3,6.5-6.3s6.5,2.8,6.5,6.3V64z"/>
	</g>
</g>
<g id="Capa_3" class="st0">
	<g class="st1">
		<path class="st3" d="M24.3,24.7c0,0.9-0.5,1.6-1.2,1.6h-7H9c-0.7,0-1.3-0.7-1.2-1.6c0.5-6.4,4-11.4,8.3-11.4S24.5,17.3,24.3,24.7z
			"/>
		<path class="st4" d="M16,13.5h50.9c0,0,6.6,1.1,6.6,9.5s0,64.5,0,64.5H34.3c0,0-10.4-0.6-10.4-11.5c0-12.8,0.1-52.1,0.1-52.1"/>
		<path class="st2" d="M35.4,88c0,0,5.3-4.3,5.3-9c0-2,1.3-2,1.3-2h45c0,0,1.4,0,1.4,2.8S85.5,88,81.2,88S35.4,88,35.4,88z"/>
		<line class="st4" x1="32" y1="26.8" x2="65.9" y2="26.8"/>
		<line class="st4" x1="32" y1="37.4" x2="65.9" y2="37.4"/>
		<line class="st4" x1="32" y1="47.1" x2="65.9" y2="47.1"/>
		<line class="st4" x1="32" y1="57.3" x2="65.9" y2="57.3"/>
		<path class="st5" d="M86.6,66.5h-0.3c0.7,0,1.2-1.2,1.2-1.8v-0.5c0-0.7-0.5-1.7-1.2-1.7h-7.6c-0.7,0-1.3,1-1.3,1.7v0.5
			c0,0.7,0.6,1.8,1.3,1.8h-0.4c-1.2,0-2.8,2.3-2.8,3.5v3.5c0,1.2,0.9,2,2.1,2h10c1.2,0,1.9-0.9,1.9-2V70
			C89.5,68.8,87.8,66.5,86.6,66.5z"/>
		<path class="st6" d="M82.5,62.7c0,0-2.5-14.4,10.7-26.5C93.3,48.2,93.3,52.8,82.5,62.7z"/>
		<line class="st6" x1="92.8" y1="42.9" x2="90.7" y2="43.4"/>
		<line class="st6" x1="92.3" y1="46.9" x2="90.2" y2="47.2"/>
		<line class="st6" x1="91.8" y1="50.5" x2="89.6" y2="50.8"/>
	</g>
</g>
<polygon class="st7" points="8,91.5 9,78 56.4,36.3 64.3,44 22.3,91.3 "/>
<line class="st7" x1="8" y1="91.5" x2="60.2" y2="40"/>
<path class="st7" d="M79.1,48.7l-28-28c-1.8-1.8-4.7-1.7-6.5,0.1c-1.8,1.8-1.7,4.6,0,6.4c1.7,1.7,4.2,1.9,6.1,0.2L72.4,49
	c-1.6,1.9-1.5,4.5,0.2,6.2c1.8,1.8,4.7,1.7,6.4-0.1C80.8,53.4,80.8,50.5,79.1,48.7z"/>
<path class="st7" d="M84.5,19.4c-1,0-1.9-0.5-2.7-1.2c-0.7-0.7-1.2-1.6-1.3-2.6l-17.2,14l7.3,7.3L84.5,19.4z"/>
<ellipse transform="matrix(0.7071 -0.7071 0.7071 0.7071 16.1316 65.3124)" class="st7" cx="86.9" cy="13.2" rx="4.6" ry="4.6"/>
</svg>
