<?xml version="1.0" encoding="utf-8"?>
<!-- Generator: Adobe Illustrator 19.2.1, SVG Export Plug-In . SVG Version: 6.00 Build 0)  -->
<svg version="1.1" xmlns="http://www.w3.org/2000/svg" xmlns:xlink="http://www.w3.org/1999/xlink" x="0px" y="0px"
	 viewBox="0 0 568 555.1" style="enable-background:new 0 0 568 555.1;" xml:space="preserve">
<style type="text/css">
	.st0{display:none;}
	.st1{display:inline;fill:#F9F9E8;}
	.st2{fill:#FFFFFF;}
	.st3{display:inline;}
	.st4{fill:#2E770C;}
</style>
<g id="fondo" class="st0">
	<rect x="-718.5" y="-248.8" class="st1" width="1952" height="1109"/>
</g>
<g id="Capa_1">
	<g>
		<polygon class="st2" points="261.2,147.3 245.7,138.4 245.7,113.2 261.2,104.3 261.2,102.8 283.9,89.7 267.5,80.2 232.2,103 
			232.2,148.6 267.5,171.4 284.3,161.7 261.2,148.4 		"/>
		<polygon class="st2" points="283.9,110.1 289.3,113.2 289.3,138.4 284.3,141.3 300.7,150.7 307,147.1 307,104.1 300.7,100.4 		"/>
		<polygon class="st2" points="278.9,113 283.9,110.1 267.5,100.7 261.2,104.3 261.2,147.3 267.5,150.9 284.3,141.3 278.9,138.1 		
			"/>
		<polygon class="st2" points="300.7,80 283.9,89.7 307,103 307,104.1 322.5,113 322.5,138.1 307,147.1 307,148.6 284.3,161.7 
			300.7,171.2 340.2,148.4 340.2,102.8 		"/>
	</g>
	<g>
		<g>
			<polygon class="st2" points="294.2,487.1 290.2,478.1 282.4,478.1 278.5,487.1 			"/>
		</g>
		<polygon class="st2" points="281.2,470 286.1,466.2 290.9,470 286.1,476 		"/>
		<g>
			<path class="st2" d="M309.8,448l-7.8-8.2l-15.8,8.3l-15.6-8.2l-7.9,8.1l8,29.4l0.5,0.7l7.1-6.2l7.9-15.8l7.9,15.8l7.3,6.1
				l0.5-0.7L309.8,448z M270,458.6v-8l12,8.1L270,458.6z M302,458.6l-11.9,0l11.9-7.5V458.6z"/>
			<polygon class="st2" points="278.5,487.1 271.3,478 271.1,478.5 278.5,488.1 294.2,488.1 301.7,478.5 301.5,478.1 294.2,487.1 
							"/>
		</g>
		<polygon class="st2" points="303.8,439.1 309.7,446.1 313.6,446.1 317.6,439.1 		"/>
		<polygon class="st2" points="269,439.1 263.1,446.1 259.2,446.1 255.2,439.1 		"/>
		<g>
			<polygon class="st2" points="305.1,465.3 317.8,502.7 301.7,510.7 286.3,506.7 270.1,510.3 254.7,502.7 267.5,465.3 270.8,477.4 
				278.5,487.1 294.2,487.1 302,477.3 			"/>
		</g>
		<polygon class="st2" points="286.2,445.8 293.7,439.7 325,424.1 325,420.5 329,416.6 329,412.7 325,416.5 325,412.6 329,408.7 
			329,404.7 325,408.6 325,400.7 321.3,396.8 321.5,391.3 319,388.5 319,394 312.7,387.9 312.2,382.4 309,379.6 309,385.1 
			301.8,377.1 294.1,377.1 301.9,385.1 294.1,385.1 301.8,390 305.9,390.2 309.8,392.9 302,393 309.8,396.9 317.6,397 321.6,420.4 
			294.1,432.3 286.2,439.8 278.3,432.3 250.8,420.4 254.8,397 262.7,396.9 270.4,393.1 262.7,392.9 266.6,390.2 270.6,390 
			278.3,385.1 270.5,385.1 278.3,377.1 270.6,377.1 262,385.1 262,379.6 259.6,382.4 259.9,387.9 254,394 254,388.5 251,391.3 
			251,396.8 247,400.7 247,408.6 243,404.7 243,408.7 247,412.6 247,416.5 243,412.7 243,416.6 247,420.5 247,424.1 278.5,439.7 		
			"/>
	</g>
	<g>
		<g>
			<path class="st2" d="M532,55.1L526.8,35L51.7,510.1l6.1,23.5l-4.5,4.5l-6.7-25.8l-4.5,4.5l6.7,25.8l-4.5,4.5l-6.7-25.8l-4.5,4.5
				l6.7,25.8l-4.5,4.5l-6.7-25.8l-4.6,4.6l-3.8-3.8l4.6-4.6l-25.8-6.7l4.5-4.5l25.8,6.7l4.5-4.5l-25.8-6.7l4.5-4.5l25.8,6.7l4.5-4.5
				L17,501.8l4.5-4.5l24,6.2L520.3,28.8l-19.7-5l54.8-23.4L532,55.1z"/>
		</g>
	</g>
	<g>
		<g>
			<path class="st2" d="M72.4,23.1l-20.1,5.2l475.1,475.1l23.5-6.1l4.5,4.5l-25.8,6.7l4.5,4.5l25.8-6.7l4.5,4.5l-25.8,6.7l4.5,4.5
				l25.8-6.7l4.5,4.5l-25.8,6.7l4.6,4.6l-3.8,3.8l-4.6-4.6L537,556l-4.5-4.5l6.7-25.8l-4.5-4.5L528,547l-4.5-4.5l6.7-25.8l-4.5-4.5
				l-6.7,25.8l-4.5-4.5l6.2-24L46.1,34.8l-5,19.7L17.6-0.3L72.4,23.1z"/>
		</g>
	</g>
	<g>
		<polygon class="st2" points="92,269.1 92,227.1 76,227.1 76,310.1 96,310.1 96,269.1 		"/>
		<polygon class="st2" points="127,227.1 127,269.1 122,269.1 122,310.1 143,310.1 143,227.1 		"/>
		<polygon class="st2" points="117,269.1 117,227.1 102,227.1 102,269.1 99,269.1 99,310.1 120,310.1 120,269.1 		"/>
	</g>
	<g>
		<path class="st2" d="M444.3,292.7l-30.9-18.4v-10.2l30.9-18.3v12l-21.5,11.3l21.5,11.7V292.7z"/>
		<path class="st2" d="M447.2,300.8l11.2-63.8h6.5l-11.3,63.8H447.2z"/>
		<path class="st2" d="M467.6,292.8v-11.9l21.6-11.6l-21.6-11.5v-11.8l31,18.4v10.1L467.6,292.8z"/>
	</g>
</g>
<g id="Capa_3" class="st0">
	
		<text transform="matrix(1 0 0 1 110.5 657.1026)" style="display:inline;fill:#2E770C; font-family:'FuturistFixedWidth-Regular'; font-size:36px; letter-spacing:9;">CrisHooD</text>
</g>
<g id="Capa_4" class="st0">
	<g class="st3">
		<g>
			<polygon class="st4" points="274.7,398.1 266.2,377.1 249.5,377.1 241.3,398.1 			"/>
		</g>
		<polygon class="st4" points="247,361.2 257.4,353.1 267.6,361.2 257.4,374 		"/>
		<g>
			<path class="st4" d="M307.9,314.5l-16.6-17.4l-33.5,17.6l-33.1-17.4l-16.8,17.3l17,62.5l1.1,1.4l15.1-13.1l16.8-33.6l16.7,33.6
				l15.5,13.1l1.1-1.4L307.9,314.5z M223,337v-17.1l25.5,17.2L223,337z M291,337l-25.3,0.1l25.3-16V337z"/>
			<polygon class="st4" points="241.3,398.1 226,378.5 225.6,379.5 241.3,400.1 274.8,400.1 290.6,379.5 290.2,378.8 274.7,398.1 
							"/>
		</g>
		<polygon class="st4" points="295.1,296.1 307.6,310.1 316,310.1 324.3,296.1 		"/>
		<polygon class="st4" points="221.1,296.1 208.6,310.1 200.2,310.1 191.9,296.1 		"/>
		<g>
			<polygon class="st4" points="297.8,351.3 324.8,430.7 290.7,447.8 257.8,439.2 223.4,447 190.8,430.7 217.9,351.3 224.9,377.1 
				241.3,398.1 274.8,398.1 291.3,377.1 			"/>
		</g>
		<polygon class="st4" points="257.7,309.8 273.5,296.8 340,263.7 340,256.1 348,247.8 348,239.4 340,247.6 340,239.2 348,230.9 
			348,222.5 340,230.7 340,214 332.3,205.7 332.6,194 327,188 327,199.8 313.8,186.7 312.8,175 306,169 306,180.8 290.9,164.1 
			274.4,164.1 291.1,181.1 274.4,181.1 290.9,191.4 299.4,191.6 307.7,197.4 291.3,197.7 307.8,205.9 324.4,206.1 332.9,255.8 
			274.4,281 257.7,297.1 241,281 182.5,255.8 191,206.1 207.6,205.9 224.1,197.7 207.7,197.4 216,191.7 224.5,191.4 241,181.1 
			224.3,181.1 241,164.1 224.5,164.1 206,180.8 206,169 200.9,175 201.5,186.7 189,199.8 189,188 182.8,194 182.6,205.7 174,214 
			174,230.7 166,222.5 166,230.9 174,239.2 174,247.6 166,239.4 166,247.8 174,256.1 174,263.7 241.2,296.8 		"/>
	</g>
</g>
</svg>
