<?xml version="1.0" encoding="utf-8"?>
<!-- Generator: Adobe Illustrator 19.2.1, SVG Export Plug-In . SVG Version: 6.00 Build 0)  -->
<svg version="1.1" id="Layer_1" xmlns="http://www.w3.org/2000/svg" xmlns:xlink="http://www.w3.org/1999/xlink" x="0px" y="0px"
	 viewBox="0 0 512 512" style="enable-background:new 0 0 512 512;" xml:space="preserve">
<style type="text/css">
	.st0{fill:#FFFFFF;}
</style>
<polyline class="st0" points="161.3,110.4 174.7,110.4 174.7,125.2 189.8,125.2 189.8,110.4 203.2,110.4 203.2,153 189.8,153 
	189.8,135.9 174.7,135.9 174.7,153 161.3,153 161.3,110.4 "/>
<polyline class="st0" points="208.6,110.4 249.8,110.4 249.8,120.5 235.9,120.5 235.9,153 222.6,153 222.6,120.5 208.6,120.5 
	208.6,110.4 "/>
<polyline class="st0" points="255.3,110.4 272.9,110.4 279.6,136.4 286.2,110.4 303.8,110.4 303.8,153 292.9,153 292.9,120.7 
	284.6,153 274.5,153 266.2,120.7 266.2,153 255.3,153 255.3,110.4 "/>
<polyline class="st0" points="312.3,110.4 325.6,110.4 325.6,142.4 346.8,142.4 346.8,153 312.3,153 312.3,110.4 "/>
<polyline class="st0" points="253.3,290.9 253.1,290.9 165.6,290.9 156,185.6 155.1,175.3 253.1,175.3 253.3,175.3 351.2,175.3 
	350.3,185.6 348.5,205 347.7,213.6 347.6,213.6 253.3,213.6 253.1,213.6 197.9,213.6 201.4,252.7 253.1,252.7 253.3,252.7 
	333.6,252.7 344.1,252.7 343.2,263 334,363.6 333.4,370.1 253.3,391.8 253.3,391.8 253.1,391.8 172.9,370.1 167.4,310.1 
	185.5,310.1 206.7,310.1 209.5,340.5 253.1,352 253.1,352 253.1,352 296.8,340.5 301.3,290.9 253.3,290.9 "/>
</svg>
