<?xml version="1.0" encoding="utf-8"?>
<!-- Generator: Adobe Illustrator 19.2.1, SVG Export Plug-In . SVG Version: 6.00 Build 0)  -->
<svg version="1.1" id="Capa_1" xmlns="http://www.w3.org/2000/svg" xmlns:xlink="http://www.w3.org/1999/xlink" x="0px" y="0px"
	 viewBox="0 0 512 512" style="enable-background:new 0 0 512 512;" xml:space="preserve">
<style type="text/css">
	.st0{fill:#FFFFFF;}
</style>
<g>
	<g id="post-instagram">
		<path class="st0" d="M460.8,0H51.2C23,0,0,23,0,51.2v409.6C0,489,23,512,51.2,512h409.6c28.2,0,51.2-23,51.2-51.2V51.2
			C512,23,489,0,460.8,0z M256,153.6c56.3,0,102.4,46.1,102.4,102.4S312.3,358.4,256,358.4S153.6,312.3,153.6,256
			S199.7,153.6,256,153.6z M64,460.8c-7.7,0-12.8-5.1-12.8-12.8V230.4H105c-2.6,7.7-2.6,17.9-2.6,25.6
			c0,84.5,69.1,153.6,153.6,153.6S409.6,340.5,409.6,256c0-7.7,0-17.9-2.6-25.6h53.8V448c0,7.7-5.1,12.8-12.8,12.8H64z M460.8,115.2
			c0,7.7-5.1,12.8-12.8,12.8h-51.2c-7.7,0-12.8-5.1-12.8-12.8V64c0-7.7,5.1-12.8,12.8-12.8H448c7.7,0,12.8,5.1,12.8,12.8V115.2z"/>
	</g>
</g>
</svg>
