<?xml version="1.0" encoding="utf-8"?>
<!-- Generator: Adobe Illustrator 19.2.1, SVG Export Plug-In . SVG Version: 6.00 Build 0)  -->
<svg version="1.1" id="Layer_1" xmlns="http://www.w3.org/2000/svg" xmlns:xlink="http://www.w3.org/1999/xlink" x="0px" y="0px"
	 viewBox="0 0 512 512" style="enable-background:new 0 0 512 512;" xml:space="preserve">
<style type="text/css">
	.st0{fill:#FFFFFF;}
</style>
<path class="st0" d="M93.8,109.8H107v23.4c0,4.9-0.4,8.6-1.3,11.2c-0.9,2.6-2.6,4.7-5.3,6.5c-2.6,1.8-6,2.7-10.2,2.7
	c-4.4,0-7.8-0.6-10.2-1.7c-2.4-1.2-4.3-2.9-5.6-5.1c-1.3-2.2-2.1-5-2.3-8.3l13.2-1.6c0,1.8,0.2,3.1,0.5,4c0.3,0.9,0.8,1.6,1.6,2.1
	c0.5,0.4,1.2,0.5,2.1,0.5c1.5,0,2.5-0.5,3.2-1.6c0.7-1.1,1-3,1-5.6V109.8"/>
<path class="st0" d="M134.3,138.6c-1.6,0.6-3.2,1-4.9,1.5c-2.3,0.6-3.8,1.2-4.4,1.8c-0.6,0.6-0.9,1.3-0.9,2.1c0,0.9,0.3,1.6,0.9,2.2
	c0.6,0.6,1.5,0.8,2.7,0.8c1.3,0,2.4-0.3,3.5-0.9c1.1-0.6,1.9-1.4,2.3-2.2c0.5-0.9,0.7-2,0.7-3.4V138.6 M125.3,132.6l-12-1.2
	c0.4-2.1,1-3.8,1.8-5c0.8-1.2,2-2.3,3.5-3.2c1.1-0.6,2.6-1.1,4.5-1.5c1.9-0.4,3.9-0.5,6.1-0.5c3.5,0,6.4,0.2,8.5,0.6
	c2.1,0.4,3.9,1.2,5.4,2.5c1,0.9,1.8,2.1,2.4,3.7c0.6,1.6,0.9,3.1,0.9,4.6v13.7c0,1.5,0.1,2.6,0.3,3.4c0.2,0.8,0.6,1.9,1.2,3.2h-11.5
	c-0.5-0.8-0.8-1.4-0.9-1.9c-0.1-0.4-0.3-1.1-0.4-2c-1.5,1.5-3.1,2.6-4.6,3.2c-2.1,0.9-4.5,1.3-7.2,1.3c-3.6,0-6.4-0.8-8.3-2.5
	c-1.9-1.7-2.8-3.8-2.8-6.2c0-2.3,0.7-4.2,2-5.7c1.4-1.5,3.9-2.6,7.5-3.3c4.4-0.9,7.2-1.5,8.5-1.8c1.3-0.4,2.7-0.8,4.1-1.4
	c0-1.3-0.3-2.3-0.8-2.8c-0.5-0.5-1.5-0.8-2.8-0.8c-1.7,0-3,0.3-3.8,0.9C126.2,130.4,125.7,131.3,125.3,132.6z"/>
<polyline class="st0" points="148.4,121.8 160.7,121.8 166.7,141.6 172.7,121.8 185,121.8 171.8,153 161.2,153 148.4,121.8 "/>
<path class="st0" d="M209.6,138.6c-1.6,0.6-3.2,1-4.9,1.5c-2.3,0.6-3.8,1.2-4.4,1.8c-0.6,0.6-0.9,1.3-0.9,2.1c0,0.9,0.3,1.6,0.9,2.2
	c0.6,0.6,1.5,0.8,2.7,0.8c1.3,0,2.4-0.3,3.5-0.9c1.1-0.6,1.9-1.4,2.3-2.2c0.5-0.9,0.7-2,0.7-3.4L209.6,138.6 M200.6,132.6l-12-1.2
	c0.4-2.1,1-3.8,1.8-5c0.8-1.2,2-2.3,3.5-3.2c1.1-0.6,2.6-1.1,4.5-1.5c1.9-0.4,3.9-0.5,6.1-0.5c3.5,0,6.4,0.2,8.5,0.6
	c2.1,0.4,3.9,1.2,5.4,2.5c1,0.9,1.8,2.1,2.4,3.7c0.6,1.6,0.9,3.1,0.9,4.6v13.7c0,1.5,0.1,2.6,0.3,3.4c0.2,0.8,0.6,1.9,1.2,3.2h-11.5
	c-0.5-0.8-0.8-1.4-0.9-1.9c-0.1-0.4-0.3-1.1-0.4-2c-1.5,1.5-3.1,2.6-4.6,3.2c-2.1,0.9-4.5,1.3-7.2,1.3c-3.6,0-6.4-0.8-8.3-2.5
	c-1.9-1.7-2.8-3.8-2.8-6.2c0-2.3,0.7-4.2,2-5.7c1.4-1.5,3.9-2.6,7.5-3.3c4.4-0.9,7.2-1.5,8.5-1.8c1.3-0.4,2.7-0.8,4.1-1.4
	c0-1.3-0.3-2.3-0.8-2.8c-0.5-0.5-1.5-0.8-2.8-0.8c-1.7,0-3,0.3-3.8,0.9C201.5,130.4,201,131.3,200.6,132.6z"/>
<path class="st0" d="M246.8,138.8L260,138c0.3,2,0.8,3.6,1.6,4.6c1.3,1.7,3.1,2.6,5.5,2.6c1.8,0,3.1-0.4,4.1-1.3
	c1-0.9,1.4-1.9,1.4-3.1c0-1.1-0.4-2.1-1.3-3c-0.9-0.9-3.1-1.7-6.6-2.5c-5.8-1.3-9.9-3.1-12.4-5.2c-2.5-2.2-3.7-4.9-3.7-8.3
	c0-2.2,0.6-4.3,1.9-6.2c1.3-2,3.2-3.5,5.8-4.6c2.6-1.1,6.1-1.7,10.6-1.7c5.5,0,9.7,1,12.6,3.1c2.9,2.1,4.6,5.4,5.2,9.9l-13.2,0.8
	c-0.3-2.1-0.9-3.6-1.8-4.6c-0.9-1-2.2-1.4-3.8-1.4c-1.3,0-2.3,0.3-3,1c-0.7,0.7-1,1.5-1,2.4c0,0.7,0.2,1.3,0.5,1.9
	c0.3,0.6,1.6,1.1,4,1.6c5.8,1.3,9.9,2.5,12.4,3.8c2.5,1.3,4.3,2.9,5.5,4.8c1.1,1.9,1.7,4,1.7,6.4c0,2.8-0.8,5.3-2.3,7.6
	c-1.5,2.3-3.7,4.1-6.4,5.3c-2.7,1.2-6.2,1.8-10.4,1.8c-7.3,0-12.4-1.4-15.2-4.2C248.8,146.6,247.2,143.1,246.8,138.8"/>
<path class="st0" d="M314.6,141l12,1.2c-0.6,2.3-1.7,4.3-3.1,6c-1.4,1.7-3.3,3-5.5,4c-2.2,0.9-5,1.4-8.5,1.4c-3.3,0-6-0.3-8.3-0.9
	c-2.2-0.6-4.1-1.6-5.7-3c-1.6-1.4-2.8-3-3.7-4.8c-0.9-1.8-1.4-4.3-1.4-7.3c0-3.2,0.5-5.8,1.6-8c0.8-1.6,1.9-3,3.3-4.2
	c1.4-1.2,2.8-2.2,4.3-2.8c2.3-0.9,5.3-1.4,8.9-1.4c5.1,0,9,0.9,11.6,2.6c2.7,1.7,4.5,4.3,5.6,7.6l-12,1.8c-0.3-1.4-0.9-2.4-1.8-3.1
	s-2-1.1-3.5-1.1c-1.8,0-3.3,0.7-4.4,2.2c-1.1,1.5-1.7,3.7-1.7,6.6c0,2.6,0.6,4.6,1.7,6c1.1,1.4,2.6,2,4.4,2c1.5,0,2.7-0.4,3.7-1.2
	S314.1,142.6,314.6,141"/>
<path class="st0" d="M332,121.8h11.2v5.4c1.1-2.3,2.2-3.8,3.3-4.7c1.1-0.9,2.6-1.3,4.3-1.3c1.8,0,3.7,0.5,5.8,1.6l-3.7,8.9
	c-1.4-0.6-2.5-0.9-3.4-0.9c-1.6,0-2.8,0.6-3.7,1.9c-1.2,1.8-1.9,5.1-1.9,10V153h-12L332,121.8"/>
<path class="st0" d="M359,121.8h12V153h-12V121.8 M359,109.8h12v8.4h-12V109.8z"/>
<path class="st0" d="M390.1,137.6c0,2.8,0.5,4.9,1.5,6.2c1,1.3,2.3,2,3.9,2c1.4,0,2.5-0.6,3.5-1.9c0.9-1.3,1.4-3.5,1.4-6.6
	c0-2.9-0.5-4.9-1.5-6.3c-1-1.3-2.2-2-3.5-2c-1.5,0-2.8,0.7-3.8,2C390.6,132.4,390.1,134.6,390.1,137.6 M378.2,165v-43.2h11.1v4.1
	c1.5-1.7,3-2.9,4.2-3.5c1.7-0.8,3.7-1.2,5.8-1.2c4.2,0,7.4,1.6,9.6,4.8c2.3,3.2,3.4,7.1,3.4,11.8c0,5.2-1.2,9.1-3.7,11.8
	c-2.5,2.7-5.6,4.1-9.4,4.1c-1.8,0-3.5-0.3-5-0.8c-1.5-0.5-2.9-1.4-4.1-2.4V165H378.2z"/>
<path class="st0" d="M432.8,109.8v12h6.6v9h-6.6v11.3c0,1.4,0.1,2.3,0.4,2.7c0.4,0.7,1.1,1,2.1,1c0.9,0,2.2-0.3,3.8-0.8l0.9,7.7
	c-3,0.6-5.8,0.9-8.4,0.9c-3,0-5.2-0.4-6.6-1.1c-1.4-0.7-2.5-1.9-3.2-3.4c-0.7-1.5-1-4-1-7.4v-10.8h-4.2v-9h4.2V116L432.8,109.8"/>
<polyline class="st0" points="306.8,266.8 342.4,266.9 339.4,290.9 337.8,303.8 329.8,368 235.8,400 149.7,368 155,325.3 
	190.6,325.3 188.4,342.9 240.4,362.2 297.3,342.9 302.3,302.6 192.9,302.6 157.4,302.4 160.4,278.5 162,265.6 169.9,201.4 
	264,169.4 350,201.4 344.7,244.1 309.2,244.1 311.3,226.5 259.3,207.1 202.4,226.5 197.4,266.8 306.8,266.8 "/>
</svg>
