<?xml version="1.0" encoding="utf-8"?>
<!-- Generator: Adobe Illustrator 19.2.1, SVG Export Plug-In . SVG Version: 6.00 Build 0)  -->
<svg version="1.1" id="Layer_1" xmlns="http://www.w3.org/2000/svg" xmlns:xlink="http://www.w3.org/1999/xlink" x="0px" y="0px"
	 viewBox="0 0 512 512" style="enable-background:new 0 0 512 512;" xml:space="preserve">
<style type="text/css">
	.st0{fill:#FFFFFF;}
</style>
<path class="st0" d="M149.5,244.9c0-1.6-0.8-3-2.2-3.8l-35.9-20.7c-0.6-0.4-1.3-0.5-2-0.6h-0.4c-0.7,0-1.4,0.2-2,0.6l-35.9,20.7
	c-1.3,0.8-2.2,2.2-2.2,3.8l0.1,55.7c0,0.8,0.4,1.5,1.1,1.9c0.7,0.4,1.5,0.4,2.2,0l21.4-12.2c1.4-0.8,2.2-2.2,2.2-3.8v-26
	c0-1.6,0.8-3,2.2-3.8l9.1-5.2c0.7-0.4,1.4-0.6,2.2-0.6c0.7,0,1.5,0.2,2.2,0.6l9.1,5.2c1.3,0.8,2.2,2.2,2.2,3.8v26
	c0,1.5,0.8,3,2.2,3.8l21.3,12.2c0.7,0.4,1.5,0.4,2.2,0c0.7-0.4,1.1-1.1,1.1-1.9L149.5,244.9"/>
<path class="st0" d="M317.8,273.8c0,0.4-0.2,0.7-0.5,0.9l-12.3,7.1c-0.3,0.2-0.7,0.2-1.1,0l-12.3-7.1c-0.3-0.2-0.5-0.6-0.5-0.9
	v-14.3c0-0.4,0.2-0.7,0.5-0.9l12.3-7.1c0.3-0.2,0.7-0.2,1.1,0l12.3,7.1c0.3,0.2,0.5,0.6,0.5,0.9V273.8 M321.2,168.3
	c-0.7-0.4-1.5-0.4-2.2,0c-0.7,0.4-1.1,1.1-1.1,1.9v55.1c0,0.5-0.3,1-0.8,1.3c-0.5,0.3-1,0.3-1.5,0l-9-5.2c-1.3-0.8-3-0.8-4.3,0
	l-35.9,20.7c-1.3,0.8-2.2,2.2-2.2,3.8v41.5c0,1.6,0.8,3,2.2,3.8l35.9,20.8c1.3,0.8,3,0.8,4.3,0l36-20.8c1.3-0.8,2.2-2.2,2.2-3.8V184
	c0-1.6-0.9-3-2.2-3.8L321.2,168.3z"/>
<path class="st0" d="M439.6,259.2c1.3-0.8,2.2-2.2,2.2-3.8v-10.1c0-1.5-0.8-3-2.2-3.8l-35.7-20.7c-1.3-0.8-3-0.8-4.4,0l-35.9,20.7
	c-1.3,0.8-2.2,2.2-2.2,3.8v41.5c0,1.6,0.8,3,2.2,3.8l35.7,20.3c1.3,0.8,2.9,0.8,4.3,0l21.6-12c0.7-0.4,1.1-1.1,1.1-1.9
	c0-0.8-0.4-1.5-1.1-1.9l-36.2-20.8c-0.7-0.4-1.1-1.1-1.1-1.9v-13c0-0.8,0.4-1.5,1.1-1.9l11.3-6.5c0.7-0.4,1.5-0.4,2.2,0l11.3,6.5
	c0.7,0.4,1.1,1.1,1.1,1.9v10.2c0,0.8,0.4,1.5,1.1,1.9c0.7,0.4,1.5,0.4,2.2,0L439.6,259.2"/>
<path class="st0" d="M204.8,220.7c1.3-0.8,3-0.8,4.3,0l35.9,20.7c1.3,0.8,2.2,2.2,2.2,3.8v41.5c0,1.5-0.8,3-2.2,3.8l-35.9,20.8
	c-1.3,0.8-3,0.8-4.3,0l-35.9-20.8c-1.3-0.8-2.2-2.2-2.2-3.8v-41.5c0-1.6,0.8-3,2.2-3.8L204.8,220.7"/>
</svg>
