<?xml version="1.0" encoding="utf-8"?>
<!-- Generator: Adobe Illustrator 21.1.0, SVG Export Plug-In . SVG Version: 6.00 Build 0)  -->
<svg version="1.1" xmlns="http://www.w3.org/2000/svg" xmlns:xlink="http://www.w3.org/1999/xlink" x="0px" y="0px"
	 viewBox="0 0 1000 1000" style="enable-background:new 0 0 1000 1000;" xml:space="preserve">
<style type="text/css">
	.st0{fill:#009688;}
</style>
<g id="semper">
</g>
<g id="laurel">
</g>
<g id="deer">
</g>
<g id="arrow-r">
</g>
<g id="arrow-l">
</g>
<g id="leg-CH">
	<g>
		<path class="st0" d="M337.4,936.7c3.3,3,4.1,6.7,4.1,10c0,9.1-5.9,15.3-15.3,15.3c-4,0-10.7-1.1-13.9-4.5
			c-0.6-2.5-0.3-7.8,0.9-11.4h0.7c-0.8,8.4,4.5,13.9,11.8,13.4c6-0.3,11-4.4,11-11c0-3.2-1.2-5.7-3.2-7.6l-15.7-14.6
			c-3.3-3-4.4-7-4.4-10.2c0-6.9,5.1-13.9,14.4-13.9c2.2,0,4.9,0.4,7,0.8h3.2v1v9.1h-0.8c0-5.2-4.1-8.4-9.2-8.4
			c-6,0-10.1,4.4-10.1,9.4c0,2.1,0.7,5.2,3.3,7.6L337.4,936.7L337.4,936.7z"/>
		<path class="st0" d="M388.5,949.1l-4.5,11.8h-33.3l0-0.8l1.1,0c2.6,0,4.6-1.9,4.7-4.4v-38.9c-0.1-2.4-2.1-4.3-4.7-4.3l-1.1,0
			l0-0.8h23.9c3.3,0,7.7-0.7,9.2-1.3v9.3l-0.9,0l0-1.3c0-2.3-1.6-4.2-4.1-4.2h-17V935h14c2.3,0,3.3-1.6,3.3-3.5l0-1l0.9,0V942
			l-0.9,0l0-1c0-1.8-1-3.3-3.1-3.5h-14.2v20.9h12.8c7.9-0.1,10.7-3.9,13-9.3H388.5z"/>
		<path class="st0" d="M462.3,960v0.8H450h-4.7v-0.8h1.2c2.4,0,3.1-1.8,3-3.3l-4.3-33.6l-15.4,30.5c0,0-2.4,5-2.9,8.4h-0.8
			l-19.7-38.1l-3.7,32.7h0c-0.2,1.6,0.6,3.5,3,3.5h1.2v0.8h-4.7h-10.5V960h1.2c2.8,0,5.2-1.7,5.6-4.6l6.3-44.9h0.8l21.6,41.6
			l20.9-41.6h0.8l6.6,45c0.5,2.8,2.9,4.5,5.6,4.5H462.3z"/>
		<path class="st0" d="M505.3,925.7c0,12.5-12.5,18.1-23.6,12.7l0-0.8c0,0,13,3.5,17.1-8.3c0.4-1.2,0.6-3,0.6-4.4
			c0-6.7-4.9-10.7-12.9-10.7h-7.9v41.5c0.1,2.4,2.1,4.4,4.8,4.4l1.1,0l0,0.8h-17l0-0.8l1.1,0c2.7,0,4.7-1.9,4.8-4.4v-38.9h0
			c0-2.5-2.1-4.3-4.8-4.3l-1.1,0l0-0.8h19.2C498,911.7,505.3,917,505.3,925.7z"/>
		<path class="st0" d="M550.6,949.1l-4.5,11.8h-33.3l0-0.8l1.1,0c2.6,0,4.6-1.9,4.7-4.4v-38.9c-0.1-2.4-2.1-4.3-4.7-4.3l-1.1,0
			l0-0.8h23.9c3.3,0,7.7-0.7,9.2-1.3v9.3l-0.9,0l0-1.3c0-2.3-1.6-4.2-4.1-4.2h-17V935h14c2.3,0,3.3-1.6,3.3-3.5l0-1l0.9,0V942
			l-0.9,0l0-1c0-1.8-1-3.3-3.1-3.5h-14.2v20.9h12.8c7.9-0.1,10.7-3.9,13-9.3H550.6z"/>
		<path class="st0" d="M604.9,960v0.8h-2.6c-9.1,0-12.6-4.1-15.2-7.2c-0.9-1.1-7.4-10.4-8-11.2c-2.2-2.8-5.1-5.5-8.3-5.5v-0.8
			c0,0,2,0,4.7,0c4.5-0.1,9.7-0.2,12-7c0.4-1.1,0.6-2.9,0.6-4.7c-0.2-6.1-4.3-9.7-10.9-10.1c-4.6-0.2-8.6,0-9.4-0.1v41.4
			c0.1,2.5,2,4.4,4.7,4.4l1.1,0l0,0.8h-16.8l0-0.8l1.1,0c2.6,0,4.5-1.9,4.7-4.3v-38.9c-0.1-2.4-2-4.3-4.7-4.3l-1.1,0l0-0.8h20.5
			c10.3,0,16.7,5,16.7,13.3c0,7-5.4,12.8-12.7,13.5c1.8,0.8,4.6,3.9,6.3,6.4c0,0,3.8,5.1,7.2,8.9C598,957.5,600.3,960,604.9,960z"/>
		<path class="st0" d="M662.8,905.8L662.8,905.8l0,5.4l-0.8,0V910c0-2.2-1.8-4-4-4v0h-17.3v25.3h13.9v0c2.2,0,4-1.8,4-4v-1.2l0.8,0
			v13l-0.8,0v-1.2c0-2.2-1.7-4-3.9-4h-13.9v21.1c0.1,2.9,2.4,5.2,5.3,5.2l1,0l0,0.8H629l0-0.8l1,0c2.9,0,5.2-2.3,5.3-5.2V909
			c-0.3-2.6-2.5-4.7-5.2-4.7l-1,0l0-0.8h6.5v0H653c3.5,0,8.3-0.8,9.8-1.5v2.4V905.8z"/>
		<path class="st0" d="M688.3,960.8h-18.6l0-0.8l1.1,0c3,0,5.5-2,5.6-4.4v-38.7h0c-0.1-2.5-2.5-4.4-5.6-4.4l-1.1,0l0-0.8h18.6l0,0.8
			l-1.1,0c-3,0-5.4,1.9-5.6,4.3v38.9c0.1,2.4,2.6,4.4,5.6,4.4l1.1,0L688.3,960.8z"/>
	</g>
	<g>
		<path class="st0" d="M831.6,223.3c-8.8-1.8-18.1-1.7-27.3-2.7c-12.8-1.7-22.8-8-29.6-16.4c-2.7-3.5-5-7.1-6.7-11.2
			c2.1,0.3,4.4,0.6,6.7,0.9c17,2.1,36.9,4.4,50.7,4.4c0-6.6,0.7-13.3,2-20.2c1-5.2,2.6-10,4.2-14.6c2.6-7.1,5.1-13.9,5.7-21.4
			l0.4-1.1c3.9,7.7,4.5,17.2,8.6,25.5c7.6,20.2,11.6,43.1-0.8,62C841.2,225.9,836.6,224.4,831.6,223.3z"/>
		<path class="st0" d="M774.7,181.8c-5.1-1.5-9.8-3.5-14-6.2c-1.2-0.6-2.3-1.4-3.2-2.1c-8.6-8.3-17.7-21.3-17.7-33.2l20.8,6.3
			l14,4.4l14.9,4.5c-3.6-23.9,0.3-46.5,6.9-69.3l0.3-1.4c13,34.9,32.9,65.6,16,103.8C800.5,186.3,786.8,185.3,774.7,181.8z"/>
		<path class="st0" d="M760.7,136.5c-8.7-4.5-16.3-10.6-21.4-20.1c-5.4-9.1-9.3-20.5-13.1-31.6c-2.1-6.5-4.4-12.8-6.8-18.5
			c2.4,0.3,4.7,0.6,6.8,1.2c13.7,3.8,23.1,13.4,34.6,22.9c0.2,0.3,0.4,0.5,0.8,0.7c4.8,6.3,9.7,14.8,13.3,23.7
			c4.1,10.1,6.8,21,6.6,30.6c-2.3-0.9-4.4-1.8-6.6-2.6C769.9,141.1,765.1,139,760.7,136.5z"/>
		<path class="st0" d="M876.6,292.4c-10.4-13.9-29.3-15.8-43.2-25.5c-0.6-0.3-1.2-0.7-1.8-1.2c-10.7-7.9-19.2-18.7-21.7-32.3
			c6.9,0.2,14.5,1.7,21.7,3.6c11.6,3,22.6,6.9,30,8c-2.7-17.8,9.2-34.1,11.6-50.7l0.9-1.1c2.1,6,4.4,11.9,6.8,18.1
			c3.9,10.4,7.8,21.4,10.1,33.6c1.2,14.8-2.3,32.1-10.1,42.7C879.6,289.5,878.1,291.2,876.6,292.4z"/>
		<path class="st0" d="M880.9,497.1c-2.4,2.1-5.1,4.2-8.1,6.2c-15.9-26.5-36.1-56.4-26.9-92.2h0.7c8,19.1,23.2,33.8,34.2,49
			c0.8,1.2,1.5,2.3,2.3,3.3l41-43.4c-0.6,19.3-7.3,42.1-21.9,56.7C893.8,483.4,888.5,490.5,880.9,497.1z"/>
		<path class="st0" d="M884.4,445.7c-1.2-1.7-2.4-3.5-3.5-5.1c-18.6-26.7-35-59.6-31.2-97l0.3-0.8c0,0,0.9,0.8,0.9,2.4
			c9.8,12.4,21.9,25.1,30,38.6c2.3,3.8,4.2,7.7,5.9,11.8c8.9-17.2,25.2-26,34.7-41.2c1.1,2,0,3.3,1.6,6
			C925.6,396.2,908.4,423,884.4,445.7z"/>
		<path class="st0" d="M887.4,370.1c-1.5-5-3.8-9.5-6.5-13.7c-3.8-5.6-8.3-10.7-13.4-15.8c-16.9-17.3-29.7-31.1-35.9-53.4
			c-0.3-1.2-0.6-2.4-0.9-3.6c0.3,0.2,0.6,0.3,0.9,0.3c19.4,7.3,37.3,15.8,49.3,29c1.1,1.2,2.1,2.6,3.2,3.9l22.2-38.5
			c2.7,12.5,4.1,24.6,6,38.5C914.6,339.9,903.4,357.7,887.4,370.1z"/>
		<path class="st0" d="M261.8,107.4c-4.1,6.6-6.6,14.6-11.6,21.3c-2.8,2.4-5.4,5-8.1,7.6c-7.4,6.6-14.8,12.4-22.8,12.7
			c0-12.7,0.8-25.8,6-39.1c4.5-8.1,10.1-15.1,16.7-21c10.4-9.3,23.2-16,37.8-19.9c0.5-0.2,0.8-0.2,1.1-0.3l1.7,0.8
			c-0.9,0.9-1.8,2-2.7,3C271.4,82.5,267.1,94.2,261.8,107.4z"/>
		<path class="st0" d="M121.5,326.2c7.3-5.3,13.4-10.4,21.9-15.2c7.4-3.6,17.5-9.7,24.1-10.7c0.4-0.1,0.9-0.1,1.4-0.1
			c-0.2,3.2-0.6,6.2-1.4,9.2c-6,25.3-29.6,40.4-46,60c-3,3.8-5.9,7.6-8.3,11.6c-17.5-24.6-32.7-60.1-21.5-94.2l0.8-0.3l1.7,0.3
			l25.2,41.2C120,327.4,120.7,326.8,121.5,326.2z"/>
		<path class="st0" d="M121.5,390.2c9.2-11.9,25.2-21.4,30.8-33.4l2.1-0.4c2.6,13.3-0.8,27.9-7.1,40.6
			c-7.4,16.6-18.5,28.5-25.8,44.8c-1.3,3.2-2.6,6.3-3.6,9.8c-22.1-23.5-41.8-49.3-42.1-84.2l40.7,31.2
			C117.7,395.6,119.5,392.7,121.5,390.2z"/>
		<path class="st0" d="M204.5,206.2c8-0.5,16-0.1,23.1,0.3c-6,10.1-14,16.7-23.1,21.7c-11.5,6.4-24.6,10-37,14.2
			c-5.9,2.1-11.8,4.4-17.2,7.2c-8.9-29.9-10-62.6,5.7-91.1c5.4,5,9.1,11.6,11.5,19c3.8,11.8,4.4,25.2,3.8,35.9
			C181.1,208.8,192.8,206.9,204.5,206.2z"/>
		<path class="st0" d="M242,156l22.6-4.4c-0.9,2-2,2-2.2,4.8c-5.9,8.6-12.4,16.4-20.4,22.5c-7.6,5.9-16.1,10.1-26.4,12.4
			c-3.8,0.8-7.5,1.4-11.2,2.1c-8.2,1.7-15.8,3.5-22,6.9c0.4-2.4,0-3.8,1-7.1c-5-33.5-2-64.9,12.5-96.1h0.8c3.2,4.2,5.7,9,7.7,14.2
			c6.2,15.7,7.4,34.7,6.9,50.6L242,156z"/>
		<path class="st0" d="M191,247.7c-5.3,10.6-10.3,18.9-18.6,27.8c-1.6,1.3-3.3,2.7-5,4.1c-5.6,5-10.5,10.7-17.5,15.8
			c-9.3,5-18.9,12.2-27.5,16.9c-0.5-0.5-0.7-0.9-1.1-1.5c-18.7-29.9-14-66.7-0.6-99.9l0.6-1.1c0,0,0,0,0,0.2
			c7.7,17.5,18.3,33.3,19.6,53.2l26.4-8.3L191,247.7z"/>
		<path class="st0" d="M116.2,576.9c1.8,0,3.5,0.2,5.3,0.3c16.9,1.4,33.1,4.7,46,12.1c0.8,0.3,1.4,0.8,2.1,1.2l20.5-58.4l0.3-1
			c1.4,1,3,2.7,4.4,5c23.1,27.6-11,65.8,2.9,96.4c-6.7-6.3-15.2-8-25.2-10c-1.6-0.8-3.3-1.3-5-2.1c-17.5-7.4-34.2-15.5-46-28.5
			c-4.1-4.6-7.5-9.7-10.2-15.7C113.2,575.9,114.2,575.9,116.2,576.9z"/>
		<path class="st0" d="M275.7,747.8c1.4-0.6,2.9-1,4.2-1.5c13.6-4.4,27.3-8,40.9-9.2c0,0,0-0.9-0.7-2.3c-14.2-17.9-3.7-47.8-19.9-65
			l0.5-0.3c18.5,8.1,30.2,22.6,39.2,39.4c8.4,15.4,14.8,32.7,22.8,48.4c-7.5,0.3-15.2,1.8-22.8,3.8c-17.2,4.4-34.7,10.8-52.2,8.6
			c-2.6-0.6-5.2-1.2-7.7-1.8c-11-3.3-20.3-9.1-25.8-18.4C260.7,750.1,267.7,748.5,275.7,747.8z"/>
		<path class="st0" d="M880.9,548.6c-10,6.6-22.9,10.9-35,12.4c-11.9-28.8-19.5-60.4-8.2-90.5l0.9-0.6c3,6,3.6,12.5,7.3,18.2
			c6.6,10.9,13.7,20.8,19.6,32.4c5.1-3.6,10.2-6.9,15.4-10.1c10.7-6.7,21-13.3,30-25c-4.2,21.6-9.7,42.8-22.8,57.3
			C885.9,544.8,883.5,546.8,880.9,548.6z"/>
		<path class="st0" d="M204.5,646.5c3.3,0.9,6.5,1.8,9.5,2.9c-6.6-19.9,2.7-39.1,1.7-58.9l0.3-0.8c17,13,22,32.9,26.1,53.6
			c2.8,14.9,5.4,30.2,12.1,42.8c-4.1-0.9-8-1.5-12.1-2.1c-4.2-0.6-8.6-1.1-13.1-1.2c-8.5-2-16.8-4.1-24.4-6.7
			c-14.3-5-27.2-11.5-37-21.3c-4.5-4.5-8.5-9.8-11.5-15.8c3.6,0.5,7.5,0.9,11.5,1.4C179.9,642,192.8,643.6,204.5,646.5z"/>
		<path class="st0" d="M84.7,436.6c16,6.9,25.8,19.5,36.8,30.2c0.3,0.3,0.5,0.5,0.6,0.7l32.3-49.8h1.2
			c18.6,38.8-18.6,64.6-20.8,98.8c-4.5-3.6-8.9-7.6-13.3-11.8c-8.3-7.8-16.7-16.4-25.8-24c-11.3-11.6-19.3-31.5-17.3-49.2
			C80.7,432.7,82.1,434.7,84.7,436.6z"/>
		<path class="st0" d="M144.7,534.8c7.5-18.2,19.9-36.2,20.5-57l0.6-0.8l1.3,0.8c0.2,0.1,0.3,0.4,0.3,0.6c0.9,2,2,3.2,3.8,5.3
			c11.6,26.6,6.4,56.6-3.8,82.5c-1.6,4.3-3.3,8.3-5.3,12.4c-11.8-11.3-27.3-15.5-40.7-24.3c-1.2-0.9-2.4-1.6-3.6-2.6
			c-12.7-11.3-19.3-28.5-21.2-44.5c8.6,3.8,17,6.9,24.9,10.9C129.9,522.2,137.9,527.3,144.7,534.8z"/>
		<path class="st0" d="M204.5,701.5c12.7,1.1,25-2.4,37.6-4.2c8.3-1.1,16.7-1.4,25.3,1.1c0.3-1.4,0.3-2.3,0-3.6
			c-12.2-18-3.6-44.4-14.9-61c3.9,0,5.6,2.6,10,3.3c7.5,4.2,13.1,10,17.5,16.9c13,20.1,15.2,48.9,26,69.8c-8.3-0.6-17,0-26,0.8
			c-12.5,1-25.3,2.5-37.8,0.9c-7.8-1-15.4-3.3-22.8-7.5c-4.2-3.2-11.9-7.4-14.8-12.5c-0.8-1.3-1.2-2.7-1.1-4
			C203.7,701.4,204,701.4,204.5,701.5z"/>
		<path class="st0" d="M817.9,619.5c0,0,0-0.9-0.5-2.3c-7.5-31.4-17.8-67.1,3.3-94h0.7l10.1,32.7l7.1,22.7
			c12.1-6.3,28.4-9.7,42.3-11.6c5.1-0.7,10-1.2,14.2-1.6c-1.1,2.3-1.7,2.6-4.1,5.3c-2.9,5.6-6.2,10.4-10.1,14.6
			c-13,14-30.9,21.4-49.3,28.8C827.1,615.8,822.4,617.6,817.9,619.5z"/>
		<path class="st0" d="M378.4,765.4c0.6-0.6,0.6-1.7,0.6-2.7c-6.7-4.5-10-13.1-15.3-21.1c-1.2-13.9-6.6-29.6-9.5-40.8
			c28.5,9.2,44.9,36,61.6,59.6c50.4,27.2,111.6,32.5,165.3,6.7c27.5-22.2,36.4-57.6,70.9-68.7c0.3,0.3,0.6,0.3,1.1,0.3
			c0,2.1-0.8,3.8-2.4,5c-3,24-16.9,43.5-25.5,57.8c15.5,3.8,30,10.6,45.1,14.5c8.8,2.3,17.5,3.7,26.8,2.7c-2.7,0.6-4.7,2-7.7,5
			c-6,4.2-12.5,7.2-19.2,9.2c-25.5,7.7-54.6-0.2-78-13.9c-19.8,0-41.6,6.3-56,14.9l54,16.9c0,0,0,1.7,0,3
			c-2.6,7.3-4.2,16.6-11.9,20.2c-20.2-10.6-43.7-18.9-64-29.9c-27.3,1.3-52.5,23.2-77.4,32.1c-2.3-0.9-4.4-1.3-4.7-2.2l-8.6-16.6
			c13.3-12.5,39.1-11.6,53.7-21.3c-17.9-8.6-39.1-11.2-59-16.9c-17.6-0.3-26.2,14.6-43.4,19c-10.7,2.6-23.5,2.7-35.3,0.1
			c-8.5-1.8-16.5-5.1-22.8-9.8c8.8-1.9,15.8-5.6,22.8-9.3C351.7,772.8,362.7,765.5,378.4,765.4z"/>
		<path class="st0" d="M774.7,673.5c-5-0.3-9.8-0.8-14-1.2c-0.5,0-0.9,0-1.2,0c0.5-1.2,0.8-2.4,1.2-3.6c6.2-19.8,7.7-43.3,14-62.8
			c3.8-11.6,9.4-22,18.6-29.2h1.7l6.6,61.7l30-5.3l20.4-3.6c-8.1,5.1-13.9,13.4-20.4,21.6c-4.1,5.2-8.6,10.3-14.2,14.2
			C806.3,673.5,789.7,674.2,774.7,673.5z"/>
		<path class="st0" d="M701.4,717.2c8.5-20.5,13.9-43.8,24.7-62.2c6.8-11.5,15.7-21.1,28.7-27c-6.6,15.7-8.6,38.7-8.3,55.4
			c4.7-0.6,9.4-0.4,14.2,0.2c4.7,0.5,9.3,1.4,14,2.6c11,2.4,21.9,5.6,31.8,5.6c-8.6,8-19.6,14.8-31.8,19.8c-4.5,1.8-9.2,3.3-14,4.7
			c-11.3,3.2-23.1,4.7-34.6,4.5C717.7,720.7,709.2,719.5,701.4,717.2z"/>
		<path class="st0" d="M643.5,753.1c9.3-17.9,16-39.1,26.8-55.8c7.6-11.6,17-21.1,31.1-26.1h0.8c-11.3,18.8-7.7,40.7-13.9,60.9
			c11.8,3.8,25,8.6,37.9,10.6c8.8,1.4,17.4,1.4,24.8-1.2c-6.7,5.9-13.3,10.6-21.3,15.5c-1.1,0.9-2.3,1.6-3.5,2.4
			c-17.4,10.9-36.8,7.6-55.8,2C661.3,758.7,652.2,755.6,643.5,753.1z"/>
	</g>
	<path class="st0" d="M500.8,728.2h0.5l66.7-66.8c3.7-3.7,5.3-9.1,4.3-14.3l-29.6-148.4l29.5-59.1c1.1-2.2,1.7-4.6,1.7-7.1v-17.3
		c0-8.3,6.7-15,15-15h17.2l32-32.2c2.8-2.8,4.4-6.6,4.4-10.6v-30h-30.4c-3.9,0-7.7,1.5-10.5,4.3l-37.2,36.7
		c-3.5,3.4-8.2,4.9-12.7,4.5L662,181.7H533.8v36.2h65.5l-44.4,76.9H445.1l-44.4-76.9H468v-36.2H338L448.4,373
		c-3.9-0.1-7.7-1.6-10.6-4.5l-41.7-41h0h-36.6v30c0,4,1.6,7.8,4.4,10.6l32,32.2c0,0,0,0,0,0h32.6l-0.3,0.3v35.8l0,0l31.3,62.3h-0.1
		l-29.6,148.4c-1,5.2,0.6,10.5,4.3,14.3L500.8,728.2 M534,331.1l-18.8,32.6h-30.3L466,331.1H534z M447.3,396.3l37.9,36.4
		C440.2,432.7,447.3,396.3,447.3,396.3z M524.5,461.6l-24.6,16l-24.4-16l24.5-4.5L524.5,461.6z M514.8,432.7l37.9-36.4
		C552.7,396.3,559.8,432.7,514.8,432.7z"/>
	<g>
		<g>
			<path class="st0" d="M467.3,145.1l-2.6,2.6l1.5-5.4L466,142l2.2-2.2l0.5,0.5L467.3,145.1z M465.7,145.9l1.1-1.1l1.2-4.2l-1.3,1.3
				l0.1,0.1L465.7,145.9z"/>
			<path class="st0" d="M468.6,140.1l-2.2,2.2l-0.3-0.3l-5.4,1.5l2.6-2.6l4.9-1.3L468.6,140.1z M466.3,141.6l1.3-1.3l-4.2,1.2
				l-1.1,1.1l3.9-1.1L466.3,141.6z"/>
		</g>
		<g>
			<path class="st0" d="M465.5,146.9l-2.6,2.6l1.5-5.4l-0.3-0.3l2.2-2.2l0.5,0.5L465.5,146.9z M463.9,147.8l1.1-1.1l1.2-4.2
				l-1.3,1.3l0.1,0.1L463.9,147.8z"/>
			<path class="st0" d="M466.7,142l-2.2,2.2l-0.3-0.3l-5.4,1.5l2.6-2.6l0.1,0l4.8-1.3L466.7,142z M464.5,143.4l1.3-1.3l-4.2,1.2
				l-1.1,1.1l3.9-1.1L464.5,143.4z"/>
		</g>
		<g>
			<path class="st0" d="M463.6,148.8l-2.6,2.6l1.5-5.4l-0.3-0.3l2.2-2.2l0.5,0.5L463.6,148.8z M462,149.6l1.1-1.1l1.2-4.2l-1.3,1.3
				l0.1,0.1L462,149.6z"/>
			<path class="st0" d="M464.8,143.8l-2.2,2.2l-0.3-0.3l-5.4,1.5l2.6-2.6l0.1,0l4.8-1.3L464.8,143.8z M462.6,145.3l1.3-1.3l-4.2,1.2
				l-1.1,1.1l3.9-1.1L462.6,145.3z"/>
		</g>
		
			<rect x="453.2" y="104.6" transform="matrix(0.7094 -0.7048 0.7048 0.7094 72.4832 385.4671)" class="st0" width="101.1" height="0.5"/>
		<g>
			<path class="st0" d="M540.2,72.6l-2.6,2.6l1.5-5.4l-0.3-0.3l2.2-2.2l0.5,0.5L540.2,72.6z M538.7,73.5l1.1-1.1l1.2-4.2l-1.3,1.3
				l0.1,0.1L538.7,73.5z"/>
			<path class="st0" d="M541.5,67.7l-2.2,2.2l-0.3-0.3l-5.4,1.5l2.6-2.6l4.9-1.3L541.5,67.7z M539.3,69.2l1.3-1.3l-4.2,1.2l-1.1,1.1
				l3.9-1.1L539.3,69.2z"/>
		</g>
	</g>
	<g>
		<g>
			<path class="st0" d="M536.8,141.2l2.6,2.6l-5.4-1.5l-0.3,0.3l-2.2-2.2l0.5-0.5L536.8,141.2z M537.7,142.8l-1.1-1.1l-4.2-1.2
				l1.3,1.3l0.1-0.1L537.7,142.8z"/>
			<path class="st0" d="M531.8,140l2.2,2.2l-0.3,0.3l1.5,5.4l-2.6-2.6l-1.3-4.9L531.8,140z M533.3,142.2l-1.3-1.3l1.2,4.2l1.1,1.1
				l-1.1-3.9L533.3,142.2z"/>
		</g>
		<g>
			<path class="st0" d="M538.7,143.1l2.6,2.6l-5.4-1.5l-0.3,0.3l-2.2-2.2l0.5-0.5L538.7,143.1z M539.5,144.7l-1.1-1.1l-4.2-1.2
				l1.3,1.3l0.1-0.1L539.5,144.7z"/>
			<path class="st0" d="M533.7,141.8l2.2,2.2l-0.3,0.3l1.5,5.4l-2.6-2.6l0-0.1l-1.3-4.8L533.7,141.8z M535.2,144.1l-1.3-1.3l1.2,4.2
				l1.1,1.1l-1.1-3.9L535.2,144.1z"/>
		</g>
		<g>
			<path class="st0" d="M540.5,144.9l2.6,2.6l-5.4-1.5l-0.3,0.3l-2.2-2.2l0.5-0.5L540.5,144.9z M541.4,146.5l-1.1-1.1l-4.2-1.2
				l1.3,1.3l0.1-0.1L541.4,146.5z"/>
			<path class="st0" d="M535.5,143.7l2.2,2.2l-0.3,0.3l1.5,5.4l-2.6-2.6l0-0.1l-1.3-4.8L535.5,143.7z M537,145.9l-1.3-1.3l1.2,4.2
				l1.1,1.1l-1.1-3.9L537,145.9z"/>
		</g>
		
			<rect x="496.3" y="54.2" transform="matrix(0.7094 -0.7048 0.7048 0.7094 70.4097 380.4001)" class="st0" width="0.5" height="101.1"/>
		<g>
			<path class="st0" d="M464.4,68.3l2.6,2.6l-5.4-1.5l-0.3,0.3l-2.2-2.2l0.5-0.5L464.4,68.3z M465.2,69.9l-1.1-1.1l-4.2-1.2l1.3,1.3
				l0.1-0.1L465.2,69.9z"/>
			<path class="st0" d="M459.4,67l2.2,2.2l-0.3,0.3l1.5,5.4l-2.6-2.6l-1.3-4.9L459.4,67z M460.9,69.3l-1.3-1.3l1.2,4.2l1.1,1.1
				l-1.1-3.9L460.9,69.3z"/>
		</g>
	</g>
	<g>
		<path class="st0" d="M446.9,35.7L445,41h-13.6l0-0.3l0.4,0c1.1,0,2.1-0.9,2.1-2.1V20.4h0c0-1.1-1-2.1-2.1-2.1l-0.4,0l0-0.3h2.5v0
			h2.1v0h2.5l0,0.3l-0.4,0c-1.1,0-2.1,0.9-2.1,2.1V40h4.7c3.5,0,4.8-1.8,5.8-4.3H446.9z"/>
		<path class="st0" d="M464.8,36.3L463,41h-13.3l0-0.3l0.5,0c1.1,0,1.9-0.8,1.9-1.7V23.3c0-1-0.8-1.7-1.9-1.7l-0.5,0l0-0.3h9.6
			c1.3,0,3.1-0.3,3.7-0.5v3.7l-0.4,0l0-0.5c0-0.9-0.6-1.7-1.6-1.7h-6.8v8.3h5.6c0.9,0,1.3-0.6,1.3-1.4l0-0.4l0.4,0v4.6l-0.4,0l0-0.4
			c0-0.7-0.4-1.3-1.3-1.4h-5.7V40h5.1c3.1,0,4.3-1.6,5.2-3.7H464.8z"/>
		<path class="st0" d="M478.2,20.8c3,0,5.4,0.6,7.7,2l0.7,4.6l-0.3,0c-1-3.8-3.5-5.6-8.1-5.6c-5,0-8.3,3.5-8.3,9.3
			c0,5.8,3.4,9.3,8.4,9.3c2.7,0,5.2-0.8,7.2-2.8l0.1-4.4c0-0.8-0.6-1.3-1.5-1.3l-0.5,0v-0.3h6V32l-0.4,0c-1,0-1.5,0.5-1.5,1.3l0,3.9
			c-1.5,1.9-4.7,4.2-9.3,4.2c-6.5,0-10.8-3.9-10.8-10.3C467.4,24.7,471.7,20.8,478.2,20.8L478.2,20.8z"/>
		<path class="st0" d="M509.5,30.7l0.2,0.7l-0.2,0.7h-9.8l-0.2-0.7l0.2-0.7H509.5z"/>
		<path class="st0" d="M541.9,36.5c-1.7,2.8-4.7,4.9-9.2,4.9c-6.9,0-11.7-4.7-11.7-12c0-7.1,4.7-11.9,11.9-11.9c3.2,0,5.8,1,7.8,2.2
			l0.7,4.6l-0.3,0c-1-3.8-4.2-5.9-8.2-5.9c-5.8,0-9.4,4.4-9.4,10.9c0,6.6,3.7,10.9,9.3,11c4.7,0,8.6-2.3,9.3-9l0.3,0L541.9,36.5z"/>
		<path class="st0" d="M568.6,41h-7.2l0-0.3l0.4,0c1.1,0,2.1-0.9,2.1-2v-8.5h-13.4v8.5c0,1.1,1,2.1,2.1,2.1l0.4,0l0,0.3h-7.2l0-0.3
			l0.4,0c1.1,0,2.1-0.9,2.1-2.1V20.4c0-1.1-1-2-2.1-2l-0.4,0l0-0.3h7.2l0,0.3l-0.4,0c-1.1,0-2.1,0.9-2.1,2v8.7h13.4v-8.8
			c0-1.1-1-2-2.1-2l-0.4,0l0-0.3h7.2l0,0.3l-0.4,0c-1.1,0-2.1,0.9-2.1,2.1v18.2h0c0,1.1,1,2.1,2.1,2.1l0.4,0L568.6,41z"/>
	</g>
</g>
</svg>
