<?xml version="1.0" encoding="utf-8"?>
<!-- Generator: Adobe Illustrator 19.2.1, SVG Export Plug-In . SVG Version: 6.00 Build 0)  -->
<svg version="1.1" id="Layer_1" xmlns="http://www.w3.org/2000/svg" xmlns:xlink="http://www.w3.org/1999/xlink" x="0px" y="0px"
	 viewBox="0 0 512 512" style="enable-background:new 0 0 512 512;" xml:space="preserve">
<style type="text/css">
	.st0{fill:#5DA3C2;}
	.st1{fill:#FFFFFF;}
	.st2{fill:none;stroke:#FFFFFF;stroke-width:3;stroke-linejoin:round;stroke-miterlimit:10;}
</style>
<path class="st0" d="M295.8,226.2c-0.1,0.3-0.2,0.8-0.2,1.1l-2.6,12.3l2.8-13L295.8,226.2"/>
<polyline class="st0" points="217,234.4 215.6,239.6 217,234.4 217,234.4 "/>
<path class="st1" d="M94.4,121.9h4.4c0.5,0,1.4-0.2,2.8-0.4c0.7-0.1,1.3-0.5,1.7-1c0.4-0.6,0.7-1.2,0.7-1.9c0-1.1-0.3-1.9-1-2.5
	s-2-0.9-3.9-0.9h-4.6V121.9 M83.8,143v-34.6h17.5c3.3,0,5.7,0.3,7.5,0.8c1.7,0.6,3.1,1.6,4.2,3.1c1.1,1.5,1.6,3.3,1.6,5.5
	c0,1.9-0.4,3.5-1.2,4.9c-0.8,1.4-1.9,2.5-3.4,3.3c-0.9,0.5-2.2,1-3.8,1.3c1.2,0.4,2.1,0.9,2.7,1.3c0.4,0.3,0.9,1,1.7,1.9
	c0.7,1,1.2,1.7,1.4,2.3l5.5,10.1h-11.7l-5.9-10.8c-0.7-1.4-1.4-2.3-1.9-2.7c-0.8-0.6-1.6-0.8-2.6-0.8h-0.9V143H83.8z"/>
<path class="st1" d="M145.5,143h-9v-4.2c-1.3,1.7-2.7,2.9-4,3.6c-1.4,0.7-3,1.1-5,1.1c-2.6,0-4.7-0.8-6.2-2.4
	c-1.5-1.6-2.2-4-2.2-7.3V118h9.6v13.5c0,1.5,0.3,2.6,0.9,3.3c0.6,0.6,1.4,1,2.4,1c1.1,0,2.1-0.4,2.8-1.3c0.7-0.9,1.1-2.4,1.1-4.6
	V118h9.6L145.5,143"/>
<path class="st1" d="M160.8,130.4c0,2.4,0.4,4.2,1.2,5.2c0.8,1.1,1.8,1.6,3,1.6c1.1,0,2.1-0.5,2.8-1.6c0.8-1.1,1.2-2.9,1.2-5.4
	c0-2.2-0.4-3.9-1.1-4.9c-0.8-1-1.7-1.6-2.7-1.6c-1.3,0-2.3,0.5-3.2,1.6C161.2,126.5,160.8,128.2,160.8,130.4 M151.3,108.4h9.6v11.7
	c1-0.9,2-1.5,3.2-2s2.5-0.7,4-0.7c3,0,5.5,1.1,7.5,3.3c2,2.2,3,5.3,3,9.3c0,2.7-0.5,5.1-1.4,7.2c-0.9,2.1-2.2,3.6-3.8,4.6
	c-1.6,1-3.4,1.5-5.3,1.5c-1.7,0-3.2-0.3-4.6-1c-1-0.5-2.2-1.4-3.4-2.8v3.3h-8.9V108.4z"/>
<path class="st1" d="M180.6,118h9.8l5.3,16.6l5-16.6h9.2l-9.9,26.6c-1.1,3-2.3,5.1-3.4,6.2c-1.6,1.5-4.1,2.3-7.5,2.3
	c-1.4,0-3.5-0.2-6.3-0.5l-0.7-6.4c1.4,0.5,2.9,0.7,4.5,0.7c1.1,0,2-0.3,2.7-0.8c0.7-0.6,1.3-1.6,1.7-3L180.6,118"/>
<path class="st1" d="M237.2,130.5c0,2.3,0.4,4,1.3,5.1c0.9,1.1,2,1.6,3.3,1.6c1.3,0,2.4-0.5,3.3-1.6c0.9-1.1,1.3-2.8,1.3-5.2
	c0-2.2-0.4-3.9-1.3-5c-0.9-1.1-1.9-1.6-3.2-1.6c-1.3,0-2.5,0.6-3.3,1.7S237.2,128.2,237.2,130.5 M227.6,130.6c0-3.8,1.3-6.9,3.8-9.4
	c2.5-2.5,6-3.7,10.3-3.7c4.9,0,8.7,1.4,11.2,4.3c2,2.3,3,5.2,3,8.6c0,3.8-1.3,6.9-3.8,9.4c-2.5,2.4-6,3.7-10.4,3.7c-4,0-7.2-1-9.6-3
	C229.1,137.9,227.6,134.7,227.6,130.6z"/>
<path class="st1" d="M260.7,118h8.9v4.2c1.3-1.7,2.7-2.9,4-3.6c1.4-0.7,3-1.1,5-1.1c2.6,0,4.7,0.8,6.2,2.4c1.5,1.6,2.2,4,2.2,7.3
	V143h-9.6v-13.5c0-1.5-0.3-2.6-0.9-3.3c-0.6-0.6-1.4-1-2.4-1c-1.2,0-2.1,0.4-2.8,1.3c-0.7,0.9-1.1,2.4-1.1,4.6V143h-9.6L260.7,118"
	/>
<path class="st1" d="M320.2,121.9h4.4c0.5,0,1.4-0.2,2.8-0.4c0.7-0.1,1.3-0.5,1.7-1c0.4-0.6,0.7-1.2,0.7-1.9c0-1.1-0.3-1.9-1-2.5
	c-0.7-0.6-2-0.9-3.9-0.9h-4.6L320.2,121.9 M309.7,143v-34.6h17.5c3.3,0,5.7,0.3,7.5,0.8c1.7,0.6,3.1,1.6,4.2,3.1
	c1.1,1.5,1.6,3.3,1.6,5.5c0,1.9-0.4,3.5-1.2,4.9c-0.8,1.4-1.9,2.5-3.4,3.3c-0.9,0.5-2.2,1-3.8,1.3c1.2,0.4,2.1,0.9,2.7,1.3
	c0.4,0.3,0.9,1,1.7,1.9c0.7,1,1.2,1.7,1.4,2.3l5.5,10.1h-11.7l-5.9-10.8c-0.7-1.4-1.4-2.3-1.9-2.7c-0.8-0.6-1.6-0.8-2.6-0.8h-0.9
	V143H309.7z"/>
<path class="st1" d="M363,131.5c-1.3,0.4-2.5,0.8-3.9,1.2c-1.8,0.5-3,1-3.5,1.4c-0.5,0.5-0.8,1-0.8,1.7c0,0.7,0.2,1.3,0.7,1.7
	c0.5,0.5,1.2,0.7,2.2,0.7c1,0,2-0.2,2.8-0.7c0.9-0.5,1.5-1.1,1.9-1.8c0.4-0.7,0.5-1.6,0.5-2.7V131.5 M355.8,126.7l-9.6-1
	c0.3-1.7,0.8-3,1.5-4c0.6-1,1.6-1.8,2.8-2.5c0.9-0.5,2.1-0.9,3.6-1.2c1.5-0.3,3.1-0.4,4.9-0.4c2.8,0,5.1,0.2,6.8,0.5
	c1.7,0.3,3.1,1,4.3,2c0.8,0.7,1.4,1.7,1.9,3c0.5,1.3,0.7,2.5,0.7,3.7v11c0,1.2,0.1,2.1,0.2,2.8c0.1,0.7,0.5,1.5,1,2.5h-9.2
	c-0.4-0.7-0.6-1.1-0.7-1.5c-0.1-0.3-0.2-0.9-0.3-1.6c-1.2,1.2-2.4,2-3.7,2.6c-1.7,0.7-3.6,1-5.8,1c-2.9,0-5.1-0.7-6.6-2
	c-1.5-1.3-2.3-3-2.3-5c0-1.8,0.5-3.4,1.6-4.6c1.1-1.2,3.1-2.1,6-2.7c3.5-0.7,5.8-1.2,6.8-1.5c1-0.3,2.1-0.7,3.3-1.1
	c0-1.1-0.2-1.8-0.6-2.2c-0.4-0.4-1.2-0.6-2.2-0.6c-1.4,0-2.4,0.2-3.1,0.7C356.5,124.9,356.1,125.6,355.8,126.7z"/>
<path class="st1" d="M378.8,118h9.6v25h-9.6V118 M378.8,108.4h9.6v6.7h-9.6V108.4z"/>
<polyline class="st1" points="394.6,108.4 404.2,108.4 404.2,143 394.6,143 394.6,108.4 "/>
<path class="st1" d="M408.6,136.3l9.6-1c0.3,1,0.8,1.8,1.4,2.2c0.6,0.4,1.4,0.7,2.5,0.7c1.1,0,2-0.3,2.6-0.8
	c0.5-0.4,0.7-0.9,0.7-1.5c0-0.7-0.2-1.2-0.6-1.6c-0.3-0.3-1.5-0.6-3.8-1c-3.3-0.6-5.6-1.1-6.9-1.6c-1.3-0.5-2.4-1.3-3.3-2.5
	c-0.9-1.2-1.3-2.5-1.3-4c0-1.6,0.5-3.1,1.4-4.2c0.9-1.2,2.3-2.1,3.9-2.7c1.7-0.6,3.9-0.9,6.7-0.9c3,0,5.1,0.2,6.6,0.7
	c1.4,0.5,2.6,1.2,3.5,2.1c0.9,1,1.7,2.3,2.3,3.9l-9.6,1c-0.2-0.8-0.6-1.3-1-1.7c-0.7-0.5-1.5-0.7-2.4-0.7c-1,0-1.7,0.2-2.1,0.6
	s-0.7,0.8-0.7,1.4c0,0.6,0.3,1,0.9,1.3c0.6,0.3,1.9,0.6,4,0.8c3.2,0.3,5.5,0.8,7.1,1.5c1.5,0.6,2.7,1.5,3.6,2.7s1.2,2.5,1.2,3.9
	c0,1.4-0.4,2.8-1.3,4.1c-0.9,1.3-2.2,2.4-4.1,3.2c-1.9,0.8-4.4,1.2-7.6,1.2c-4.5,0-7.8-0.6-9.7-1.9
	C410.3,140.4,409.1,138.6,408.6,136.3"/>
<path class="st1" d="M137.6,260l106.8,112.4L193.3,260H137.6z M207.4,260l48.9,111.2L305.2,260H207.4z M371.5,260h-52.2l-51,112.4
	L371.5,260z M213.5,247.1h87.7l-43.9-45.8L213.5,247.1z M332.8,197.4h-63.9l43.8,45.7L332.8,197.4z M179.9,197.4l20.8,47.2
	l45.2-47.2L179.9,197.4L179.9,197.4z M371.7,247.1l-28.1-42.2L325,247.1L371.7,247.1L371.7,247.1z M141.7,247.1h46l-18.1-41.2
	L141.7,247.1z M167.1,190h178.7l44.2,66.3L255.5,400L121,258.2L167.1,190z"/>
<path class="st2" d="M137.6,260l106.8,112.4L193.3,260H137.6z M207.4,260l48.9,111.2L305.2,260H207.4z M371.5,260h-52.2l-51,112.4
	L371.5,260z M213.5,247.1h87.7l-43.9-45.8L213.5,247.1z M332.8,197.4h-63.9l43.8,45.7L332.8,197.4z M179.9,197.4l20.8,47.2
	l45.2-47.2L179.9,197.4L179.9,197.4z M371.7,247.1l-28.1-42.2L325,247.1L371.7,247.1L371.7,247.1z M141.7,247.1h46l-18.1-41.2
	L141.7,247.1z M167.1,190h178.7l44.2,66.3L255.5,400L121,258.2L167.1,190z"/>
</svg>
