<?xml version="1.0" encoding="utf-8"?>
<!-- Generator: Adobe Illustrator 19.2.1, SVG Export Plug-In . SVG Version: 6.00 Build 0)  -->
<svg version="1.1" id="Layer_1" xmlns="http://www.w3.org/2000/svg" xmlns:xlink="http://www.w3.org/1999/xlink" x="0px" y="0px"
	 viewBox="0 0 512 512" style="enable-background:new 0 0 512 512;" xml:space="preserve">
<style type="text/css">
	.st0{fill:#5DA3C2;}
	.st1{fill:#FFFFFF;}
</style>
<path class="st0" d="M294.8,226.2c-0.1,0.3-0.2,0.8-0.2,1.1l-2.6,12.3l2.8-13L294.8,226.2"/>
<polyline class="st0" points="216,234.4 214.6,239.6 216,234.4 216,234.4 "/>
<path class="st1" d="M98,286.7v-20.8c3.9,3.2,8.1,5.6,12.6,7.2c4.5,1.6,9.1,2.4,13.7,2.4c2.7,0,5.1-0.3,7.1-0.8
	c2-0.5,3.7-1.2,5.1-2.1c1.4-0.9,2.4-2,3-3.2c0.7-1.2,1-2.6,1-4c0-1.9-0.5-3.5-1.6-5c-1.1-1.5-2.5-2.8-4.3-4.1
	c-1.8-1.2-4-2.4-6.5-3.6c-2.5-1.2-5.2-2.3-8.1-3.5c-7.4-3.1-12.9-6.9-16.5-11.4s-5.4-9.9-5.4-16.2c0-5,1-9.2,3-12.8
	c2-3.6,4.7-6.5,8.2-8.8c3.5-2.3,7.5-4,12-5.1c4.6-1.1,9.4-1.6,14.5-1.6c5,0,9.4,0.3,13.3,0.9c3.9,0.6,7.4,1.5,10.7,2.7v19.7
	c-1.6-1.1-3.3-2.1-5.2-3c-1.9-0.9-3.8-1.6-5.8-2.2c-2-0.6-4-1-5.9-1.3c-2-0.3-3.8-0.4-5.6-0.4c-2.4,0-4.6,0.2-6.6,0.7
	c-2,0.5-3.7,1.2-5,2.1c-1.4,0.9-2.4,1.9-3.2,3.2c-0.8,1.2-1.1,2.6-1.1,4.1c0,1.6,0.4,3,1.3,4.3c0.8,1.3,2,2.5,3.6,3.6
	c1.5,1.1,3.4,2.2,5.6,3.3c2.2,1.1,4.7,2.2,7.5,3.4c3.8,1.6,7.2,3.3,10.2,5.1c3,1.8,5.6,3.8,7.8,6.1c2.2,2.3,3.8,4.9,4.9,7.8
	c1.1,2.9,1.7,6.3,1.7,10.1c0,5.3-1,9.8-3.1,13.4c-2,3.6-4.8,6.5-8.3,8.8c-3.5,2.2-7.6,3.9-12.2,4.8c-4.6,1-9.5,1.5-14.7,1.5
	c-5.3,0-10.3-0.4-15.1-1.3C105.7,289.8,101.5,288.5,98,286.7"/>
<path class="st1" d="M227.4,252.2L217,219.9c-0.8-2.4-1.3-5.3-1.6-8.6h-0.6c-0.2,2.8-0.8,5.6-1.7,8.3l-10.4,32.6L227.4,252.2
	 M262.9,290.6h-23.7l-6.1-19.2h-35.8l-6.1,19.2h-23.6l35.2-96h25.8L262.9,290.6z"/>
<path class="st1" d="M270.8,286.7v-20.8c3.9,3.2,8.1,5.6,12.6,7.2c4.5,1.6,9.1,2.4,13.7,2.4c2.7,0,5.1-0.3,7.1-0.8
	c2-0.5,3.7-1.2,5.1-2.1c1.4-0.9,2.4-2,3-3.2c0.7-1.2,1-2.6,1-4c0-1.9-0.5-3.5-1.6-5s-2.5-2.8-4.3-4.1c-1.8-1.2-4-2.4-6.5-3.6
	c-2.5-1.2-5.2-2.3-8.1-3.5c-7.4-3.1-12.9-6.9-16.5-11.4c-3.6-4.5-5.4-9.9-5.4-16.2c0-5,1-9.2,3-12.8c2-3.6,4.7-6.5,8.2-8.8
	c3.5-2.3,7.5-4,12-5.1c4.6-1.1,9.4-1.6,14.5-1.6c5,0,9.4,0.3,13.3,0.9c3.9,0.6,7.4,1.5,10.7,2.7v19.7c-1.6-1.1-3.3-2.1-5.2-3
	c-1.9-0.9-3.8-1.6-5.8-2.2c-2-0.6-4-1-5.9-1.3c-2-0.3-3.8-0.4-5.6-0.4c-2.4,0-4.6,0.2-6.6,0.7c-2,0.5-3.7,1.2-5,2.1
	c-1.4,0.9-2.4,1.9-3.2,3.2c-0.7,1.2-1.1,2.6-1.1,4.1c0,1.6,0.4,3,1.3,4.3c0.8,1.3,2,2.5,3.6,3.6c1.5,1.1,3.4,2.2,5.6,3.3
	c2.2,1.1,4.7,2.2,7.5,3.4c3.8,1.6,7.2,3.3,10.2,5.1c3,1.8,5.6,3.8,7.8,6.1c2.2,2.3,3.8,4.9,4.9,7.8s1.7,6.3,1.7,10.1
	c0,5.3-1,9.8-3.1,13.4s-4.8,6.5-8.3,8.8c-3.5,2.2-7.6,3.9-12.2,4.8s-9.5,1.5-14.7,1.5c-5.3,0-10.3-0.4-15.1-1.3
	C278.5,289.8,274.3,288.5,270.8,286.7"/>
<path class="st1" d="M347.6,286.7v-20.8c3.9,3.2,8.1,5.6,12.6,7.2c4.5,1.6,9.1,2.4,13.7,2.4c2.7,0,5.1-0.3,7.1-0.8
	c2-0.5,3.7-1.2,5.1-2.1c1.4-0.9,2.4-2,3-3.2c0.7-1.2,1-2.6,1-4c0-1.9-0.5-3.5-1.6-5c-1.1-1.5-2.5-2.8-4.3-4.1
	c-1.8-1.2-4-2.4-6.5-3.6c-2.5-1.2-5.2-2.3-8.1-3.5c-7.4-3.1-12.9-6.9-16.5-11.4c-3.6-4.5-5.4-9.9-5.4-16.2c0-5,1-9.2,3-12.8
	c2-3.6,4.7-6.5,8.2-8.8c3.5-2.3,7.5-4,12-5.1c4.6-1.1,9.4-1.6,14.5-1.6c5,0,9.4,0.3,13.3,0.9c3.9,0.6,7.4,1.5,10.7,2.7v19.7
	c-1.6-1.1-3.3-2.1-5.2-3c-1.9-0.9-3.8-1.6-5.8-2.2c-2-0.6-4-1-5.9-1.3c-2-0.3-3.8-0.4-5.6-0.4c-2.4,0-4.6,0.2-6.6,0.7
	c-2,0.5-3.7,1.2-5,2.1c-1.4,0.9-2.4,1.9-3.2,3.2c-0.8,1.2-1.1,2.6-1.1,4.1c0,1.6,0.4,3,1.3,4.3c0.8,1.3,2,2.5,3.6,3.6
	c1.5,1.1,3.4,2.2,5.6,3.3c2.2,1.1,4.7,2.2,7.5,3.4c3.8,1.6,7.2,3.3,10.2,5.1c3,1.8,5.6,3.8,7.8,6.1c2.2,2.3,3.8,4.9,5,7.8
	c1.1,2.9,1.7,6.3,1.7,10.1c0,5.3-1,9.8-3.1,13.4c-2,3.6-4.8,6.5-8.3,8.8c-3.5,2.2-7.6,3.9-12.2,4.8c-4.6,1-9.5,1.5-14.7,1.5
	c-5.3,0-10.3-0.4-15.1-1.3C355.3,289.8,351.1,288.5,347.6,286.7"/>
</svg>
