<?xml version="1.0" encoding="utf-8"?>
<!-- Generator: Adobe Illustrator 19.2.1, SVG Export Plug-In . SVG Version: 6.00 Build 0)  -->
<svg version="1.1" id="Capa_1" xmlns="http://www.w3.org/2000/svg" xmlns:xlink="http://www.w3.org/1999/xlink" x="0px" y="0px"
	 viewBox="0 0 90 90" style="enable-background:new 0 0 90 90;" xml:space="preserve">
<style type="text/css">
	.st0{fill:#FFFFFF;}
</style>
<g>
	<path id="SoundCloud" class="st0" d="M0,54c0,3,1.4,5.8,3.6,7.6V46.4C1.4,48.3,0,51,0,54 M7.3,44.4v19.2c0.9,0.2,1.8,0.4,2.8,0.4h1
		V44.1c-0.3,0-0.6,0-1,0C9.2,44,8.2,44.2,7.3,44.4 M15.7,45.7c-0.3-0.2-0.5-0.3-0.8-0.5V64h3.8V38.9C17.2,40.8,16.1,43.2,15.7,45.7
		 M22.4,35.3V64h3.8V33.5C24.9,33.9,23.6,34.6,22.4,35.3 M30,32.7V64h3.8V32.8c-0.8-0.1-1.6-0.2-2.4-0.2
		C30.9,32.7,30.4,32.7,30,32.7 M39.6,34.9c-1.2-0.7-2.6-1.3-4-1.7V64h5.7V32.6C40.7,33.4,40.1,34.1,39.6,34.9 M43.2,30.8V64H79l0,0
		c7.5-0.5,11-5.2,11-10.9c0-6-4.6-10.9-10.7-10.9c-1.6,0-2.9,0.3-4.2,0.9C74.1,33.5,66,26,56,26C51,26,46.6,27.8,43.2,30.8"/>
</g>
</svg>
