<?xml version="1.0" encoding="utf-8"?>
<!-- Generator: Adobe Illustrator 19.2.1, SVG Export Plug-In . SVG Version: 6.00 Build 0)  -->
<svg version="1.1" id="Capa_1" xmlns="http://www.w3.org/2000/svg" xmlns:xlink="http://www.w3.org/1999/xlink" x="0px" y="0px"
	 viewBox="0 0 100 100" style="enable-background:new 0 0 100 100;" xml:space="preserve">
<style type="text/css">
	.st0{display:none;}
	.st1{display:inline;}
	.st2{fill:#2E770C;}
	.st3{fill:#2E770C;stroke:#2E770C;stroke-width:0.75;stroke-miterlimit:10;}
	.st4{fill:none;stroke:#2E770C;stroke-miterlimit:10;}
	.st5{fill:#2E770C;stroke:#2E770C;stroke-miterlimit:10;}
	.st6{fill:none;stroke:#2E770C;stroke-linecap:round;stroke-linejoin:round;stroke-miterlimit:10;}
	.st7{display:inline;fill:none;stroke:#2E770C;stroke-miterlimit:10;}
	.st8{display:inline;fill:#2E770C;}
	.st9{fill:#FFFFFF;}
</style>
<g id="Capa_1_1_" class="st0">
	<g class="st1">
		<polygon class="st2" points="28.4,68.7 15,61 15,39.2 28.4,31.5 28.4,30.2 48,18.9 33.8,10.7 3.3,30.4 3.3,69.8 33.8,89.5 
			48.3,81.1 28.4,69.6 		"/>
		<polygon class="st2" points="48,36.5 52.7,39.2 52.7,61 48.3,63.5 62.5,71.6 68,68.5 68,31.3 62.5,28.2 		"/>
		<polygon class="st2" points="43.7,39 48,36.5 33.8,28.4 28.4,31.5 28.4,68.7 33.8,71.8 48.3,63.5 43.7,60.8 		"/>
		<polygon class="st2" points="62.5,10.5 48,18.9 68,30.4 68,31.3 81.4,39 81.4,60.8 68,68.5 68,69.8 48.3,81.1 62.5,89.3 
			96.7,69.6 96.7,30.2 		"/>
	</g>
</g>
<g id="Capa_2" class="st0">
	<g class="st1">
		<rect x="27.2" y="84" class="st2" width="43.7" height="10"/>
		<polygon class="st2" points="66,7 66,17 55,17 55,7 44,7 44,17 33,17 33,7 24,7 24,30 75,30 75,7 		"/>
		<polygon class="st2" points="67.2,38.4 30.6,38.4 23.8,29.9 75.2,29.9 		"/>
		<path class="st2" d="M31,40v42h36V40H31z M56,64H43v-5.2c0-3.5,3-6.3,6.5-6.3s6.5,2.8,6.5,6.3V64z"/>
	</g>
</g>
<g id="Capa_3" class="st0">
	<g class="st1">
		<path class="st3" d="M24.3,24.7c0,0.9-0.5,1.6-1.2,1.6h-7H9c-0.7,0-1.3-0.7-1.2-1.6c0.5-6.4,4-11.4,8.3-11.4S24.5,17.3,24.3,24.7z
			"/>
		<path class="st4" d="M16,13.5h50.9c0,0,6.6,1.1,6.6,9.5s0,64.5,0,64.5H34.3c0,0-10.4-0.6-10.4-11.5c0-12.8,0.1-52.1,0.1-52.1"/>
		<path class="st2" d="M35.4,88c0,0,5.3-4.3,5.3-9c0-2,1.3-2,1.3-2h45c0,0,1.4,0,1.4,2.8S85.5,88,81.2,88S35.4,88,35.4,88z"/>
		<line class="st4" x1="32" y1="26.8" x2="65.9" y2="26.8"/>
		<line class="st4" x1="32" y1="37.4" x2="65.9" y2="37.4"/>
		<line class="st4" x1="32" y1="47.1" x2="65.9" y2="47.1"/>
		<line class="st4" x1="32" y1="57.3" x2="65.9" y2="57.3"/>
		<path class="st5" d="M86.6,66.5h-0.3c0.7,0,1.2-1.2,1.2-1.8v-0.5c0-0.7-0.5-1.7-1.2-1.7h-7.6c-0.7,0-1.3,1-1.3,1.7v0.5
			c0,0.7,0.6,1.8,1.3,1.8h-0.4c-1.2,0-2.8,2.3-2.8,3.5v3.5c0,1.2,0.9,2,2.1,2h10c1.2,0,1.9-0.9,1.9-2V70
			C89.5,68.8,87.8,66.5,86.6,66.5z"/>
		<path class="st6" d="M82.5,62.7c0,0-2.5-14.4,10.7-26.5C93.3,48.2,93.3,52.8,82.5,62.7z"/>
		<line class="st6" x1="92.8" y1="42.9" x2="90.7" y2="43.4"/>
		<line class="st6" x1="92.3" y1="46.9" x2="90.2" y2="47.2"/>
		<line class="st6" x1="91.8" y1="50.5" x2="89.6" y2="50.8"/>
	</g>
</g>
<g id="Capa_4" class="st0">
	<polygon class="st7" points="8,91.5 9,78 56.4,36.3 64.3,44 22.3,91.3 	"/>
	<line class="st7" x1="8" y1="91.5" x2="60.2" y2="40"/>
	<path class="st8" d="M79.1,48.7l-28-28c-1.8-1.8-4.7-1.7-6.5,0.1c-1.8,1.8-1.7,4.6,0,6.4c1.7,1.7,4.2,1.9,6.1,0.2L72.4,49
		c-1.6,1.9-1.5,4.5,0.2,6.2c1.8,1.8,4.7,1.7,6.4-0.1C80.8,53.4,80.8,50.5,79.1,48.7z"/>
	<path class="st8" d="M85.8,18.6c-1.1,0-2.1-0.6-3-1.4c-0.8-0.8-1.4-1.8-1.5-2.9L61.9,30l8.2,8.2L85.8,18.6z"/>
	<ellipse transform="matrix(0.7071 -0.7071 0.7071 0.7071 16.1241 65.2969)" class="st8" cx="86.9" cy="13.2" rx="4.6" ry="4.6"/>
</g>
<g id="Capa_5">
	<g>
		<rect x="27.3" y="73.6" class="st9" width="41.6" height="11.3"/>
		<path class="st9" d="M19.1,78.3l-0.8-1.7l-1.1,0.5c-0.9-1-2.5-1.4-3.8-0.8s-2,2-1.8,3.4l-1.1,0.5l0.8,1.7l1.1-0.5
			c0.9,1,2.5,1.4,3.8,0.8s2-2,1.8-3.4L19.1,78.3z"/>
		<path class="st9" d="M14.6,68.5c-6,0-10.8,4.9-10.8,10.8c0,6,4.9,10.8,10.8,10.8s10.8-4.9,10.8-10.8
			C25.5,73.3,20.6,68.5,14.6,68.5z M16.6,83.2c-1.8,0.8-3.8,0.3-5-1l-1.5,0.7L9,80.6l1.5-0.7c-0.2-1.8,0.7-3.7,2.5-4.5s3.8-0.3,5,1
			l1.5-0.7l1.1,2.3L19,78.7C19.3,80.6,18.3,82.4,16.6,83.2z"/>
		<path class="st9" d="M84.1,75.7l-1.7-0.8L81.9,76c-1.4-0.2-2.8,0.5-3.4,1.8s-0.3,2.8,0.8,3.8l-0.5,1.1l1.7,0.8l0.5-1.1
			c1.4,0.2,2.8-0.5,3.4-1.8s0.3-2.8-0.8-3.8L84.1,75.7z"/>
		<path class="st9" d="M74.4,71c-4.6,3.8-5.2,10.7-1.3,15.3c3.8,4.6,10.7,5.2,15.3,1.3c4.6-3.8,5.2-10.7,1.3-15.3
			C85.8,67.7,79,67.1,74.4,71z M85.3,81.1c-0.8,1.8-2.7,2.7-4.5,2.4L80.1,85l-2.3-1.1l0.7-1.5c-1.4-1.2-1.8-3.3-1-5
			c0.8-1.8,2.7-2.7,4.5-2.4l0.7-1.5l2.3,1.1l-0.7,1.5C85.7,77.3,86.2,79.3,85.3,81.1z"/>
		<rect x="33.9" y="65.4" class="st9" width="29" height="6"/>
		<circle class="st9" cx="49.2" cy="39" r="6.9"/>
		<path class="st9" d="M98.1,13.8l-21,9.7c0.4,0.9,0.9,1.7,1.5,2.5L57,33.8l1.4,3.9L82.3,29c1.7,1.7,6.8,2.5,11.9-0.1
			C99.8,26,100.4,19.3,98.1,13.8z"/>
		<path class="st9" d="M41.1,43.5l-1.4-3.9L22,46c-0.9-1.5-2.8-2.2-4.5-1.6l-13.8,5c-1.9,0.7-2.9,2.8-2.2,4.8l0.9,2.5
			c0.7,1.9,2.8,2.9,4.8,2.2l13.8-5c1.7-0.6,2.7-2.3,2.4-4.1L41.1,43.5z"/>
		<rect x="31.7" y="54.4" transform="matrix(0.3625 -0.932 0.932 0.3625 -26.0561 75.4994)" class="st9" width="21" height="4.7"/>
		<rect x="52.7" y="46.7" transform="matrix(0.968 -0.2511 0.2511 0.968 -12.6012 15.6527)" class="st9" width="4.7" height="21"/>
		<path class="st9" d="M83.9,13.5c-1-0.1-2.1,0.1-3,0.5c-2.9,1.4-4.2,4.8-2.7,8l5.3-2.6C82.4,17.1,82.8,15.2,83.9,13.5z"/>
		<path class="st9" d="M86.4,18.1c-1.4-2.9-0.4-6.2,2.2-7.5s5.9,0,7.2,2.9"/>
		<path class="st9" d="M82.8,9.9c-1.5,0.7-2.5,2.4-2.7,4.4c0.3-0.3,0.7-0.5,1.1-0.7c1-0.5,2.2-0.7,3.2-0.6c-1.2,1.8-1.6,3.9-0.5,6.3
			l2-1c-1.2-2.4-0.4-6.1,2.2-7.7C86.3,9.4,84.4,9.1,82.8,9.9z"/>
	</g>
</g>
</svg>
