<?xml version="1.0" encoding="utf-8"?>
<!-- Generator: Adobe Illustrator 19.2.1, SVG Export Plug-In . SVG Version: 6.00 Build 0)  -->
<svg version="1.1" id="Capa_1" xmlns="http://www.w3.org/2000/svg" xmlns:xlink="http://www.w3.org/1999/xlink" x="0px" y="0px"
	 viewBox="0 0 430.1 430.1" style="enable-background:new 0 0 430.1 430.1;" xml:space="preserve">
<style type="text/css">
	.st0{fill:#FFFFFF;}
</style>
<g>
	<path id="Vimeo" class="st0" d="M367.2,28.8c-59.8-2-100.3,31.6-121.4,100.7c10.9-4.5,21.5-6.8,31.9-6.8
		c21.8,0,31.5,12.2,28.9,36.8c-1.3,14.9-10.9,36.5-28.9,64.9S246.2,267,237.2,267c-11.6,0-22.2-22-31.9-65.8
		c-3.2-12.9-9-45.8-17.3-98.8c-7.8-49-28.3-72-61.7-68.7C112.2,34.9,91,47.8,62.7,72.3C42.1,91,21.2,109.8,0,128.5l20.2,26.1
		C39.5,141,50.8,134.3,54,134.3c14.8,0,28.6,23.2,41.5,69.7c11.5,42.6,23.2,85.2,34.7,127.8c17.3,46.5,38.5,69.7,63.6,69.7
		c40.5,0,90-38.1,148.5-114.2C398.8,214.4,428,156.9,430,115C432.5,58.8,411.6,30,367.2,28.8z"/>
</g>
</svg>
